<svg width="9" height="18" viewBox="0 0 9 18" fill="none" xmlns="http://www.w3.org/2000/svg">
<path fill-rule="evenodd" clip-rule="evenodd" d="M0.123095 16.4514C0.30161 16.8187 0.612092 17.0367 1.00015 17.0672C1.17194 17.0807 1.40442 17.06 1.51674 17.0211C1.68127 16.9643 2.40772 16.2061 5.25713 13.1174C7.62341 10.5524 8.82795 9.20691 8.89785 9.05038C9.02717 8.7611 9.03474 8.28612 8.91464 7.99867C8.85893 7.86533 7.56865 6.41797 5.37982 4.0336C2.73827 1.15597 1.87154 0.245306 1.67084 0.136356C0.720015 -0.379749 -0.274816 0.664598 0.162388 1.71988C0.244206 1.91736 0.981671 2.75301 3.27175 5.24322L6.27388 8.5077L3.21848 11.8297C1.10358 14.1292 0.137976 15.2175 0.0814722 15.3656C-0.0413327 15.6874 -0.0235927 16.1495 0.123095 16.4514Z" fill="white"/>
</svg>
