<svg width="52" height="54" viewBox="0 0 52 54" fill="none" xmlns="http://www.w3.org/2000/svg">
<path d="M2.59549 53.7792C2.53783 53.7416 2.47675 53.7096 2.41305 53.6835C0.892305 53.2172 0.03996 52.1072 0.00990791 50.507C-0.00947684 49.4748 0.00555904 48.4419 0.00555904 47.4093C0.00551508 34.4233 0.00571943 21.4372 0.00617209 8.45112C0.00634043 6.65986 0.874778 5.41507 2.42163 5.02472C2.78035 4.9486 3.14674 4.91475 3.51332 4.92385C4.66829 4.91174 5.82336 4.91174 6.97852 4.92383C7.27023 4.92664 7.4396 4.87361 7.55112 4.55105C7.86651 3.63882 8.57898 3.1688 9.55512 3.16749C11.7253 3.16456 13.8955 3.16424 16.0657 3.16651H16.6693C16.6709 2.16072 16.5766 1.17636 17.438 0.466407C18.168 -0.135354 19.0255 0.0122723 19.8518 0.0251127C21.1595 0.0454429 21.6769 0.870898 21.8312 3.16651H22.3773C24.5299 3.16652 26.6826 3.16665 28.8353 3.16691C29.9328 3.16756 30.5527 3.578 30.9478 4.61642C31.0543 4.89633 31.2187 4.92407 31.4642 4.92253C32.6368 4.91522 33.8094 4.91452 34.982 4.92045C37.1792 4.93169 38.4731 6.22266 38.4748 8.41355C38.4784 13.3665 38.4788 18.3194 38.4759 23.2723C38.4759 23.478 38.4759 23.6837 38.4759 23.8894L38.5723 23.9258C38.6672 23.7759 38.7674 23.629 38.8561 23.4755C40.2995 20.9795 41.7413 18.4825 43.1815 15.9847C43.7676 14.964 44.5909 14.2701 45.7452 13.9736C45.9184 13.9105 46.0653 13.7907 46.1619 13.6337C46.4113 13.2548 46.6119 12.8441 46.8544 12.4604C47.5964 11.2864 49.0292 10.9295 50.1981 11.6167C51.3353 12.2854 51.7258 13.6989 51.1065 14.9057C51.0837 14.9528 51.0583 14.9987 51.0303 15.043C50.5545 15.757 50.1753 16.4559 50.448 17.3992C50.584 17.8691 50.2569 18.4789 50.4081 18.9367C50.5525 19.3737 51.094 19.6625 51.3762 20.0745C52.1183 21.1582 52.2313 22.281 51.5363 23.4648C50.0233 26.042 48.5467 28.6404 47.0377 31.22C46.8981 31.4587 46.6609 31.7324 46.4194 31.7934C46.2804 31.8155 46.1381 31.8052 46.0036 31.7634C45.8691 31.7216 45.7461 31.6494 45.6441 31.5524C45.49 31.3718 45.4933 31.012 45.5181 30.739C45.5355 30.548 45.7024 30.3693 45.8072 30.1879C47.214 27.7515 48.6211 25.3154 50.0287 22.8795C50.602 21.8867 50.4957 21.2814 49.5666 20.453C49.4551 20.6285 49.3421 20.7927 49.2428 20.9648C47.3112 24.3093 45.3818 27.6551 43.4547 31.0022C43.1077 31.607 42.701 32.0893 41.9488 32.1627C41.8854 32.1817 41.8265 32.2132 41.7754 32.2553C41.7243 32.2973 41.682 32.3491 41.6512 32.4077C40.6302 34.1591 39.6117 35.9121 38.6138 37.6767C38.5131 37.8967 38.4677 38.1379 38.4815 38.3794C38.4737 42.1947 38.4718 46.01 38.4759 49.8253C38.4759 52.1468 37.9741 52.9121 35.8835 53.7792L2.59549 53.7792ZM4.79675 49.0557C5.82917 49.0557 6.80643 49.0557 7.7837 49.0557C10.9335 49.0557 14.0833 49.056 17.2331 49.0566C17.8046 49.0569 18.1241 49.291 18.19 49.7414C18.266 50.2607 17.8739 50.6258 17.2246 50.626C13.1473 50.6278 9.07006 50.628 4.99281 50.6268C3.76866 50.6266 3.15779 50.0229 3.15756 48.7889C3.15529 36.3822 3.15519 23.9754 3.15724 11.5687C3.15742 10.2893 3.7751 9.68688 5.06924 9.68636C7.50159 9.68537 9.93395 9.68528 12.3663 9.68607H12.9563V8.28399C12.7441 8.28399 12.5573 8.28403 12.3706 8.28398C11.4431 8.28375 10.5154 8.29695 9.58831 8.27954C8.62248 8.26139 7.8962 7.8262 7.5617 6.90343C7.43682 6.55892 7.26827 6.5046 6.95563 6.50841C5.80087 6.52252 4.64583 6.5128 3.49091 6.51435C2.20751 6.51607 1.62568 7.0881 1.62559 8.3582C1.62457 22.3573 1.62459 36.3565 1.62564 50.3557C1.62574 51.611 2.23067 52.2055 3.50142 52.2056C14.0008 52.2063 24.5002 52.2062 34.9995 52.2054C36.2549 52.2053 36.8542 51.6016 36.8552 50.3347C36.8576 47.3599 36.8574 44.3851 36.8547 41.4103C36.8546 41.248 36.8346 41.0857 36.8144 40.7801C36.3541 41.5724 35.9473 42.2201 35.5985 42.8976C35.4397 43.2013 35.3505 43.5366 35.3375 43.879C35.3115 45.5235 35.3305 47.1686 35.3239 48.8135C35.3191 50.0149 34.7037 50.6264 33.5155 50.6267C29.4733 50.6274 25.431 50.6275 21.3888 50.6267C21.249 50.6352 21.1088 50.6324 20.9694 50.6185C20.7737 50.6024 20.5924 50.5094 20.4651 50.3599C20.3379 50.2103 20.2752 50.0164 20.2907 49.8206C20.2844 49.6333 20.3501 49.4507 20.4742 49.3103C20.5984 49.17 20.7715 49.0824 20.9582 49.0657C21.1149 49.05 21.2726 49.0468 21.4299 49.056C25.3146 49.0556 29.1994 49.0555 33.0842 49.0557H33.6557V44.777C32.7578 45.6152 31.7969 46.5068 30.8425 47.4054C30.3399 47.8786 29.8262 47.9771 29.326 47.6757C28.8393 47.3824 28.674 46.9166 28.852 46.2652C29.2384 44.8518 29.637 43.4418 30.0244 42.0287C30.0643 41.883 30.1194 41.7037 30.0703 41.5779C29.8422 40.9924 30.0176 40.4963 30.3141 39.9898C31.3729 38.1803 32.4195 36.3638 33.4538 34.5401C33.6055 34.2707 33.6885 33.9682 33.6955 33.6592C33.7086 26.3971 33.7116 19.1351 33.7045 11.873C33.7044 11.6889 33.6853 11.5049 33.6746 11.3119H25.494C25.494 11.5294 25.499 11.7166 25.4931 11.9035C25.4579 13.0177 24.6398 13.855 23.5151 13.8611C20.6629 13.8766 17.8106 13.8765 14.9582 13.8606C13.8347 13.854 13.019 13.012 12.9875 11.897C12.9823 11.7108 12.9868 11.5243 12.9868 11.32H4.79675V49.0557ZM41.815 30.6041C41.8965 30.4788 41.9565 30.3949 42.0079 30.306C44.1913 26.5279 46.3726 22.7485 48.5517 18.9679C48.7084 18.7159 48.8156 18.4362 48.8675 18.144C48.9554 17.4737 49.0042 16.9053 48.1653 16.5482C47.7152 16.3555 47.2898 16.1098 46.898 15.8161C46.3047 15.3714 45.7744 15.5185 45.2865 15.9308C44.9963 16.1798 44.7501 16.4759 44.5583 16.8066C42.4089 20.504 40.2688 24.2068 38.138 27.9149C38.0632 28.0445 38.0083 28.1855 37.9273 28.3566L41.815 30.6041ZM35.3257 31.0769L35.4492 31.1031C35.7778 30.5318 36.1158 29.9655 36.4272 29.385C36.4922 29.2506 36.5012 29.0959 36.4523 28.9549C36.2085 28.3816 36.3673 27.8731 36.6104 27.3461C36.7533 27.054 36.8335 26.7352 36.846 26.4103C36.8598 20.6379 36.863 14.8655 36.8558 9.093C36.8558 8.7257 36.8666 8.35761 36.8468 7.99126C36.8342 7.60219 36.6726 7.23284 36.3954 6.95954C36.1182 6.68623 35.7466 6.52986 35.3574 6.52275C34.0283 6.50039 32.6986 6.51002 31.3694 6.52259C31.2443 6.52377 31.0396 6.61542 31.0082 6.71019C30.5801 8.0043 29.6029 8.33206 28.3702 8.29029C27.4319 8.25848 26.4916 8.28397 25.5251 8.28397V9.68606H26.1129C28.5093 9.68606 30.9057 9.68608 33.3022 9.68613C34.7602 9.68627 35.3253 10.2536 35.3254 11.7208C35.3259 17.9655 35.326 24.2103 35.3257 30.455C35.3257 30.6623 35.3257 30.8696 35.3257 31.0769ZM19.2227 6.66438C22.3728 6.66438 25.523 6.66803 28.6732 6.65675C28.9003 6.65594 29.3042 6.58086 29.3237 6.48129C29.434 6.01489 29.459 5.53238 29.3976 5.05706C29.3246 4.64606 28.8759 4.73909 28.5512 4.739C22.3383 4.73737 16.1254 4.737 9.91259 4.73788C9.79009 4.73788 9.63158 4.69041 9.55216 4.74921C9.34128 4.88792 9.16128 5.06863 9.02342 5.28006C8.94139 5.4273 9.00488 5.65636 9.00569 5.84886C9.00872 6.57424 9.0946 6.66334 9.82462 6.66372C12.9573 6.66532 16.09 6.66554 19.2227 6.66438ZM37.8391 30.151C35.7485 33.773 33.6931 37.3341 31.6177 40.93L34.0675 42.3429L40.2878 31.5662C39.4516 31.0829 38.6683 30.6302 37.8391 30.151ZM14.6038 8.31284V9.6561H23.8906V8.31284H14.6038ZM23.8796 11.32H14.6001C14.514 12.1851 14.5962 12.2799 15.4099 12.2801C17.9628 12.2809 20.5157 12.2809 23.0686 12.2801C23.8834 12.2799 23.965 12.1863 23.8796 11.32ZM49.0808 15.2482C49.3231 14.8126 49.5618 14.4457 49.7374 14.0507C49.8231 13.8569 49.8317 13.6378 49.7614 13.4379C49.691 13.2381 49.5471 13.0726 49.3589 12.9753C49.1724 12.8762 48.9559 12.8494 48.7509 12.9C48.5458 12.9506 48.3667 13.0751 48.2477 13.2496C48.0104 13.6027 47.812 13.9821 47.5816 14.3755L49.0808 15.2482ZM20.3248 3.13804C20.195 2.60501 20.225 1.94379 19.9311 1.73207C19.6097 1.50049 18.8553 1.50456 18.5378 1.74024C18.2475 1.95574 18.2885 2.61762 18.171 3.13804H20.3248ZM31.5002 42.7055L30.9406 44.7203C31.3551 44.3388 31.9224 43.8167 32.4999 43.2852C32.1951 43.1085 31.881 42.9263 31.5002 42.7055Z" fill="white"/>
<path d="M17.1053 26.0706C17.1052 24.0109 17.7926 23.0472 19.7436 22.371C20.536 22.0964 21.0492 21.3123 20.9381 20.5459C20.8827 20.1347 20.6839 19.7563 20.3768 19.4773C20.0696 19.1983 19.6739 19.0367 19.2593 19.0209C18.8535 19.0202 18.4607 19.1636 18.1509 19.4258C17.8412 19.6879 17.6347 20.0516 17.5684 20.4519C17.5185 20.708 17.5287 20.976 17.4762 21.2314C17.3613 21.7264 17.072 22.1635 16.6613 22.4627C16.2505 22.7618 15.7458 22.9031 15.2394 22.8606C14.733 22.8181 14.2589 22.5947 13.9038 22.2312C13.5487 21.8677 13.3363 21.3885 13.3056 20.8813C13.1514 17.5398 16.0258 14.652 19.3885 14.8009C21.943 14.914 23.7225 16.1875 24.7507 18.5154C24.9955 19.0698 24.8343 19.5324 24.385 19.7128C23.9253 19.8973 23.5383 19.689 23.2833 19.1145C22.6427 17.6717 21.5624 16.7738 20.0084 16.4535C17.5093 15.9384 14.9648 17.9479 14.8804 20.5049C14.8676 20.8899 14.9278 21.2299 15.4075 21.2406C15.8589 21.2508 15.9218 20.9345 15.9453 20.5666C16.0662 18.6752 17.5905 17.3532 19.5206 17.452C21.2306 17.5396 22.6141 19.1297 22.5386 20.9208C22.4824 22.2545 21.5607 23.4199 20.2435 23.8871C19.8495 24.0149 19.4821 24.2134 19.1592 24.4728C18.7282 24.8453 18.51 26.4704 18.793 26.9603C18.8486 27.0423 18.9224 27.1104 19.0086 27.1591C19.0948 27.2079 19.1912 27.2361 19.2901 27.2415C19.3847 27.2173 19.4726 27.1716 19.5467 27.108C19.6208 27.0443 19.6793 26.9644 19.7174 26.8745C19.7986 26.6561 19.7602 26.3929 19.7706 26.1488C19.7968 25.5276 20.0818 25.0849 20.672 24.8635C21.2488 24.6541 21.7768 24.3291 22.2235 23.9084C22.6703 23.4877 23.0264 22.9802 23.27 22.417C23.4995 21.9167 23.9074 21.7467 24.3252 21.9246C24.7666 22.1126 24.9333 22.5624 24.7154 23.0646C24.1463 24.4173 23.0926 25.5088 21.7609 26.1252C21.4958 26.2515 21.373 26.3764 21.3643 26.6951C21.3298 27.9623 20.3973 28.8929 19.2227 28.8797C18.0578 28.8666 17.1404 27.9003 17.1063 26.6479C17.1011 26.4556 17.1056 26.263 17.1053 26.0706Z" fill="white"/>
<path d="M19.2323 36.4487C21.9607 36.4488 24.689 36.4494 27.4174 36.4504C28.0846 36.4514 28.4607 36.8531 28.3195 37.4181C28.1956 37.9138 27.8203 38.0292 27.3545 38.028C24.5911 38.0207 21.8278 38.0245 19.0644 38.0245C16.406 38.0245 13.7476 38.0206 11.0892 38.0282C10.6608 38.0295 10.3212 37.9064 10.1742 37.4848C9.97765 36.9213 10.3749 36.452 11.0472 36.4508C13.6006 36.446 16.1541 36.4452 18.7076 36.4486C18.8825 36.4486 19.0574 36.4486 19.2323 36.4487Z" fill="white"/>
<path d="M19.2706 39.664C21.8943 39.664 24.5179 39.6644 27.1416 39.6653C27.3337 39.6602 27.5259 39.6712 27.7162 39.6983C27.8836 39.7172 28.0386 39.7961 28.1526 39.9203C28.2665 40.0445 28.3317 40.2056 28.3361 40.3741C28.3738 40.746 28.2277 41.0364 27.8772 41.1713C27.6801 41.2388 27.4725 41.2703 27.2642 41.2644C21.912 41.2691 16.5597 41.2693 11.2074 41.265C11.0165 41.2699 10.8261 41.2436 10.6436 41.1873C10.2631 41.056 10.1052 40.7603 10.1458 40.3655C10.1515 40.197 10.2182 40.0363 10.3334 39.9133C10.4487 39.7903 10.6047 39.7134 10.7724 39.6967C10.9628 39.6708 11.155 39.6603 11.3472 39.6652C13.9883 39.6634 16.6295 39.663 19.2706 39.664Z" fill="white"/>
<path d="M19.2589 34.3471C18.6233 34.3518 18.0117 34.104 17.5587 33.658C17.1057 33.2121 16.8482 32.6045 16.8429 31.9688C16.8391 31.4946 16.976 31.0298 17.2363 30.6334C17.4966 30.2369 17.8686 29.9265 18.3054 29.7416C18.7421 29.5566 19.2238 29.5052 19.6897 29.5941C20.1556 29.6829 20.5847 29.9079 20.9227 30.2406C21.2607 30.5734 21.4924 30.9988 21.5886 31.4633C21.6847 31.9277 21.641 32.4102 21.4629 32.8498C21.2848 33.2894 20.9804 33.6663 20.5881 33.9328C20.1957 34.1993 19.7332 34.3435 19.2589 34.3471ZM19.2198 31.1609C19.1157 31.1607 19.0127 31.1814 18.9167 31.2219C18.8208 31.2623 18.734 31.3215 18.6615 31.3962C18.5889 31.4708 18.5321 31.5592 18.4944 31.6562C18.4567 31.7533 18.4389 31.8569 18.442 31.9609C18.4414 32.0678 18.4624 32.1738 18.5035 32.2725C18.5447 32.3712 18.6052 32.4606 18.6816 32.5355C18.758 32.6103 18.8486 32.6691 18.9481 32.7082C19.0476 32.7474 19.154 32.7661 19.2609 32.7634C19.3678 32.7607 19.4731 32.7365 19.5704 32.6923C19.6678 32.6481 19.7553 32.5848 19.8278 32.5062C19.9002 32.4275 19.9562 32.3351 19.9922 32.2345C20.0283 32.1338 20.0438 32.0269 20.0377 31.9201C20.0355 31.8161 20.0124 31.7135 19.9697 31.6185C19.9271 31.5236 19.8658 31.4382 19.7895 31.3673C19.7132 31.2965 19.6235 31.2418 19.5256 31.2063C19.4277 31.1708 19.3237 31.1554 19.2198 31.1609Z" fill="white"/>
<path d="M19.2395 44.4924C17.9799 44.4924 16.7202 44.4943 15.4606 44.4903C15.2695 44.4897 15.0263 44.5294 14.8986 44.4314C14.6568 44.2459 14.3351 43.9833 14.3193 43.7354C14.3034 43.4867 14.5828 43.1761 14.8056 42.9722C14.9308 42.8576 15.2033 42.8817 15.4095 42.8813C17.9637 42.8761 20.518 42.8761 23.0722 42.8814C23.2784 42.8818 23.5509 42.8582 23.676 42.9729C23.8984 43.1769 24.1772 43.488 24.1608 43.7364C24.1444 43.9844 23.8225 44.2463 23.5804 44.4315C23.4525 44.5294 23.2095 44.4897 23.0184 44.4903C21.7588 44.4943 20.4991 44.4924 19.2395 44.4924Z" fill="white"/>
</svg>
