<svg width="14" height="14" viewBox="0 0 14 14" fill="none" xmlns="http://www.w3.org/2000/svg">
<path d="M13.2998 1.97852L13.2891 2.01758C13.197 2.34695 12.9685 2.56909 12.8037 2.7334C11.3766 4.15623 9.95052 5.58008 8.52637 7.00586C9.95574 8.43389 11.3849 9.86223 12.8145 11.29L12.9453 11.4248C13.0813 11.5715 13.2225 11.7565 13.2891 12.001L13.2998 12.04V12.4424L13.2783 12.4971C13.2364 12.6008 13.1882 12.7021 13.1338 12.7998L13.1289 12.8066L13.125 12.8145C12.7582 13.3931 11.9563 13.4414 11.5029 13.0293C11.4588 12.9892 11.4169 12.9462 11.3838 12.9131C9.92253 11.4525 8.46123 9.99185 7 8.53125C5.5268 10.0056 4.05299 11.4794 2.58008 12.9541C2.23164 13.3047 1.71193 13.383 1.31836 13.1992L1.31738 13.1982C1.16788 13.1275 1.03631 13.0232 0.933594 12.8936C0.831003 12.764 0.759249 12.6127 0.724609 12.4512C0.689977 12.2896 0.692909 12.1221 0.733398 11.9619C0.773972 11.8016 0.851579 11.6521 0.958984 11.5264L0.959961 11.5254C1.00483 11.4736 1.05583 11.4246 1.08887 11.3916C2.55085 9.93008 4.01237 8.4681 5.47461 7.00684C3.99995 5.5326 2.52551 4.05815 1.05078 2.58398C0.61905 2.15225 0.573101 1.50949 0.983398 1.05762C1.18003 0.841188 1.4298 0.758874 1.63379 0.708984L1.66895 0.700195H1.89648L1.9248 0.705078C2.30933 0.777933 2.55959 1.03859 2.74121 1.2207C4.15937 2.64271 5.57892 4.06333 7 5.48242C8.42295 4.05899 9.84672 2.63549 11.2695 1.21191C11.4516 1.02925 11.6991 0.777821 12.0762 0.705078L12.1045 0.700195H12.3301L12.3633 0.707031C12.6177 0.764415 12.9195 0.877799 13.1123 1.18262L13.1201 1.19629C13.1783 1.29996 13.2305 1.40692 13.2764 1.5166L13.2998 1.57227V1.97852Z" fill="#005AD0" stroke="#005AD0" stroke-width="0.6"/>
</svg>
