<svg width="21" height="14" viewBox="0 0 21 14" fill="none" xmlns="http://www.w3.org/2000/svg">
<path d="M20.5269 12.5214C20.4626 12.6961 20.4178 12.881 20.3307 13.0435C20.0037 13.6534 19.4878 13.9944 18.79 13.9952C13.2832 14.0008 7.77648 14.0015 2.26972 13.9973C1.80871 13.9967 1.36669 13.8144 1.04042 13.4902C0.714149 13.1659 0.530198 12.7262 0.528831 12.2673C0.526192 8.75514 0.526197 5.243 0.528845 1.73087C0.530064 1.2719 0.714035 0.832137 1.04043 0.507985C1.36682 0.183833 1.809 0.00174025 2.27004 0.00162428C7.7703 -0.000421537 13.2706 -0.000534789 18.7708 0.00128452C19.1679 -4.10175e-05 19.5536 0.13285 19.8649 0.378206C20.1762 0.623563 20.3946 0.966851 20.4844 1.35188C20.4947 1.39468 20.5125 1.43569 20.5269 1.47754V12.5214ZM2.57961 1.17206C2.64553 1.24368 2.68608 1.2911 2.7301 1.33508C5.15155 3.75415 7.57323 6.17301 9.99514 8.59163C10.3359 8.93196 10.7163 8.93418 11.0545 8.5965C13.4813 6.17358 15.9076 3.75024 18.3335 1.32646C18.3759 1.28418 18.4129 1.23666 18.4696 1.17206H2.57961ZM2.5924 12.8204H18.4671C16.7826 11.1609 15.1171 9.52 13.4516 7.87923C12.9435 8.38269 12.4126 8.9073 11.8834 9.43361C11.097 10.2156 9.95499 10.2152 9.1696 9.43123C8.68711 8.94959 8.20462 8.46795 7.72215 7.98629C7.67329 7.93758 7.62118 7.89209 7.60997 7.88169C5.93413 9.53118 4.27109 11.1681 2.5924 12.8204ZM6.71968 6.99927C5.0388 5.34401 3.36387 3.69461 1.71494 2.07082V11.926C3.36647 10.3002 5.03472 8.65796 6.71968 6.99927ZM19.3517 2.08517C17.6984 3.71047 16.0216 5.35879 14.3501 7.00193C16.0256 8.65303 17.6928 10.296 19.3517 11.9307V2.08517Z" fill="white"/>
</svg>
