<svg width="24" height="24" viewBox="0 0 24 24" fill="none" xmlns="http://www.w3.org/2000/svg">
<path d="M24 2.43751V21.5626C23.9819 21.5962 23.9675 21.6316 23.9569 21.6682C23.7136 23.0178 22.5751 23.9966 21.2183 23.9974C15.0715 24.001 8.92466 24.0009 2.77783 23.997C2.04309 23.9934 1.33948 23.6999 0.819934 23.1804C0.300387 22.6608 0.00689285 21.9572 0.00324417 21.2225C-0.00126697 15.0756 -0.00107343 8.92866 0.00382479 2.78175C0.00453873 1.86378 0.405048 1.13112 1.12064 0.564791C1.5089 0.257517 1.96771 0.116029 2.43769 0H21.5625C21.596 0.0180472 21.6314 0.0324782 21.668 0.0430494C22.5426 0.200337 23.2076 0.667993 23.6328 1.44028C23.8018 1.74706 23.8803 2.10361 24 2.43751ZM15.8527 22.1259H16.1046C17.745 22.1259 19.3853 22.1259 21.0257 22.1257C21.7527 22.1254 22.1256 21.7553 22.1256 21.0322C22.1261 15.0097 22.1261 8.98716 22.1256 2.96465C22.1255 2.25172 21.7526 1.87459 21.0459 1.87452C15.0157 1.87387 8.98547 1.87387 2.95527 1.87451C2.24816 1.87458 1.87468 2.25153 1.87462 2.96372C1.87413 8.98624 1.87412 15.0088 1.87458 21.0313C1.87463 21.7551 2.24689 22.1256 2.97361 22.1257C6.20746 22.1262 9.4413 22.1263 12.6751 22.1259H12.9211V14.4772H10.1416V11.5678H12.9385C12.9385 11.4484 12.9369 11.355 12.9388 11.2616C12.9547 10.4816 12.9214 9.69679 12.9976 8.92273C13.1739 7.13265 14.8022 5.49195 16.5959 5.31194C17.4312 5.22812 18.2792 5.27112 19.1215 5.25794C19.1335 5.25774 19.1459 5.27442 19.1595 5.28424V8.15541C19.0728 8.15541 18.9965 8.1554 18.9203 8.15541C18.3813 8.15547 17.8422 8.14847 17.3034 8.15733C16.5688 8.16942 15.9588 8.59521 15.902 9.25137C15.8359 10.0152 15.8866 10.7891 15.8866 11.5827H19.2231C19.0602 12.5653 18.9017 13.5219 18.741 14.4916H15.8527V22.1259Z" fill="#F6F6F6"/>
</svg>
