<svg width="106" height="106" viewBox="0 0 106 106" fill="none" xmlns="http://www.w3.org/2000/svg">
<g filter="url(#filter0_d_46_2)">
<circle cx="51" cy="51" r="41" fill="#2E2E2E"/>
</g>
<path d="M77.026 54.2479C76.869 54.6787 76.7598 55.1349 76.5465 55.5358C75.7567 57.0197 74.5136 57.8291 72.8199 57.8812C71.9271 57.9087 71.0337 57.9085 70.1397 57.8805C69.7928 57.87 69.6515 58.0041 69.514 58.3012C67.1273 63.4601 63.2367 66.9201 57.8019 68.6236C57.4847 68.723 57.1633 68.8091 56.8207 68.9082C56.8207 69.5622 56.8242 70.1993 56.82 70.8364C56.8054 73.0599 55.0424 74.989 52.9127 75.1151C50.5152 75.257 48.5136 73.6479 48.2237 71.3456C48.092 70.2651 48.3756 69.1749 49.0172 68.2956C49.6587 67.4162 50.6104 66.8134 51.6795 66.6091C52.3956 66.4774 53.1404 66.5113 53.8673 66.4278C60.3274 65.6852 64.8875 62.3181 67.2375 56.2755C70.769 47.195 65.2138 37.2052 55.6743 35.214C47.1013 33.4246 38.4727 39.2867 36.9768 47.8821C36.4335 51.0038 36.8572 54.0016 37.906 56.9482C38.0107 57.2424 38.0936 57.5444 38.2015 57.8901C36.5022 57.8901 34.8605 57.9092 33.2195 57.8814C32.4921 57.8691 31.7378 57.8664 31.0453 57.6775C29.2246 57.181 28.0122 55.5041 28.0053 53.6157C27.9983 51.685 27.9982 49.7543 28.0052 47.8235C28.0044 46.6859 28.4553 45.5944 29.2587 44.789C30.0622 43.9836 31.1525 43.5302 32.2902 43.5282C33.1199 43.5219 33.9503 43.5082 34.7791 43.5358C35.1299 43.5474 35.3025 43.4446 35.4571 43.1162C38.1105 37.4819 42.4465 33.8531 48.5234 32.4591C56.6501 30.595 65.0175 34.5339 68.9746 41.9751C69.1686 42.3046 69.3348 42.6496 69.4715 43.0066C69.6185 43.4489 69.8854 43.5452 70.323 43.5385C71.3579 43.5228 72.4118 43.4532 73.4252 43.6131C75.3128 43.9109 76.4674 45.0962 76.9348 46.9486C76.9594 47.0222 76.9899 47.0937 77.026 47.1624L77.026 54.2479Z" fill="white"/>
<path d="M39.6118 63.6204V60.7977C39.822 60.7566 40.0368 60.7203 40.2489 60.6721C40.8945 60.5319 41.468 60.1637 41.8641 59.6349C42.3905 58.9472 42.3904 58.8129 41.9003 58.1047C36.5676 50.3988 40.9169 39.7342 50.1014 37.9955C57.1941 36.6528 64.0778 41.4416 65.2539 48.5366C65.8232 51.8596 65.0711 55.2734 63.1581 58.0496C61.2451 60.8257 58.3228 62.7441 55.015 63.3954C54.2008 63.5498 53.3738 63.6264 52.5451 63.6241C48.3323 63.6465 44.1192 63.6348 39.9062 63.6344C39.8267 63.6344 39.7473 63.6271 39.6118 63.6204ZM48.1667 52.1355V49.3067H45.369V52.1355H48.1667ZM51.0986 52.1111H53.9123V49.2991H51.0986V52.1111ZM56.859 49.2919V52.1203H59.6666V49.2919H56.859Z" fill="white"/>
<defs>
<filter id="filter0_d_46_2" x="0" y="0" width="106" height="106" filterUnits="userSpaceOnUse" color-interpolation-filters="sRGB">
<feFlood flood-opacity="0" result="BackgroundImageFix"/>
<feColorMatrix in="SourceAlpha" type="matrix" values="0 0 0 0 0 0 0 0 0 0 0 0 0 0 0 0 0 0 127 0" result="hardAlpha"/>
<feOffset dx="2" dy="2"/>
<feGaussianBlur stdDeviation="6"/>
<feComposite in2="hardAlpha" operator="out"/>
<feColorMatrix type="matrix" values="0 0 0 0 0.180392 0 0 0 0 0.180392 0 0 0 0 0.180392 0 0 0 0.4 0"/>
<feBlend mode="normal" in2="BackgroundImageFix" result="effect1_dropShadow_46_2"/>
<feBlend mode="normal" in="SourceGraphic" in2="effect1_dropShadow_46_2" result="shape"/>
</filter>
</defs>
</svg>
