<svg width="17" height="24" viewBox="0 0 17 24" fill="none" xmlns="http://www.w3.org/2000/svg">
<path d="M8.30291 23.2326C8.13139 23.0702 7.92678 22.931 7.79347 22.7418C6.48396 20.8827 5.16874 19.0272 3.89065 17.1466C2.79007 15.5271 1.80945 13.8358 1.10529 12C0.609985 10.7086 0.271136 9.38269 0.313945 7.98533C0.38617 5.628 1.29928 3.64671 3.05253 2.07618C4.71737 0.584848 6.69571 -0.101777 8.92564 0.0121604C12.5937 0.199581 15.5901 2.80901 16.4293 6.23467C16.8925 8.12522 16.6149 9.95085 15.9598 11.7438C15.3004 13.5488 14.3694 15.2164 13.3008 16.8035C12.0941 18.5957 10.8383 20.3549 9.60426 22.1288C9.46187 22.3334 9.3372 22.5527 9.17701 22.7421C9.02542 22.9214 8.8379 23.0703 8.66618 23.2326L8.30291 23.2326ZM8.47743 21.3194C8.50598 21.2914 8.53302 21.2619 8.55843 21.2311C9.71805 19.5712 10.8979 17.9249 12.0303 16.2467C13.0917 14.6739 14.0364 13.0317 14.6856 11.2377C15.2265 9.74305 15.4738 8.22472 15.1196 6.63894C14.2022 2.53172 9.61293 0.217408 5.76953 1.93623C2.68945 3.31368 1.10195 6.54171 1.87151 9.84567C2.20665 11.2845 2.80515 12.615 3.51139 13.9022C4.56035 15.8141 5.82287 17.587 7.08316 19.361C7.5421 20.007 8.00233 20.6522 8.47743 21.3194Z" fill="white"/>
<path d="M8.48965 4.08596C9.29824 4.08697 10.0884 4.32769 10.76 4.77764C11.4316 5.22759 11.9544 5.86653 12.2624 6.61359C12.5704 7.36064 12.6496 8.1822 12.49 8.97426C12.3305 9.76632 11.9393 10.4933 11.366 11.0631C10.7927 11.6328 10.0631 12.0199 9.2696 12.1751C8.47607 12.3303 7.65429 12.2468 6.90829 11.9351C6.16229 11.6234 5.52562 11.0976 5.07888 10.4241C4.63215 9.75069 4.39543 8.95994 4.39872 8.152C4.39977 7.61651 4.50646 7.08649 4.71269 6.59224C4.91892 6.09799 5.22064 5.64921 5.60059 5.27157C5.98054 4.89393 6.43127 4.59484 6.927 4.3914C7.42273 4.18797 7.95374 4.08417 8.48965 4.08596ZM5.75969 8.15211C5.75081 9.63289 6.97384 10.8749 8.45693 10.8912C9.94655 10.9075 11.2 9.67494 11.2094 8.1844C11.2189 6.69499 9.98087 5.44852 8.48933 5.44568C7.00754 5.44285 5.76857 6.67128 5.75969 8.15211Z" fill="white"/>
</svg>
