<svg width="520" height="493" viewBox="0 0 520 493" fill="none" xmlns="http://www.w3.org/2000/svg">
<g filter="url(#filter0_d_2210_2157)">
<rect x="17.1526" y="1.07895" width="26.3747" height="26.3747" stroke="#005AD0" stroke-width="2"/>
<rect x="17.1526" y="27.4536" width="26.3747" height="26.3747" stroke="#005AD0" stroke-width="2"/>
<rect x="17.1526" y="53.8282" width="26.3747" height="26.3747" stroke="#005AD0" stroke-width="2"/>
<rect x="17.1526" y="80.2029" width="26.3747" height="26.3747" stroke="#005AD0" stroke-width="2"/>
<rect x="17.1526" y="106.578" width="26.3747" height="26.3747" stroke="#005AD0" stroke-width="2"/>
<rect x="17.1526" y="132.952" width="26.3747" height="26.3747" stroke="#005AD0" stroke-width="2"/>
<rect x="17.1526" y="159.327" width="26.3747" height="26.3747" stroke="#005AD0" stroke-width="2"/>
<rect x="17.1526" y="185.702" width="26.3747" height="26.3747" stroke="#005AD0" stroke-width="2"/>
<rect x="17.1526" y="212.076" width="26.3747" height="26.3747" stroke="#005AD0" stroke-width="2"/>
<rect x="17.1526" y="238.451" width="26.3747" height="26.3747" stroke="#005AD0" stroke-width="2"/>
<rect x="17.1526" y="264.826" width="26.3747" height="26.3747" stroke="#005AD0" stroke-width="2"/>
<rect x="17.1526" y="291.2" width="26.3747" height="26.3747" stroke="#005AD0" stroke-width="2"/>
<rect x="17.1526" y="317.575" width="26.3747" height="26.3747" stroke="#005AD0" stroke-width="2"/>
<rect x="17.1526" y="343.95" width="26.3747" height="26.3747" stroke="#005AD0" stroke-width="2"/>
<rect x="17.1526" y="370.324" width="26.3747" height="26.3747" stroke="#005AD0" stroke-width="2"/>
<rect x="17.1526" y="396.699" width="26.3747" height="26.3747" stroke="#005AD0" stroke-width="2"/>
<rect x="17.1526" y="423.073" width="26.3747" height="26.3747" stroke="#005AD0" stroke-width="2"/>
<rect x="17.1526" y="449.448" width="26.3747" height="26.3747" stroke="#005AD0" stroke-width="2"/>
<rect x="43.5273" y="1.07895" width="26.3747" height="26.3747" stroke="#005AD0" stroke-width="2"/>
<rect x="43.5273" y="27.4536" width="26.3747" height="26.3747" stroke="#005AD0" stroke-width="2"/>
<rect x="43.5273" y="53.8282" width="26.3747" height="26.3747" stroke="#005AD0" stroke-width="2"/>
<rect x="43.5273" y="80.2029" width="26.3747" height="26.3747" stroke="#005AD0" stroke-width="2"/>
<rect x="43.5273" y="106.578" width="26.3747" height="26.3747" stroke="#005AD0" stroke-width="2"/>
<rect x="43.5273" y="132.952" width="26.3747" height="26.3747" stroke="#005AD0" stroke-width="2"/>
<rect x="43.5273" y="159.327" width="26.3747" height="26.3747" stroke="#005AD0" stroke-width="2"/>
<rect x="43.5273" y="185.702" width="26.3747" height="26.3747" stroke="#005AD0" stroke-width="2"/>
<rect x="43.5273" y="212.076" width="26.3747" height="26.3747" stroke="#005AD0" stroke-width="2"/>
<rect x="43.5273" y="238.451" width="26.3747" height="26.3747" stroke="#005AD0" stroke-width="2"/>
<rect x="43.5273" y="264.826" width="26.3747" height="26.3747" stroke="#005AD0" stroke-width="2"/>
<rect x="43.5273" y="291.2" width="26.3747" height="26.3747" stroke="#005AD0" stroke-width="2"/>
<rect x="43.5273" y="317.575" width="26.3747" height="26.3747" stroke="#005AD0" stroke-width="2"/>
<rect x="43.5273" y="343.95" width="26.3747" height="26.3747" stroke="#005AD0" stroke-width="2"/>
<rect x="43.5273" y="370.324" width="26.3747" height="26.3747" stroke="#005AD0" stroke-width="2"/>
<rect x="43.5273" y="396.699" width="26.3747" height="26.3747" stroke="#005AD0" stroke-width="2"/>
<rect x="43.5273" y="423.073" width="26.3747" height="26.3747" stroke="#005AD0" stroke-width="2"/>
<rect x="43.5273" y="449.448" width="26.3747" height="26.3747" stroke="#005AD0" stroke-width="2"/>
<rect x="69.9019" y="1.07895" width="26.3747" height="26.3747" stroke="#005AD0" stroke-width="2"/>
<rect x="69.9019" y="27.4536" width="26.3747" height="26.3747" stroke="#005AD0" stroke-width="2"/>
<rect x="69.9019" y="53.8282" width="26.3747" height="26.3747" stroke="#005AD0" stroke-width="2"/>
<rect x="69.9019" y="80.2029" width="26.3747" height="26.3747" stroke="#005AD0" stroke-width="2"/>
<rect x="69.9019" y="106.578" width="26.3747" height="26.3747" stroke="#005AD0" stroke-width="2"/>
<rect x="69.9019" y="132.952" width="26.3747" height="26.3747" stroke="#005AD0" stroke-width="2"/>
<rect x="69.9019" y="159.327" width="26.3747" height="26.3747" stroke="#005AD0" stroke-width="2"/>
<rect x="69.9019" y="185.702" width="26.3747" height="26.3747" stroke="#005AD0" stroke-width="2"/>
<rect x="69.9019" y="212.076" width="26.3747" height="26.3747" stroke="#005AD0" stroke-width="2"/>
<rect x="69.9019" y="238.451" width="26.3747" height="26.3747" stroke="#005AD0" stroke-width="2"/>
<rect x="69.9019" y="264.826" width="26.3747" height="26.3747" stroke="#005AD0" stroke-width="2"/>
<rect x="69.9019" y="291.2" width="26.3747" height="26.3747" stroke="#005AD0" stroke-width="2"/>
<rect x="69.9019" y="317.575" width="26.3747" height="26.3747" stroke="#005AD0" stroke-width="2"/>
<rect x="69.9019" y="343.95" width="26.3747" height="26.3747" stroke="#005AD0" stroke-width="2"/>
<rect x="69.9019" y="370.324" width="26.3747" height="26.3747" stroke="#005AD0" stroke-width="2"/>
<rect x="69.9019" y="396.699" width="26.3747" height="26.3747" stroke="#005AD0" stroke-width="2"/>
<rect x="69.9019" y="423.073" width="26.3747" height="26.3747" stroke="#005AD0" stroke-width="2"/>
<rect x="69.9019" y="449.448" width="26.3747" height="26.3747" stroke="#005AD0" stroke-width="2"/>
<rect x="96.2766" y="1.07895" width="26.3747" height="26.3747" stroke="#005AD0" stroke-width="2"/>
<rect x="96.2766" y="27.4536" width="26.3747" height="26.3747" stroke="#005AD0" stroke-width="2"/>
<rect x="96.2766" y="53.8282" width="26.3747" height="26.3747" stroke="#005AD0" stroke-width="2"/>
<rect x="96.2766" y="80.2029" width="26.3747" height="26.3747" stroke="#005AD0" stroke-width="2"/>
<rect x="96.2766" y="106.578" width="26.3747" height="26.3747" stroke="#005AD0" stroke-width="2"/>
<rect x="96.2766" y="132.952" width="26.3747" height="26.3747" stroke="#005AD0" stroke-width="2"/>
<rect x="96.2766" y="159.327" width="26.3747" height="26.3747" stroke="#005AD0" stroke-width="2"/>
<rect x="96.2766" y="185.702" width="26.3747" height="26.3747" stroke="#005AD0" stroke-width="2"/>
<rect x="96.2766" y="212.076" width="26.3747" height="26.3747" stroke="#005AD0" stroke-width="2"/>
<rect x="96.2766" y="238.451" width="26.3747" height="26.3747" stroke="#005AD0" stroke-width="2"/>
<rect x="96.2766" y="264.826" width="26.3747" height="26.3747" stroke="#005AD0" stroke-width="2"/>
<rect x="96.2766" y="291.2" width="26.3747" height="26.3747" stroke="#005AD0" stroke-width="2"/>
<rect x="96.2766" y="317.575" width="26.3747" height="26.3747" stroke="#005AD0" stroke-width="2"/>
<rect x="96.2766" y="343.95" width="26.3747" height="26.3747" stroke="#005AD0" stroke-width="2"/>
<rect x="96.2766" y="370.324" width="26.3747" height="26.3747" stroke="#005AD0" stroke-width="2"/>
<rect x="96.2766" y="396.699" width="26.3747" height="26.3747" stroke="#005AD0" stroke-width="2"/>
<rect x="96.2766" y="423.073" width="26.3747" height="26.3747" stroke="#005AD0" stroke-width="2"/>
<rect x="96.2766" y="449.448" width="26.3747" height="26.3747" stroke="#005AD0" stroke-width="2"/>
<rect x="122.651" y="1.07895" width="26.3747" height="26.3747" stroke="#005AD0" stroke-width="2"/>
<rect x="122.651" y="27.4536" width="26.3747" height="26.3747" stroke="#005AD0" stroke-width="2"/>
<rect x="122.651" y="53.8282" width="26.3747" height="26.3747" stroke="#005AD0" stroke-width="2"/>
<rect x="122.651" y="80.2029" width="26.3747" height="26.3747" stroke="#005AD0" stroke-width="2"/>
<rect x="122.651" y="106.578" width="26.3747" height="26.3747" stroke="#005AD0" stroke-width="2"/>
<rect x="122.651" y="132.952" width="26.3747" height="26.3747" stroke="#005AD0" stroke-width="2"/>
<rect x="122.651" y="159.327" width="26.3747" height="26.3747" stroke="#005AD0" stroke-width="2"/>
<rect x="122.651" y="185.702" width="26.3747" height="26.3747" stroke="#005AD0" stroke-width="2"/>
<rect x="122.651" y="212.076" width="26.3747" height="26.3747" stroke="#005AD0" stroke-width="2"/>
<rect x="122.651" y="238.451" width="26.3747" height="26.3747" stroke="#005AD0" stroke-width="2"/>
<rect x="122.651" y="264.826" width="26.3747" height="26.3747" stroke="#005AD0" stroke-width="2"/>
<rect x="122.651" y="291.2" width="26.3747" height="26.3747" stroke="#005AD0" stroke-width="2"/>
<rect x="122.651" y="317.575" width="26.3747" height="26.3747" stroke="#005AD0" stroke-width="2"/>
<rect x="122.651" y="343.95" width="26.3747" height="26.3747" stroke="#005AD0" stroke-width="2"/>
<rect x="122.651" y="370.324" width="26.3747" height="26.3747" stroke="#005AD0" stroke-width="2"/>
<rect x="122.651" y="396.699" width="26.3747" height="26.3747" stroke="#005AD0" stroke-width="2"/>
<rect x="122.651" y="423.073" width="26.3747" height="26.3747" stroke="#005AD0" stroke-width="2"/>
<rect x="122.651" y="449.448" width="26.3747" height="26.3747" stroke="#005AD0" stroke-width="2"/>
<rect x="149.026" y="1.07895" width="26.3747" height="26.3747" stroke="#005AD0" stroke-width="2"/>
<rect x="149.026" y="27.4536" width="26.3747" height="26.3747" stroke="#005AD0" stroke-width="2"/>
<rect x="149.026" y="53.8282" width="26.3747" height="26.3747" stroke="#005AD0" stroke-width="2"/>
<rect x="149.026" y="80.2029" width="26.3747" height="26.3747" stroke="#005AD0" stroke-width="2"/>
<rect x="149.026" y="106.578" width="26.3747" height="26.3747" stroke="#005AD0" stroke-width="2"/>
<rect x="149.026" y="132.952" width="26.3747" height="26.3747" stroke="#005AD0" stroke-width="2"/>
<rect x="149.026" y="159.327" width="26.3747" height="26.3747" stroke="#005AD0" stroke-width="2"/>
<rect x="149.026" y="185.702" width="26.3747" height="26.3747" stroke="#005AD0" stroke-width="2"/>
<rect x="149.026" y="212.076" width="26.3747" height="26.3747" stroke="#005AD0" stroke-width="2"/>
<rect x="149.026" y="238.451" width="26.3747" height="26.3747" stroke="#005AD0" stroke-width="2"/>
<rect x="149.026" y="264.826" width="26.3747" height="26.3747" stroke="#005AD0" stroke-width="2"/>
<rect x="149.026" y="291.2" width="26.3747" height="26.3747" stroke="#005AD0" stroke-width="2"/>
<rect x="149.026" y="317.575" width="26.3747" height="26.3747" stroke="#005AD0" stroke-width="2"/>
<rect x="149.026" y="343.95" width="26.3747" height="26.3747" stroke="#005AD0" stroke-width="2"/>
<rect x="149.026" y="370.324" width="26.3747" height="26.3747" stroke="#005AD0" stroke-width="2"/>
<rect x="149.026" y="396.699" width="26.3747" height="26.3747" stroke="#005AD0" stroke-width="2"/>
<rect x="149.026" y="423.073" width="26.3747" height="26.3747" stroke="#005AD0" stroke-width="2"/>
<rect x="149.026" y="449.448" width="26.3747" height="26.3747" stroke="#005AD0" stroke-width="2"/>
<rect x="175.401" y="1.07895" width="26.3747" height="26.3747" stroke="#005AD0" stroke-width="2"/>
<rect x="175.401" y="27.4536" width="26.3747" height="26.3747" stroke="#005AD0" stroke-width="2"/>
<rect x="175.401" y="53.8282" width="26.3747" height="26.3747" stroke="#005AD0" stroke-width="2"/>
<rect x="175.401" y="80.2029" width="26.3747" height="26.3747" stroke="#005AD0" stroke-width="2"/>
<rect x="175.401" y="106.578" width="26.3747" height="26.3747" stroke="#005AD0" stroke-width="2"/>
<rect x="175.401" y="132.952" width="26.3747" height="26.3747" stroke="#005AD0" stroke-width="2"/>
<rect x="175.401" y="159.327" width="26.3747" height="26.3747" stroke="#005AD0" stroke-width="2"/>
<rect x="175.401" y="185.702" width="26.3747" height="26.3747" stroke="#005AD0" stroke-width="2"/>
<rect x="175.401" y="212.076" width="26.3747" height="26.3747" stroke="#005AD0" stroke-width="2"/>
<rect x="175.401" y="238.451" width="26.3747" height="26.3747" stroke="#005AD0" stroke-width="2"/>
<rect x="175.401" y="264.826" width="26.3747" height="26.3747" stroke="#005AD0" stroke-width="2"/>
<rect x="175.401" y="291.2" width="26.3747" height="26.3747" stroke="#005AD0" stroke-width="2"/>
<rect x="175.401" y="317.575" width="26.3747" height="26.3747" stroke="#005AD0" stroke-width="2"/>
<rect x="175.401" y="343.95" width="26.3747" height="26.3747" stroke="#005AD0" stroke-width="2"/>
<rect x="175.401" y="370.324" width="26.3747" height="26.3747" stroke="#005AD0" stroke-width="2"/>
<rect x="175.401" y="396.699" width="26.3747" height="26.3747" stroke="#005AD0" stroke-width="2"/>
<rect x="175.401" y="423.073" width="26.3747" height="26.3747" stroke="#005AD0" stroke-width="2"/>
<rect x="175.401" y="449.448" width="26.3747" height="26.3747" stroke="#005AD0" stroke-width="2"/>
<rect x="201.775" y="1.07895" width="26.3747" height="26.3747" stroke="#005AD0" stroke-width="2"/>
<rect x="201.775" y="27.4536" width="26.3747" height="26.3747" stroke="#005AD0" stroke-width="2"/>
<rect x="201.775" y="53.8282" width="26.3747" height="26.3747" stroke="#005AD0" stroke-width="2"/>
<rect x="201.775" y="80.2029" width="26.3747" height="26.3747" stroke="#005AD0" stroke-width="2"/>
<rect x="201.775" y="106.578" width="26.3747" height="26.3747" stroke="#005AD0" stroke-width="2"/>
<rect x="201.775" y="132.952" width="26.3747" height="26.3747" stroke="#005AD0" stroke-width="2"/>
<rect x="201.775" y="159.327" width="26.3747" height="26.3747" stroke="#005AD0" stroke-width="2"/>
<rect x="201.775" y="185.702" width="26.3747" height="26.3747" stroke="#005AD0" stroke-width="2"/>
<rect x="201.775" y="212.076" width="26.3747" height="26.3747" stroke="#005AD0" stroke-width="2"/>
<rect x="201.775" y="238.451" width="26.3747" height="26.3747" stroke="#005AD0" stroke-width="2"/>
<rect x="201.775" y="264.826" width="26.3747" height="26.3747" stroke="#005AD0" stroke-width="2"/>
<rect x="201.775" y="291.2" width="26.3747" height="26.3747" stroke="#005AD0" stroke-width="2"/>
<rect x="201.775" y="317.575" width="26.3747" height="26.3747" stroke="#005AD0" stroke-width="2"/>
<rect x="201.775" y="343.95" width="26.3747" height="26.3747" stroke="#005AD0" stroke-width="2"/>
<rect x="201.775" y="370.324" width="26.3747" height="26.3747" stroke="#005AD0" stroke-width="2"/>
<rect x="201.775" y="396.699" width="26.3747" height="26.3747" stroke="#005AD0" stroke-width="2"/>
<rect x="201.775" y="423.073" width="26.3747" height="26.3747" stroke="#005AD0" stroke-width="2"/>
<rect x="201.775" y="449.448" width="26.3747" height="26.3747" stroke="#005AD0" stroke-width="2"/>
<rect x="228.15" y="1.07895" width="26.3747" height="26.3747" stroke="#005AD0" stroke-width="2"/>
<rect x="228.15" y="27.4536" width="26.3747" height="26.3747" stroke="#005AD0" stroke-width="2"/>
<rect x="228.15" y="53.8282" width="26.3747" height="26.3747" stroke="#005AD0" stroke-width="2"/>
<rect x="228.15" y="80.2029" width="26.3747" height="26.3747" stroke="#005AD0" stroke-width="2"/>
<rect x="228.15" y="106.578" width="26.3747" height="26.3747" stroke="#005AD0" stroke-width="2"/>
<rect x="228.15" y="132.952" width="26.3747" height="26.3747" stroke="#005AD0" stroke-width="2"/>
<rect x="228.15" y="159.327" width="26.3747" height="26.3747" stroke="#005AD0" stroke-width="2"/>
<rect x="228.15" y="185.702" width="26.3747" height="26.3747" stroke="#005AD0" stroke-width="2"/>
<rect x="228.15" y="212.076" width="26.3747" height="26.3747" stroke="#005AD0" stroke-width="2"/>
<rect x="228.15" y="238.451" width="26.3747" height="26.3747" stroke="#005AD0" stroke-width="2"/>
<rect x="228.15" y="264.826" width="26.3747" height="26.3747" stroke="#005AD0" stroke-width="2"/>
<rect x="228.15" y="291.2" width="26.3747" height="26.3747" stroke="#005AD0" stroke-width="2"/>
<rect x="228.15" y="317.575" width="26.3747" height="26.3747" stroke="#005AD0" stroke-width="2"/>
<rect x="228.15" y="343.95" width="26.3747" height="26.3747" stroke="#005AD0" stroke-width="2"/>
<rect x="228.15" y="370.324" width="26.3747" height="26.3747" stroke="#005AD0" stroke-width="2"/>
<rect x="228.15" y="396.699" width="26.3747" height="26.3747" stroke="#005AD0" stroke-width="2"/>
<rect x="228.15" y="423.073" width="26.3747" height="26.3747" stroke="#005AD0" stroke-width="2"/>
<rect x="228.15" y="449.448" width="26.3747" height="26.3747" stroke="#005AD0" stroke-width="2"/>
<rect x="254.525" y="1.07895" width="26.3747" height="26.3747" stroke="#005AD0" stroke-width="2"/>
<rect x="254.525" y="27.4536" width="26.3747" height="26.3747" stroke="#005AD0" stroke-width="2"/>
<rect x="254.525" y="53.8282" width="26.3747" height="26.3747" stroke="#005AD0" stroke-width="2"/>
<rect x="254.525" y="80.2029" width="26.3747" height="26.3747" stroke="#005AD0" stroke-width="2"/>
<rect x="254.525" y="106.578" width="26.3747" height="26.3747" stroke="#005AD0" stroke-width="2"/>
<rect x="254.525" y="132.952" width="26.3747" height="26.3747" stroke="#005AD0" stroke-width="2"/>
<rect x="254.525" y="159.327" width="26.3747" height="26.3747" stroke="#005AD0" stroke-width="2"/>
<rect x="254.525" y="185.702" width="26.3747" height="26.3747" stroke="#005AD0" stroke-width="2"/>
<rect x="254.525" y="212.076" width="26.3747" height="26.3747" stroke="#005AD0" stroke-width="2"/>
<rect x="254.525" y="238.451" width="26.3747" height="26.3747" stroke="#005AD0" stroke-width="2"/>
<rect x="254.525" y="264.826" width="26.3747" height="26.3747" stroke="#005AD0" stroke-width="2"/>
<rect x="254.525" y="291.2" width="26.3747" height="26.3747" stroke="#005AD0" stroke-width="2"/>
<rect x="254.525" y="317.575" width="26.3747" height="26.3747" stroke="#005AD0" stroke-width="2"/>
<rect x="254.525" y="343.95" width="26.3747" height="26.3747" stroke="#005AD0" stroke-width="2"/>
<rect x="254.525" y="370.324" width="26.3747" height="26.3747" stroke="#005AD0" stroke-width="2"/>
<rect x="254.525" y="396.699" width="26.3747" height="26.3747" stroke="#005AD0" stroke-width="2"/>
<rect x="254.525" y="423.073" width="26.3747" height="26.3747" stroke="#005AD0" stroke-width="2"/>
<rect x="254.525" y="449.448" width="26.3747" height="26.3747" stroke="#005AD0" stroke-width="2"/>
<rect x="280.899" y="1.07895" width="26.3747" height="26.3747" stroke="#005AD0" stroke-width="2"/>
<rect x="280.899" y="27.4536" width="26.3747" height="26.3747" stroke="#005AD0" stroke-width="2"/>
<rect x="280.899" y="53.8282" width="26.3747" height="26.3747" stroke="#005AD0" stroke-width="2"/>
<rect x="280.899" y="80.2029" width="26.3747" height="26.3747" stroke="#005AD0" stroke-width="2"/>
<rect x="280.899" y="106.578" width="26.3747" height="26.3747" stroke="#005AD0" stroke-width="2"/>
<rect x="280.899" y="132.952" width="26.3747" height="26.3747" stroke="#005AD0" stroke-width="2"/>
<rect x="280.899" y="159.327" width="26.3747" height="26.3747" stroke="#005AD0" stroke-width="2"/>
<rect x="280.899" y="185.702" width="26.3747" height="26.3747" stroke="#005AD0" stroke-width="2"/>
<rect x="280.899" y="212.076" width="26.3747" height="26.3747" stroke="#005AD0" stroke-width="2"/>
<rect x="280.899" y="238.451" width="26.3747" height="26.3747" stroke="#005AD0" stroke-width="2"/>
<rect x="280.899" y="264.826" width="26.3747" height="26.3747" stroke="#005AD0" stroke-width="2"/>
<rect x="280.899" y="291.2" width="26.3747" height="26.3747" stroke="#005AD0" stroke-width="2"/>
<rect x="280.899" y="317.575" width="26.3747" height="26.3747" stroke="#005AD0" stroke-width="2"/>
<rect x="280.899" y="343.95" width="26.3747" height="26.3747" stroke="#005AD0" stroke-width="2"/>
<rect x="280.899" y="370.324" width="26.3747" height="26.3747" stroke="#005AD0" stroke-width="2"/>
<rect x="280.899" y="396.699" width="26.3747" height="26.3747" stroke="#005AD0" stroke-width="2"/>
<rect x="280.899" y="423.073" width="26.3747" height="26.3747" stroke="#005AD0" stroke-width="2"/>
<rect x="280.899" y="449.448" width="26.3747" height="26.3747" stroke="#005AD0" stroke-width="2"/>
<rect x="307.274" y="1.07895" width="26.3747" height="26.3747" stroke="#005AD0" stroke-width="2"/>
<rect x="307.274" y="27.4536" width="26.3747" height="26.3747" stroke="#005AD0" stroke-width="2"/>
<rect x="307.274" y="53.8282" width="26.3747" height="26.3747" stroke="#005AD0" stroke-width="2"/>
<rect x="307.274" y="80.2029" width="26.3747" height="26.3747" stroke="#005AD0" stroke-width="2"/>
<rect x="307.274" y="106.578" width="26.3747" height="26.3747" stroke="#005AD0" stroke-width="2"/>
<rect x="307.274" y="132.952" width="26.3747" height="26.3747" stroke="#005AD0" stroke-width="2"/>
<rect x="307.274" y="159.327" width="26.3747" height="26.3747" stroke="#005AD0" stroke-width="2"/>
<rect x="307.274" y="185.702" width="26.3747" height="26.3747" stroke="#005AD0" stroke-width="2"/>
<rect x="307.274" y="212.076" width="26.3747" height="26.3747" stroke="#005AD0" stroke-width="2"/>
<rect x="307.274" y="238.451" width="26.3747" height="26.3747" stroke="#005AD0" stroke-width="2"/>
<rect x="307.274" y="264.826" width="26.3747" height="26.3747" stroke="#005AD0" stroke-width="2"/>
<rect x="307.274" y="291.2" width="26.3747" height="26.3747" stroke="#005AD0" stroke-width="2"/>
<rect x="307.274" y="317.575" width="26.3747" height="26.3747" stroke="#005AD0" stroke-width="2"/>
<rect x="307.274" y="343.95" width="26.3747" height="26.3747" stroke="#005AD0" stroke-width="2"/>
<rect x="307.274" y="370.324" width="26.3747" height="26.3747" stroke="#005AD0" stroke-width="2"/>
<rect x="307.274" y="396.699" width="26.3747" height="26.3747" stroke="#005AD0" stroke-width="2"/>
<rect x="307.274" y="423.073" width="26.3747" height="26.3747" stroke="#005AD0" stroke-width="2"/>
<rect x="307.274" y="449.448" width="26.3747" height="26.3747" stroke="#005AD0" stroke-width="2"/>
<rect x="333.648" y="1.07895" width="26.3747" height="26.3747" stroke="#005AD0" stroke-width="2"/>
<rect x="333.648" y="27.4536" width="26.3747" height="26.3747" stroke="#005AD0" stroke-width="2"/>
<rect x="333.648" y="53.8282" width="26.3747" height="26.3747" stroke="#005AD0" stroke-width="2"/>
<rect x="333.648" y="80.2029" width="26.3747" height="26.3747" stroke="#005AD0" stroke-width="2"/>
<rect x="333.648" y="106.578" width="26.3747" height="26.3747" stroke="#005AD0" stroke-width="2"/>
<rect x="333.648" y="132.952" width="26.3747" height="26.3747" stroke="#005AD0" stroke-width="2"/>
<rect x="333.648" y="159.327" width="26.3747" height="26.3747" stroke="#005AD0" stroke-width="2"/>
<rect x="333.648" y="185.702" width="26.3747" height="26.3747" stroke="#005AD0" stroke-width="2"/>
<rect x="333.648" y="212.076" width="26.3747" height="26.3747" stroke="#005AD0" stroke-width="2"/>
<rect x="333.648" y="238.451" width="26.3747" height="26.3747" stroke="#005AD0" stroke-width="2"/>
<rect x="333.648" y="264.826" width="26.3747" height="26.3747" stroke="#005AD0" stroke-width="2"/>
<rect x="333.648" y="291.2" width="26.3747" height="26.3747" stroke="#005AD0" stroke-width="2"/>
<rect x="333.648" y="317.575" width="26.3747" height="26.3747" stroke="#005AD0" stroke-width="2"/>
<rect x="333.648" y="343.95" width="26.3747" height="26.3747" stroke="#005AD0" stroke-width="2"/>
<rect x="333.648" y="370.324" width="26.3747" height="26.3747" stroke="#005AD0" stroke-width="2"/>
<rect x="333.648" y="396.699" width="26.3747" height="26.3747" stroke="#005AD0" stroke-width="2"/>
<rect x="333.648" y="423.073" width="26.3747" height="26.3747" stroke="#005AD0" stroke-width="2"/>
<rect x="333.648" y="449.448" width="26.3747" height="26.3747" stroke="#005AD0" stroke-width="2"/>
<rect x="360.023" y="1.07895" width="26.3747" height="26.3747" stroke="#005AD0" stroke-width="2"/>
<rect x="360.023" y="27.4536" width="26.3747" height="26.3747" stroke="#005AD0" stroke-width="2"/>
<rect x="360.023" y="53.8282" width="26.3747" height="26.3747" stroke="#005AD0" stroke-width="2"/>
<rect x="360.023" y="80.2029" width="26.3747" height="26.3747" stroke="#005AD0" stroke-width="2"/>
<rect x="360.023" y="106.578" width="26.3747" height="26.3747" stroke="#005AD0" stroke-width="2"/>
<rect x="360.023" y="132.952" width="26.3747" height="26.3747" stroke="#005AD0" stroke-width="2"/>
<rect x="360.023" y="159.327" width="26.3747" height="26.3747" stroke="#005AD0" stroke-width="2"/>
<rect x="360.023" y="185.702" width="26.3747" height="26.3747" stroke="#005AD0" stroke-width="2"/>
<rect x="360.023" y="212.076" width="26.3747" height="26.3747" stroke="#005AD0" stroke-width="2"/>
<rect x="360.023" y="238.451" width="26.3747" height="26.3747" stroke="#005AD0" stroke-width="2"/>
<rect x="360.023" y="264.826" width="26.3747" height="26.3747" stroke="#005AD0" stroke-width="2"/>
<rect x="360.023" y="291.2" width="26.3747" height="26.3747" stroke="#005AD0" stroke-width="2"/>
<rect x="360.023" y="317.575" width="26.3747" height="26.3747" stroke="#005AD0" stroke-width="2"/>
<rect x="360.023" y="343.95" width="26.3747" height="26.3747" stroke="#005AD0" stroke-width="2"/>
<rect x="360.023" y="370.324" width="26.3747" height="26.3747" stroke="#005AD0" stroke-width="2"/>
<rect x="360.023" y="396.699" width="26.3747" height="26.3747" stroke="#005AD0" stroke-width="2"/>
<rect x="360.023" y="423.073" width="26.3747" height="26.3747" stroke="#005AD0" stroke-width="2"/>
<rect x="360.023" y="449.448" width="26.3747" height="26.3747" stroke="#005AD0" stroke-width="2"/>
<rect x="386.398" y="1.07895" width="26.3747" height="26.3747" stroke="#005AD0" stroke-width="2"/>
<rect x="386.398" y="27.4536" width="26.3747" height="26.3747" stroke="#005AD0" stroke-width="2"/>
<rect x="386.398" y="53.8282" width="26.3747" height="26.3747" stroke="#005AD0" stroke-width="2"/>
<rect x="386.398" y="80.2029" width="26.3747" height="26.3747" stroke="#005AD0" stroke-width="2"/>
<rect x="386.398" y="106.578" width="26.3747" height="26.3747" stroke="#005AD0" stroke-width="2"/>
<rect x="386.398" y="132.952" width="26.3747" height="26.3747" stroke="#005AD0" stroke-width="2"/>
<rect x="386.398" y="159.327" width="26.3747" height="26.3747" stroke="#005AD0" stroke-width="2"/>
<rect x="386.398" y="185.702" width="26.3747" height="26.3747" stroke="#005AD0" stroke-width="2"/>
<rect x="386.398" y="212.076" width="26.3747" height="26.3747" stroke="#005AD0" stroke-width="2"/>
<rect x="386.398" y="238.451" width="26.3747" height="26.3747" stroke="#005AD0" stroke-width="2"/>
<rect x="386.398" y="264.826" width="26.3747" height="26.3747" stroke="#005AD0" stroke-width="2"/>
<rect x="386.398" y="291.2" width="26.3747" height="26.3747" stroke="#005AD0" stroke-width="2"/>
<rect x="386.398" y="317.575" width="26.3747" height="26.3747" stroke="#005AD0" stroke-width="2"/>
<rect x="386.398" y="343.95" width="26.3747" height="26.3747" stroke="#005AD0" stroke-width="2"/>
<rect x="386.398" y="370.324" width="26.3747" height="26.3747" stroke="#005AD0" stroke-width="2"/>
<rect x="386.398" y="396.699" width="26.3747" height="26.3747" stroke="#005AD0" stroke-width="2"/>
<rect x="386.398" y="423.073" width="26.3747" height="26.3747" stroke="#005AD0" stroke-width="2"/>
<rect x="386.398" y="449.448" width="26.3747" height="26.3747" stroke="#005AD0" stroke-width="2"/>
<rect x="412.773" y="1.07895" width="26.3747" height="26.3747" stroke="#005AD0" stroke-width="2"/>
<rect x="412.773" y="27.4536" width="26.3747" height="26.3747" stroke="#005AD0" stroke-width="2"/>
<rect x="412.773" y="53.8282" width="26.3747" height="26.3747" stroke="#005AD0" stroke-width="2"/>
<rect x="412.773" y="80.2029" width="26.3747" height="26.3747" stroke="#005AD0" stroke-width="2"/>
<rect x="412.773" y="106.578" width="26.3747" height="26.3747" stroke="#005AD0" stroke-width="2"/>
<rect x="412.773" y="132.952" width="26.3747" height="26.3747" stroke="#005AD0" stroke-width="2"/>
<rect x="412.773" y="159.327" width="26.3747" height="26.3747" stroke="#005AD0" stroke-width="2"/>
<rect x="412.773" y="185.702" width="26.3747" height="26.3747" stroke="#005AD0" stroke-width="2"/>
<rect x="412.773" y="212.076" width="26.3747" height="26.3747" stroke="#005AD0" stroke-width="2"/>
<rect x="412.773" y="238.451" width="26.3747" height="26.3747" stroke="#005AD0" stroke-width="2"/>
<rect x="412.773" y="264.826" width="26.3747" height="26.3747" stroke="#005AD0" stroke-width="2"/>
<rect x="412.773" y="291.2" width="26.3747" height="26.3747" stroke="#005AD0" stroke-width="2"/>
<rect x="412.773" y="317.575" width="26.3747" height="26.3747" stroke="#005AD0" stroke-width="2"/>
<rect x="412.773" y="343.95" width="26.3747" height="26.3747" stroke="#005AD0" stroke-width="2"/>
<rect x="412.773" y="370.324" width="26.3747" height="26.3747" stroke="#005AD0" stroke-width="2"/>
<rect x="412.773" y="396.699" width="26.3747" height="26.3747" stroke="#005AD0" stroke-width="2"/>
<rect x="412.773" y="423.073" width="26.3747" height="26.3747" stroke="#005AD0" stroke-width="2"/>
<rect x="412.773" y="449.448" width="26.3747" height="26.3747" stroke="#005AD0" stroke-width="2"/>
<rect x="439.147" y="1.07895" width="26.3747" height="26.3747" stroke="#005AD0" stroke-width="2"/>
<rect x="439.147" y="27.4536" width="26.3747" height="26.3747" stroke="#005AD0" stroke-width="2"/>
<rect x="439.147" y="53.8282" width="26.3747" height="26.3747" stroke="#005AD0" stroke-width="2"/>
<rect x="439.147" y="80.2029" width="26.3747" height="26.3747" stroke="#005AD0" stroke-width="2"/>
<rect x="439.147" y="106.578" width="26.3747" height="26.3747" stroke="#005AD0" stroke-width="2"/>
<rect x="439.147" y="132.952" width="26.3747" height="26.3747" stroke="#005AD0" stroke-width="2"/>
<rect x="439.147" y="159.327" width="26.3747" height="26.3747" stroke="#005AD0" stroke-width="2"/>
<rect x="439.147" y="185.702" width="26.3747" height="26.3747" stroke="#005AD0" stroke-width="2"/>
<rect x="439.147" y="212.076" width="26.3747" height="26.3747" stroke="#005AD0" stroke-width="2"/>
<rect x="439.147" y="238.451" width="26.3747" height="26.3747" stroke="#005AD0" stroke-width="2"/>
<rect x="439.147" y="264.826" width="26.3747" height="26.3747" stroke="#005AD0" stroke-width="2"/>
<rect x="439.147" y="291.2" width="26.3747" height="26.3747" stroke="#005AD0" stroke-width="2"/>
<rect x="439.147" y="317.575" width="26.3747" height="26.3747" stroke="#005AD0" stroke-width="2"/>
<rect x="439.147" y="343.95" width="26.3747" height="26.3747" stroke="#005AD0" stroke-width="2"/>
<rect x="439.147" y="370.324" width="26.3747" height="26.3747" stroke="#005AD0" stroke-width="2"/>
<rect x="439.147" y="396.699" width="26.3747" height="26.3747" stroke="#005AD0" stroke-width="2"/>
<rect x="439.147" y="423.073" width="26.3747" height="26.3747" stroke="#005AD0" stroke-width="2"/>
<rect x="439.147" y="449.448" width="26.3747" height="26.3747" stroke="#005AD0" stroke-width="2"/>
<rect x="465.522" y="1.07895" width="26.3747" height="26.3747" stroke="#005AD0" stroke-width="2"/>
<rect x="465.522" y="27.4536" width="26.3747" height="26.3747" stroke="#005AD0" stroke-width="2"/>
<rect x="465.522" y="53.8282" width="26.3747" height="26.3747" stroke="#005AD0" stroke-width="2"/>
<rect x="465.522" y="80.2029" width="26.3747" height="26.3747" stroke="#005AD0" stroke-width="2"/>
<rect x="465.522" y="106.578" width="26.3747" height="26.3747" stroke="#005AD0" stroke-width="2"/>
<rect x="465.522" y="132.952" width="26.3747" height="26.3747" stroke="#005AD0" stroke-width="2"/>
<rect x="465.522" y="159.327" width="26.3747" height="26.3747" stroke="#005AD0" stroke-width="2"/>
<rect x="465.522" y="185.702" width="26.3747" height="26.3747" stroke="#005AD0" stroke-width="2"/>
<rect x="465.522" y="212.076" width="26.3747" height="26.3747" stroke="#005AD0" stroke-width="2"/>
<rect x="465.522" y="238.451" width="26.3747" height="26.3747" stroke="#005AD0" stroke-width="2"/>
<rect x="465.522" y="264.826" width="26.3747" height="26.3747" stroke="#005AD0" stroke-width="2"/>
<rect x="465.522" y="291.2" width="26.3747" height="26.3747" stroke="#005AD0" stroke-width="2"/>
<rect x="465.522" y="317.575" width="26.3747" height="26.3747" stroke="#005AD0" stroke-width="2"/>
<rect x="465.522" y="343.95" width="26.3747" height="26.3747" stroke="#005AD0" stroke-width="2"/>
<rect x="465.522" y="370.324" width="26.3747" height="26.3747" stroke="#005AD0" stroke-width="2"/>
<rect x="465.522" y="396.699" width="26.3747" height="26.3747" stroke="#005AD0" stroke-width="2"/>
<rect x="465.522" y="423.073" width="26.3747" height="26.3747" stroke="#005AD0" stroke-width="2"/>
<rect x="465.522" y="449.448" width="26.3747" height="26.3747" stroke="#005AD0" stroke-width="2"/>
<rect x="491.896" y="1.07895" width="26.3747" height="26.3747" stroke="#005AD0" stroke-width="2"/>
<rect x="491.896" y="27.4536" width="26.3747" height="26.3747" stroke="#005AD0" stroke-width="2"/>
<rect x="491.896" y="53.8282" width="26.3747" height="26.3747" stroke="#005AD0" stroke-width="2"/>
<rect x="491.896" y="80.2029" width="26.3747" height="26.3747" stroke="#005AD0" stroke-width="2"/>
<rect x="491.896" y="106.578" width="26.3747" height="26.3747" stroke="#005AD0" stroke-width="2"/>
<rect x="491.896" y="132.952" width="26.3747" height="26.3747" stroke="#005AD0" stroke-width="2"/>
<rect x="491.896" y="159.327" width="26.3747" height="26.3747" stroke="#005AD0" stroke-width="2"/>
<rect x="491.896" y="185.702" width="26.3747" height="26.3747" stroke="#005AD0" stroke-width="2"/>
<rect x="491.896" y="212.076" width="26.3747" height="26.3747" stroke="#005AD0" stroke-width="2"/>
<rect x="491.896" y="238.451" width="26.3747" height="26.3747" stroke="#005AD0" stroke-width="2"/>
<rect x="491.896" y="264.826" width="26.3747" height="26.3747" stroke="#005AD0" stroke-width="2"/>
<rect x="491.896" y="291.2" width="26.3747" height="26.3747" stroke="#005AD0" stroke-width="2"/>
<rect x="491.896" y="317.575" width="26.3747" height="26.3747" stroke="#005AD0" stroke-width="2"/>
<rect x="491.896" y="343.95" width="26.3747" height="26.3747" stroke="#005AD0" stroke-width="2"/>
<rect x="491.896" y="370.324" width="26.3747" height="26.3747" stroke="#005AD0" stroke-width="2"/>
<rect x="491.896" y="396.699" width="26.3747" height="26.3747" stroke="#005AD0" stroke-width="2"/>
<rect x="491.896" y="423.073" width="26.3747" height="26.3747" stroke="#005AD0" stroke-width="2"/>
<rect x="491.896" y="449.448" width="26.3747" height="26.3747" stroke="#005AD0" stroke-width="2"/>
</g>
<defs>
<filter id="filter0_d_2210_2157" x="0.152588" y="0.078949" width="519.119" height="492.744" filterUnits="userSpaceOnUse" color-interpolation-filters="sRGB">
<feFlood flood-opacity="0" result="BackgroundImageFix"/>
<feColorMatrix in="SourceAlpha" type="matrix" values="0 0 0 0 0 0 0 0 0 0 0 0 0 0 0 0 0 0 127 0" result="hardAlpha"/>
<feOffset dx="-10" dy="10"/>
<feGaussianBlur stdDeviation="3"/>
<feComposite in2="hardAlpha" operator="out"/>
<feColorMatrix type="matrix" values="0 0 0 0 0 0 0 0 0 0 0 0 0 0 0 0 0 0 0.1 0"/>
<feBlend mode="normal" in2="BackgroundImageFix" result="effect1_dropShadow_2210_2157"/>
<feBlend mode="normal" in="SourceGraphic" in2="effect1_dropShadow_2210_2157" result="shape"/>
</filter>
</defs>
</svg>
