<svg width="292" height="580" viewBox="0 0 292 580" fill="none" xmlns="http://www.w3.org/2000/svg">
<rect x="1" y="1" width="28.9199" height="28.9199" stroke="#005AD0" stroke-width="2"/>
<rect x="29.9199" y="1" width="28.9199" height="28.9199" stroke="#005AD0" stroke-width="2"/>
<rect x="58.8398" y="1" width="28.9199" height="28.9199" stroke="#005AD0" stroke-width="2"/>
<rect x="87.7597" y="1" width="28.9199" height="28.9199" stroke="#005AD0" stroke-width="2"/>
<rect x="116.68" y="1" width="28.9199" height="28.9199" stroke="#005AD0" stroke-width="2"/>
<rect x="145.6" y="1" width="28.9199" height="28.9199" stroke="#005AD0" stroke-width="2"/>
<rect x="174.519" y="1" width="28.9199" height="28.9199" stroke="#005AD0" stroke-width="2"/>
<rect x="203.439" y="1" width="28.9199" height="28.9199" stroke="#005AD0" stroke-width="2"/>
<rect x="232.359" y="1" width="28.9199" height="28.9199" stroke="#005AD0" stroke-width="2"/>
<rect x="261.279" y="1" width="28.9199" height="28.9199" stroke="#005AD0" stroke-width="2"/>
<rect x="1" y="29.9199" width="28.9199" height="28.9199" stroke="#005AD0" stroke-width="2"/>
<rect x="29.9199" y="29.9199" width="28.9199" height="28.9199" stroke="#005AD0" stroke-width="2"/>
<rect x="58.8398" y="29.9199" width="28.9199" height="28.9199" stroke="#005AD0" stroke-width="2"/>
<rect x="87.7597" y="29.9199" width="28.9199" height="28.9199" stroke="#005AD0" stroke-width="2"/>
<rect x="116.68" y="29.9199" width="28.9199" height="28.9199" stroke="#005AD0" stroke-width="2"/>
<rect x="145.6" y="29.9199" width="28.9199" height="28.9199" stroke="#005AD0" stroke-width="2"/>
<rect x="174.519" y="29.9199" width="28.9199" height="28.9199" stroke="#005AD0" stroke-width="2"/>
<rect x="203.439" y="29.9199" width="28.9199" height="28.9199" stroke="#005AD0" stroke-width="2"/>
<rect x="232.359" y="29.9199" width="28.9199" height="28.9199" stroke="#005AD0" stroke-width="2"/>
<rect x="261.279" y="29.9199" width="28.9199" height="28.9199" stroke="#005AD0" stroke-width="2"/>
<rect x="1" y="58.8398" width="28.9199" height="28.9199" stroke="#005AD0" stroke-width="2"/>
<rect x="29.9199" y="58.8398" width="28.9199" height="28.9199" stroke="#005AD0" stroke-width="2"/>
<rect x="58.8398" y="58.8398" width="28.9199" height="28.9199" stroke="#005AD0" stroke-width="2"/>
<rect x="87.7597" y="58.8398" width="28.9199" height="28.9199" stroke="#005AD0" stroke-width="2"/>
<rect x="116.68" y="58.8398" width="28.9199" height="28.9199" stroke="#005AD0" stroke-width="2"/>
<rect x="145.6" y="58.8398" width="28.9199" height="28.9199" stroke="#005AD0" stroke-width="2"/>
<rect x="174.519" y="58.8398" width="28.9199" height="28.9199" stroke="#005AD0" stroke-width="2"/>
<rect x="203.439" y="58.8398" width="28.9199" height="28.9199" stroke="#005AD0" stroke-width="2"/>
<rect x="232.359" y="58.8398" width="28.9199" height="28.9199" stroke="#005AD0" stroke-width="2"/>
<rect x="261.279" y="58.8398" width="28.9199" height="28.9199" stroke="#005AD0" stroke-width="2"/>
<rect x="1" y="87.7598" width="28.9199" height="28.9199" stroke="#005AD0" stroke-width="2"/>
<rect x="29.9199" y="87.7598" width="28.9199" height="28.9199" stroke="#005AD0" stroke-width="2"/>
<rect x="58.8398" y="87.7598" width="28.9199" height="28.9199" stroke="#005AD0" stroke-width="2"/>
<rect x="87.7597" y="87.7598" width="28.9199" height="28.9199" stroke="#005AD0" stroke-width="2"/>
<rect x="116.68" y="87.7598" width="28.9199" height="28.9199" stroke="#005AD0" stroke-width="2"/>
<rect x="145.6" y="87.7598" width="28.9199" height="28.9199" stroke="#005AD0" stroke-width="2"/>
<rect x="174.519" y="87.7598" width="28.9199" height="28.9199" stroke="#005AD0" stroke-width="2"/>
<rect x="203.439" y="87.7598" width="28.9199" height="28.9199" stroke="#005AD0" stroke-width="2"/>
<rect x="232.359" y="87.7598" width="28.9199" height="28.9199" stroke="#005AD0" stroke-width="2"/>
<rect x="261.279" y="87.7598" width="28.9199" height="28.9199" stroke="#005AD0" stroke-width="2"/>
<rect x="1" y="116.679" width="28.9199" height="28.9199" stroke="#005AD0" stroke-width="2"/>
<rect x="29.9199" y="116.679" width="28.9199" height="28.9199" stroke="#005AD0" stroke-width="2"/>
<rect x="58.8398" y="116.679" width="28.9199" height="28.9199" stroke="#005AD0" stroke-width="2"/>
<rect x="87.7597" y="116.679" width="28.9199" height="28.9199" stroke="#005AD0" stroke-width="2"/>
<rect x="116.68" y="116.679" width="28.9199" height="28.9199" stroke="#005AD0" stroke-width="2"/>
<rect x="145.6" y="116.679" width="28.9199" height="28.9199" stroke="#005AD0" stroke-width="2"/>
<rect x="174.519" y="116.679" width="28.9199" height="28.9199" stroke="#005AD0" stroke-width="2"/>
<rect x="203.439" y="116.679" width="28.9199" height="28.9199" stroke="#005AD0" stroke-width="2"/>
<rect x="232.359" y="116.679" width="28.9199" height="28.9199" stroke="#005AD0" stroke-width="2"/>
<rect x="261.279" y="116.679" width="28.9199" height="28.9199" stroke="#005AD0" stroke-width="2"/>
<rect x="1" y="145.599" width="28.9199" height="28.9199" stroke="#005AD0" stroke-width="2"/>
<rect x="29.9199" y="145.599" width="28.9199" height="28.9199" stroke="#005AD0" stroke-width="2"/>
<rect x="58.8398" y="145.599" width="28.9199" height="28.9199" stroke="#005AD0" stroke-width="2"/>
<rect x="87.7597" y="145.599" width="28.9199" height="28.9199" stroke="#005AD0" stroke-width="2"/>
<rect x="116.68" y="145.599" width="28.9199" height="28.9199" stroke="#005AD0" stroke-width="2"/>
<rect x="145.6" y="145.599" width="28.9199" height="28.9199" stroke="#005AD0" stroke-width="2"/>
<rect x="174.519" y="145.599" width="28.9199" height="28.9199" stroke="#005AD0" stroke-width="2"/>
<rect x="203.439" y="145.599" width="28.9199" height="28.9199" stroke="#005AD0" stroke-width="2"/>
<rect x="232.359" y="145.599" width="28.9199" height="28.9199" stroke="#005AD0" stroke-width="2"/>
<rect x="261.279" y="145.599" width="28.9199" height="28.9199" stroke="#005AD0" stroke-width="2"/>
<rect x="1" y="174.52" width="28.9199" height="28.9199" stroke="#005AD0" stroke-width="2"/>
<rect x="29.9199" y="174.52" width="28.9199" height="28.9199" stroke="#005AD0" stroke-width="2"/>
<rect x="58.8398" y="174.52" width="28.9199" height="28.9199" stroke="#005AD0" stroke-width="2"/>
<rect x="87.7597" y="174.52" width="28.9199" height="28.9199" stroke="#005AD0" stroke-width="2"/>
<rect x="116.68" y="174.52" width="28.9199" height="28.9199" stroke="#005AD0" stroke-width="2"/>
<rect x="145.6" y="174.52" width="28.9199" height="28.9199" stroke="#005AD0" stroke-width="2"/>
<rect x="174.519" y="174.52" width="28.9199" height="28.9199" stroke="#005AD0" stroke-width="2"/>
<rect x="203.439" y="174.52" width="28.9199" height="28.9199" stroke="#005AD0" stroke-width="2"/>
<rect x="232.359" y="174.52" width="28.9199" height="28.9199" stroke="#005AD0" stroke-width="2"/>
<rect x="261.279" y="174.52" width="28.9199" height="28.9199" stroke="#005AD0" stroke-width="2"/>
<rect x="1" y="203.439" width="28.9199" height="28.9199" stroke="#005AD0" stroke-width="2"/>
<rect x="29.9199" y="203.439" width="28.9199" height="28.9199" stroke="#005AD0" stroke-width="2"/>
<rect x="58.8398" y="203.439" width="28.9199" height="28.9199" stroke="#005AD0" stroke-width="2"/>
<rect x="87.7597" y="203.439" width="28.9199" height="28.9199" stroke="#005AD0" stroke-width="2"/>
<rect x="116.68" y="203.439" width="28.9199" height="28.9199" stroke="#005AD0" stroke-width="2"/>
<rect x="145.6" y="203.439" width="28.9199" height="28.9199" stroke="#005AD0" stroke-width="2"/>
<rect x="174.519" y="203.439" width="28.9199" height="28.9199" stroke="#005AD0" stroke-width="2"/>
<rect x="203.439" y="203.439" width="28.9199" height="28.9199" stroke="#005AD0" stroke-width="2"/>
<rect x="232.359" y="203.439" width="28.9199" height="28.9199" stroke="#005AD0" stroke-width="2"/>
<rect x="261.279" y="203.439" width="28.9199" height="28.9199" stroke="#005AD0" stroke-width="2"/>
<rect x="1" y="232.359" width="28.9199" height="28.9199" stroke="#005AD0" stroke-width="2"/>
<rect x="29.9199" y="232.359" width="28.9199" height="28.9199" stroke="#005AD0" stroke-width="2"/>
<rect x="58.8398" y="232.359" width="28.9199" height="28.9199" stroke="#005AD0" stroke-width="2"/>
<rect x="87.7597" y="232.359" width="28.9199" height="28.9199" stroke="#005AD0" stroke-width="2"/>
<rect x="116.68" y="232.359" width="28.9199" height="28.9199" stroke="#005AD0" stroke-width="2"/>
<rect x="145.6" y="232.359" width="28.9199" height="28.9199" stroke="#005AD0" stroke-width="2"/>
<rect x="174.519" y="232.359" width="28.9199" height="28.9199" stroke="#005AD0" stroke-width="2"/>
<rect x="203.439" y="232.359" width="28.9199" height="28.9199" stroke="#005AD0" stroke-width="2"/>
<rect x="232.359" y="232.359" width="28.9199" height="28.9199" stroke="#005AD0" stroke-width="2"/>
<rect x="261.279" y="232.359" width="28.9199" height="28.9199" stroke="#005AD0" stroke-width="2"/>
<rect x="1" y="261.279" width="28.9199" height="28.9199" stroke="#005AD0" stroke-width="2"/>
<rect x="29.9199" y="261.279" width="28.9199" height="28.9199" stroke="#005AD0" stroke-width="2"/>
<rect x="58.8398" y="261.279" width="28.9199" height="28.9199" stroke="#005AD0" stroke-width="2"/>
<rect x="87.7597" y="261.279" width="28.9199" height="28.9199" stroke="#005AD0" stroke-width="2"/>
<rect x="116.68" y="261.279" width="28.9199" height="28.9199" stroke="#005AD0" stroke-width="2"/>
<rect x="145.6" y="261.279" width="28.9199" height="28.9199" stroke="#005AD0" stroke-width="2"/>
<rect x="174.519" y="261.279" width="28.9199" height="28.9199" stroke="#005AD0" stroke-width="2"/>
<rect x="203.439" y="261.279" width="28.9199" height="28.9199" stroke="#005AD0" stroke-width="2"/>
<rect x="232.359" y="261.279" width="28.9199" height="28.9199" stroke="#005AD0" stroke-width="2"/>
<rect x="261.279" y="261.279" width="28.9199" height="28.9199" stroke="#005AD0" stroke-width="2"/>
<rect x="1" y="289.389" width="28.9199" height="28.9199" stroke="#005AD0" stroke-width="2"/>
<rect x="29.9199" y="289.389" width="28.9199" height="28.9199" stroke="#005AD0" stroke-width="2"/>
<rect x="58.8398" y="289.389" width="28.9199" height="28.9199" stroke="#005AD0" stroke-width="2"/>
<rect x="87.7597" y="289.389" width="28.9199" height="28.9199" stroke="#005AD0" stroke-width="2"/>
<rect x="116.68" y="289.389" width="28.9199" height="28.9199" stroke="#005AD0" stroke-width="2"/>
<rect x="145.6" y="289.389" width="28.9199" height="28.9199" stroke="#005AD0" stroke-width="2"/>
<rect x="174.519" y="289.389" width="28.9199" height="28.9199" stroke="#005AD0" stroke-width="2"/>
<rect x="203.439" y="289.389" width="28.9199" height="28.9199" stroke="#005AD0" stroke-width="2"/>
<rect x="232.359" y="289.389" width="28.9199" height="28.9199" stroke="#005AD0" stroke-width="2"/>
<rect x="261.279" y="289.389" width="28.9199" height="28.9199" stroke="#005AD0" stroke-width="2"/>
<rect x="1" y="318.309" width="28.9199" height="28.9199" stroke="#005AD0" stroke-width="2"/>
<rect x="29.9199" y="318.309" width="28.9199" height="28.9199" stroke="#005AD0" stroke-width="2"/>
<rect x="58.8398" y="318.309" width="28.9199" height="28.9199" stroke="#005AD0" stroke-width="2"/>
<rect x="87.7597" y="318.309" width="28.9199" height="28.9199" stroke="#005AD0" stroke-width="2"/>
<rect x="116.68" y="318.309" width="28.9199" height="28.9199" stroke="#005AD0" stroke-width="2"/>
<rect x="145.6" y="318.309" width="28.9199" height="28.9199" stroke="#005AD0" stroke-width="2"/>
<rect x="174.519" y="318.309" width="28.9199" height="28.9199" stroke="#005AD0" stroke-width="2"/>
<rect x="203.439" y="318.309" width="28.9199" height="28.9199" stroke="#005AD0" stroke-width="2"/>
<rect x="232.359" y="318.309" width="28.9199" height="28.9199" stroke="#005AD0" stroke-width="2"/>
<rect x="261.279" y="318.309" width="28.9199" height="28.9199" stroke="#005AD0" stroke-width="2"/>
<rect x="1" y="347.229" width="28.9199" height="28.9199" stroke="#005AD0" stroke-width="2"/>
<rect x="29.9199" y="347.229" width="28.9199" height="28.9199" stroke="#005AD0" stroke-width="2"/>
<rect x="58.8398" y="347.229" width="28.9199" height="28.9199" stroke="#005AD0" stroke-width="2"/>
<rect x="87.7597" y="347.229" width="28.9199" height="28.9199" stroke="#005AD0" stroke-width="2"/>
<rect x="116.68" y="347.229" width="28.9199" height="28.9199" stroke="#005AD0" stroke-width="2"/>
<rect x="145.6" y="347.229" width="28.9199" height="28.9199" stroke="#005AD0" stroke-width="2"/>
<rect x="174.519" y="347.229" width="28.9199" height="28.9199" stroke="#005AD0" stroke-width="2"/>
<rect x="203.439" y="347.229" width="28.9199" height="28.9199" stroke="#005AD0" stroke-width="2"/>
<rect x="232.359" y="347.229" width="28.9199" height="28.9199" stroke="#005AD0" stroke-width="2"/>
<rect x="261.279" y="347.229" width="28.9199" height="28.9199" stroke="#005AD0" stroke-width="2"/>
<rect x="1" y="376.148" width="28.9199" height="28.9199" stroke="#005AD0" stroke-width="2"/>
<rect x="29.9199" y="376.148" width="28.9199" height="28.9199" stroke="#005AD0" stroke-width="2"/>
<rect x="58.8398" y="376.148" width="28.9199" height="28.9199" stroke="#005AD0" stroke-width="2"/>
<rect x="87.7597" y="376.148" width="28.9199" height="28.9199" stroke="#005AD0" stroke-width="2"/>
<rect x="116.68" y="376.148" width="28.9199" height="28.9199" stroke="#005AD0" stroke-width="2"/>
<rect x="145.6" y="376.148" width="28.9199" height="28.9199" stroke="#005AD0" stroke-width="2"/>
<rect x="174.519" y="376.148" width="28.9199" height="28.9199" stroke="#005AD0" stroke-width="2"/>
<rect x="203.439" y="376.148" width="28.9199" height="28.9199" stroke="#005AD0" stroke-width="2"/>
<rect x="232.359" y="376.148" width="28.9199" height="28.9199" stroke="#005AD0" stroke-width="2"/>
<rect x="261.279" y="376.148" width="28.9199" height="28.9199" stroke="#005AD0" stroke-width="2"/>
<rect x="1" y="405.068" width="28.9199" height="28.9199" stroke="#005AD0" stroke-width="2"/>
<rect x="29.9199" y="405.068" width="28.9199" height="28.9199" stroke="#005AD0" stroke-width="2"/>
<rect x="58.8398" y="405.068" width="28.9199" height="28.9199" stroke="#005AD0" stroke-width="2"/>
<rect x="87.7597" y="405.068" width="28.9199" height="28.9199" stroke="#005AD0" stroke-width="2"/>
<rect x="116.68" y="405.068" width="28.9199" height="28.9199" stroke="#005AD0" stroke-width="2"/>
<rect x="145.6" y="405.068" width="28.9199" height="28.9199" stroke="#005AD0" stroke-width="2"/>
<rect x="174.519" y="405.068" width="28.9199" height="28.9199" stroke="#005AD0" stroke-width="2"/>
<rect x="203.439" y="405.068" width="28.9199" height="28.9199" stroke="#005AD0" stroke-width="2"/>
<rect x="232.359" y="405.068" width="28.9199" height="28.9199" stroke="#005AD0" stroke-width="2"/>
<rect x="261.279" y="405.068" width="28.9199" height="28.9199" stroke="#005AD0" stroke-width="2"/>
<rect x="1" y="433.988" width="28.9199" height="28.9199" stroke="#005AD0" stroke-width="2"/>
<rect x="29.9199" y="433.988" width="28.9199" height="28.9199" stroke="#005AD0" stroke-width="2"/>
<rect x="58.8398" y="433.988" width="28.9199" height="28.9199" stroke="#005AD0" stroke-width="2"/>
<rect x="87.7597" y="433.988" width="28.9199" height="28.9199" stroke="#005AD0" stroke-width="2"/>
<rect x="116.68" y="433.988" width="28.9199" height="28.9199" stroke="#005AD0" stroke-width="2"/>
<rect x="145.6" y="433.988" width="28.9199" height="28.9199" stroke="#005AD0" stroke-width="2"/>
<rect x="174.519" y="433.988" width="28.9199" height="28.9199" stroke="#005AD0" stroke-width="2"/>
<rect x="203.439" y="433.988" width="28.9199" height="28.9199" stroke="#005AD0" stroke-width="2"/>
<rect x="232.359" y="433.988" width="28.9199" height="28.9199" stroke="#005AD0" stroke-width="2"/>
<rect x="261.279" y="433.988" width="28.9199" height="28.9199" stroke="#005AD0" stroke-width="2"/>
<rect x="1" y="462.908" width="28.9199" height="28.9199" stroke="#005AD0" stroke-width="2"/>
<rect x="29.9199" y="462.908" width="28.9199" height="28.9199" stroke="#005AD0" stroke-width="2"/>
<rect x="58.8398" y="462.908" width="28.9199" height="28.9199" stroke="#005AD0" stroke-width="2"/>
<rect x="87.7597" y="462.908" width="28.9199" height="28.9199" stroke="#005AD0" stroke-width="2"/>
<rect x="116.68" y="462.908" width="28.9199" height="28.9199" stroke="#005AD0" stroke-width="2"/>
<rect x="145.6" y="462.908" width="28.9199" height="28.9199" stroke="#005AD0" stroke-width="2"/>
<rect x="174.519" y="462.908" width="28.9199" height="28.9199" stroke="#005AD0" stroke-width="2"/>
<rect x="203.439" y="462.908" width="28.9199" height="28.9199" stroke="#005AD0" stroke-width="2"/>
<rect x="232.359" y="462.908" width="28.9199" height="28.9199" stroke="#005AD0" stroke-width="2"/>
<rect x="261.279" y="462.908" width="28.9199" height="28.9199" stroke="#005AD0" stroke-width="2"/>
<rect x="1" y="491.828" width="28.9199" height="28.9199" stroke="#005AD0" stroke-width="2"/>
<rect x="29.9199" y="491.828" width="28.9199" height="28.9199" stroke="#005AD0" stroke-width="2"/>
<rect x="58.8398" y="491.828" width="28.9199" height="28.9199" stroke="#005AD0" stroke-width="2"/>
<rect x="87.7597" y="491.828" width="28.9199" height="28.9199" stroke="#005AD0" stroke-width="2"/>
<rect x="116.68" y="491.828" width="28.9199" height="28.9199" stroke="#005AD0" stroke-width="2"/>
<rect x="145.6" y="491.828" width="28.9199" height="28.9199" stroke="#005AD0" stroke-width="2"/>
<rect x="174.519" y="491.828" width="28.9199" height="28.9199" stroke="#005AD0" stroke-width="2"/>
<rect x="203.439" y="491.828" width="28.9199" height="28.9199" stroke="#005AD0" stroke-width="2"/>
<rect x="232.359" y="491.828" width="28.9199" height="28.9199" stroke="#005AD0" stroke-width="2"/>
<rect x="261.279" y="491.828" width="28.9199" height="28.9199" stroke="#005AD0" stroke-width="2"/>
<rect x="1" y="520.748" width="28.9199" height="28.9199" stroke="#005AD0" stroke-width="2"/>
<rect x="29.9199" y="520.748" width="28.9199" height="28.9199" stroke="#005AD0" stroke-width="2"/>
<rect x="58.8398" y="520.748" width="28.9199" height="28.9199" stroke="#005AD0" stroke-width="2"/>
<rect x="87.7597" y="520.748" width="28.9199" height="28.9199" stroke="#005AD0" stroke-width="2"/>
<rect x="116.68" y="520.748" width="28.9199" height="28.9199" stroke="#005AD0" stroke-width="2"/>
<rect x="145.6" y="520.748" width="28.9199" height="28.9199" stroke="#005AD0" stroke-width="2"/>
<rect x="174.519" y="520.748" width="28.9199" height="28.9199" stroke="#005AD0" stroke-width="2"/>
<rect x="203.439" y="520.748" width="28.9199" height="28.9199" stroke="#005AD0" stroke-width="2"/>
<rect x="232.359" y="520.748" width="28.9199" height="28.9199" stroke="#005AD0" stroke-width="2"/>
<rect x="261.279" y="520.748" width="28.9199" height="28.9199" stroke="#005AD0" stroke-width="2"/>
<rect x="1" y="549.668" width="28.9199" height="28.9199" stroke="#005AD0" stroke-width="2"/>
<rect x="29.9199" y="549.668" width="28.9199" height="28.9199" stroke="#005AD0" stroke-width="2"/>
<rect x="58.8398" y="549.668" width="28.9199" height="28.9199" stroke="#005AD0" stroke-width="2"/>
<rect x="87.7597" y="549.668" width="28.9199" height="28.9199" stroke="#005AD0" stroke-width="2"/>
<rect x="116.68" y="549.668" width="28.9199" height="28.9199" stroke="#005AD0" stroke-width="2"/>
<rect x="145.6" y="549.668" width="28.9199" height="28.9199" stroke="#005AD0" stroke-width="2"/>
<rect x="174.519" y="549.668" width="28.9199" height="28.9199" stroke="#005AD0" stroke-width="2"/>
<rect x="203.439" y="549.668" width="28.9199" height="28.9199" stroke="#005AD0" stroke-width="2"/>
<rect x="232.359" y="549.668" width="28.9199" height="28.9199" stroke="#005AD0" stroke-width="2"/>
<rect x="261.279" y="549.668" width="28.9199" height="28.9199" stroke="#005AD0" stroke-width="2"/>
</svg>
