<svg width="463" height="43" viewBox="0 0 463 43" fill="none" xmlns="http://www.w3.org/2000/svg">
<path d="M37.6274 36.642C37.894 36.5332 38.9507 36.2626 39.4109 36.113C38.9632 36.4982 36.7018 37.0207 37.6274 36.642ZM83.9538 8.77278C83.541 8.89099 83.1296 9.00965 82.7194 9.12876C83.9106 8.99659 85.5313 8.72803 86.6332 8.63795C86.8151 8.62317 86.3696 8.85727 86.7979 8.80766C87.2267 8.75818 87.1126 8.53488 87.7334 8.42751C88.0256 8.37738 88.7634 8.30306 89.6089 8.22515C90.7573 8.11947 92.127 8.00981 92.7833 7.93087C96.9436 7.42659 101.175 6.87103 105.324 6.60525C101.057 7.16391 105.375 6.95035 106.591 6.77333C106.863 6.73525 106.771 6.28969 111.095 6.05868C113.857 5.91897 111.348 6.73153 115.897 6.08688C112.343 5.90336 115.827 5.67641 118.558 5.47953C119.025 5.44349 122.871 5.26079 124.549 5.14329C125.126 5.10182 125.996 4.82008 126.767 4.76968C127.295 4.73533 127.696 4.83836 128.477 4.78826C132.128 4.55607 135.717 4.36538 139.364 4.23921C137.26 4.92856 141.048 4.41334 141.223 4.43501C142.099 4.55553 138.168 4.78069 139.728 4.80974C141.904 4.69136 144.07 4.57881 146.243 4.47063C144.456 4.47184 148.585 3.87579 149.353 4.04058C148.998 3.52542 159.261 4.12498 160.81 3.90616C161.133 3.85919 159.004 3.66905 163.926 3.62748C164.46 3.62357 164.263 3.78752 164.542 3.76394C164.71 3.7498 165.708 3.21706 166.794 3.4605C167.192 3.54993 164.678 3.95374 170.211 3.65511C167.994 3.20874 177.873 3.15679 179.689 3.23936C179.323 3.18072 178.957 3.12214 178.59 3.06361C180.4 3.19927 180.716 3.01772 181.121 3.0163C182.745 3.01085 184.995 3.12681 186.51 3.07186C188.28 3.00799 188.269 2.69113 190.353 2.76152C189.86 2.70407 189.365 2.64669 188.868 2.58939C190.308 2.5695 191.737 2.55022 193.152 2.53137C189.881 3.03375 193.849 2.53379 194.134 2.51762C194.559 2.49164 193.953 2.67877 194.663 2.63948C194.736 2.63413 194.628 2.47501 195.717 2.4294C197.988 2.33476 197.617 2.54759 198.58 2.52096C198.667 2.51769 198.36 2.37973 200.014 2.3033C205.227 2.06061 200 2.41555 199.79 2.44088C199.529 2.47398 201.331 3.03792 196.881 2.9342C198.365 2.96558 198.527 3.23107 198.697 3.23347C198.852 3.23512 201.444 3.13133 201.581 3.11846C202.841 2.99469 201.726 2.83896 201.971 2.79967C202.153 2.76857 205.315 2.92715 206.015 2.35429C207.505 2.82618 205.189 2.84088 202.661 2.98423C202.286 3.09885 205.069 3.12905 205.205 3.12505C208.725 3.03167 206.756 2.66282 207.526 2.37371C207.936 2.22222 209.396 2.46986 208.044 2.12911C211.271 2.00232 209.317 2.2734 209.528 2.30011C209.844 2.3391 210.956 2.2005 211.095 2.21102C211.299 2.22667 210.594 2.37673 211.399 2.40042C211.527 2.40356 212.832 2.14252 211.149 2.08202C213.407 2.05104 213.229 1.86387 214.002 2.22783C215.527 1.45323 215.134 2.62655 215.739 2.64965C217.38 2.70848 216.89 2.14943 216.975 2.119C217.57 1.92334 222.077 1.97613 223.166 1.8532C222.773 2.28111 219.572 1.97893 218.915 2.07876C216.605 2.41867 222.195 2.17999 220.522 2.75264C221.239 2.58668 221.946 2.42044 222.643 2.25389C223.954 2.54133 222.068 2.75595 225.608 2.50495C226.18 2.1963 223.103 2.64166 223.723 2.39209C224.079 2.2469 226.128 2.1427 226.155 2.07093C226.197 1.98524 224.361 2.15332 224.644 2.01271C225.281 1.7143 231.939 1.712 226.868 2.06883C228.252 2.00997 229.064 2.53444 230.25 2.30908C231.037 2.15913 226.565 1.5952 233.228 1.4287C233.409 1.68516 230.523 1.63441 230.491 1.65406C230.393 1.68763 230.915 2.25922 231.001 2.28465C231.252 2.34305 234.776 2.041 237.217 1.91169C238.195 1.86123 239.127 1.85143 239.587 1.91638C239.059 1.5846 244.996 1.64089 245.582 1.53069C245.744 1.49702 245.129 1.30471 245.303 1.27732C246.309 1.1124 249.64 1.40449 250.908 1.38934C252.471 1.36775 252.284 1.19075 252.369 1.1892C253.076 1.18561 252.513 1.31967 252.947 1.31101C253.685 1.29409 257.975 1.24971 258.236 1.22192C258.301 1.21296 257.568 1.01603 258.543 0.962571C258.695 0.954037 258.666 1.19842 261.484 1.05639C264.841 0.887808 259.161 0.779202 260.55 0.504539C262.687 0.844312 262.634 0.482377 263.224 0.503958C263.43 0.512 264.967 0.803651 266.702 0.767562C265.458 0.829657 264.24 0.892608 263.048 0.956448C264.196 0.99708 266.612 0.905526 267.531 0.958643C267.994 0.984244 267.612 1.24152 268.623 1.22574C268.843 1.22119 269.673 0.594493 267.046 0.896138C266.834 0.677194 268.081 0.809388 268.67 0.741895C268.759 0.7314 269.104 0.359282 269.863 0.582395C270.061 0.637876 268.021 1.72818 273.229 0.910861C273.398 0.884577 272.808 0.753849 272.973 0.724753C273.099 0.70487 274.398 0.75071 274.533 0.730789C274.677 0.709331 274.059 0.566154 274.231 0.536079C275.111 0.381125 276.282 0.957675 274.454 0.924668C275.063 0.992891 275.676 1.06128 276.294 1.12982C275.631 0.693751 277.26 1.00031 278.129 0.982326C283.732 0.868537 279.981 0.600636 280.939 0.447971C282.432 0.203899 281.286 0.961312 283.523 0.726401C283.739 0.704791 280.987 0.394015 286.341 0.556479C285.545 0.571342 284.755 0.586417 283.97 0.601707C284.419 1.02541 286.824 0.563036 287.015 0.556688C289.145 0.492536 287.719 0.649199 290.798 0.423288C291.074 0.40305 291.676 0.506888 292.27 0.453485C294.73 0.233344 289.028 0.328429 288.893 0.157273C288.799 0.0721827 294.927 0.0822849 295.163 0.123011C296.066 0.299459 292.353 0.205027 293.062 0.424713C293.352 0.500948 302.05 0.333488 303.855 0.421715C305.895 0.522314 306.776 1.10016 306.795 0.451876C307.363 1.08862 307.867 0.654936 308.126 0.659564C311.253 0.72175 311.294 0.728396 313.969 0.671809C314.557 0.659578 315.055 0.853574 315.264 0.821367C315.386 0.801909 315.159 0.594855 315.755 0.532254C316.573 0.446233 321.597 0.670527 321.966 0.786056C322.345 0.90121 319.845 0.830149 320.293 1.01909C322.117 1.04258 323.798 1.00076 325.611 1.02602C326.361 1.03708 325.975 1.16734 326.299 1.17095C326.436 1.1729 329.035 1.06557 328.926 1.0168C328.656 0.902392 320.674 0.954984 322.777 0.731103C323.181 0.687728 324.611 0.994698 324.385 0.625763C331.553 0.730062 338.692 0.842 345.839 0.959226C341.731 1.21525 337.101 0.949047 332.804 0.959042C332.215 0.96 330.23 0.917459 330.471 1.10448C334.103 1.16521 338.69 1.08671 342.184 1.22371C342.297 1.22823 341.883 1.39363 342.304 1.42201C343.09 1.47492 345.655 1.21705 346.086 1.2889C346.16 1.30548 344.699 1.51911 345.142 1.66131C346.28 2.02622 346.573 1.23123 347.553 1.24539C348.312 1.25648 353.395 1.66723 354.663 1.43088C356.012 1.17861 350.916 1.26075 351.293 1.05081C354.742 0.855281 358.232 1.10175 361.493 1.09375C361.551 1.0934 361.053 0.924423 361.78 0.905313C363.045 0.872077 363.375 1.10969 363.99 1.15095C364.652 1.1949 366.995 1.17498 367.314 1.26285C367.354 1.27435 366.875 1.50526 366.802 1.5114C365.773 1.60162 365.419 1.29616 365.325 1.2917C364.976 1.27815 364.633 1.39235 364.314 1.38357C363.79 1.36898 363.502 1.25979 362.81 1.24631C362.332 1.23661 362.792 1.44572 362.331 1.43364C362.162 1.42834 360.339 0.946564 360.166 1.42685C360.115 1.577 375.034 1.86105 376.529 1.75053C375.237 1.68442 373.968 1.61857 372.692 1.55276C375.266 1.70958 378.426 1.34544 378.637 1.91569C388.279 2.02449 397.869 2.13824 407.534 2.25391C409.229 2.31452 408.29 2.67334 411.152 2.58748C410.415 2.46573 409.674 2.34395 408.93 2.22215C410.456 2.31477 416.769 2.51975 417.866 2.4522C418.002 2.44328 418.201 2.11387 419.816 2.097C421.244 2.08211 421.466 2.33158 422.219 2.38444C422.851 2.42812 423.555 2.36817 423.74 2.38317C423.886 2.39516 423.924 2.54702 424.29 2.57604C425.422 2.66579 424.509 2.23252 425.625 2.73052C425.353 2.74728 425.08 2.76403 424.807 2.78077C426.173 2.86139 428.002 3.09674 426.018 3.19255C425.675 3.20908 425.971 3.06452 425.715 3.06296C415.897 3.02043 423.604 3.36052 427.2 3.15802C428.097 3.38173 433.024 3.28313 433.231 3.32725C433.463 3.39085 432.6 3.55865 433.728 3.71627C433.981 3.75003 440.589 3.67187 438.184 3.94485C437.655 4.00105 434.568 3.91789 433.766 3.92089C435.577 4.39391 439.797 3.76166 440.305 3.78167C442.248 3.86586 436.561 4.15683 440.943 4.23838C444.24 4.30009 441.153 3.97328 442.416 3.84988C443.053 3.7804 446.961 4.14228 446.829 3.70261C448.116 3.66304 447.361 3.89106 447.52 3.90867C447.681 3.92436 450.147 3.80645 451.046 3.90327C451.149 3.91529 450.824 4.14169 450.931 4.16088C451.155 4.19412 453.592 4.16006 453.67 4.14091C453.731 4.12776 453.166 3.92559 453.399 3.87822C453.626 3.82361 456.056 3.88055 456.19 3.82375C456.38 3.73846 453.385 3.78304 453.907 3.56184C455.21 3.62397 457.537 3.48332 458.331 3.30559C458.132 3.35649 456.864 3.35987 456.397 3.33998C456.647 3.01427 459.322 3.02661 458.408 3.28273C458.979 3.14531 458.59 3.07052 458.909 2.94019C459.001 2.90726 459.929 2.90254 460.095 2.84618C460.122 2.83501 459.18 2.70958 459.368 2.64357C459.758 2.52503 462.346 2.5554 462.498 2.58627C463.062 2.67577 461.071 2.78277 460.863 2.91999C460.856 2.94142 462.592 3.21312 462.597 3.2367C462.716 3.49314 460.787 3.30703 460.996 3.53763C461.492 3.58701 461.97 3.63612 462.428 3.68493C461.555 3.80158 460.17 3.82808 458.837 3.8569C457.68 3.88629 456.545 3.9186 456.073 4.04964C458.86 3.98176 461.967 3.99452 461.896 4.59219C461.903 4.84424 460.696 4.99053 460.735 5.05453C460.937 5.28428 462.57 5.03657 462.61 5.04841C462.657 5.06238 462.678 5.07598 462.678 5.08922C462.678 5.08922 462.678 5.08923 462.678 5.08923C462.713 5.22395 460.357 5.31834 460.195 5.37882C459.987 5.48733 461.091 5.93715 461.082 6.03614C461.062 6.05626 459.262 6.15884 459.87 6.33293C460.509 6.50913 461.988 6.51453 462.027 6.53253C462.334 6.63769 459.699 6.72957 459.572 6.79045C459.538 6.82171 461.01 7.01606 461.039 7.07103C461.079 7.12645 459.982 7.24539 459.518 7.41877C459.18 7.5477 460.162 7.64923 459.988 7.66916C459.808 7.68267 457.368 7.6738 457.243 7.69587C457.062 7.729 457.64 7.88584 457.555 7.92431C457.44 7.97971 456.632 7.92104 456.736 7.97872C456.84 8.02227 459.868 8.56503 459.927 8.70729C459.833 8.95084 456.527 8.38219 459.643 9.35052C459.67 9.35693 460.455 9.29019 460.473 9.2961C460.943 9.47352 458.497 9.74156 461.475 9.69847C455.779 9.9948 460.81 10.0637 459.96 10.4718C459.573 10.6289 457.516 10.6881 457.503 10.7115C457.708 10.912 458.361 10.7589 458.576 10.8575C458.708 10.9128 456.857 11.1183 457.272 11.2568C457.506 11.3285 459.419 11.3086 459.579 11.3225C460.425 11.4544 459.387 11.5923 459.572 11.6851C459.706 11.7474 460.964 11.7545 460.987 11.7656C461.052 11.7891 459.34 12.0363 458.943 12.123C458.658 12.19 459.725 12.2987 459.526 12.3277C458.344 12.5017 456.159 12.0443 458.326 12.6817C458.392 12.7012 458.628 12.7076 458.846 12.7101C459.079 12.7126 459.333 12.7112 459.343 12.7151C459.626 12.8051 459.348 12.8531 458.951 12.8966C458.602 12.9402 458.167 12.9794 458.029 13.0522C457.568 13.3031 459.724 13.1686 457.929 13.3408C459.184 13.5094 460.252 13.5053 461.809 13.4606C457.051 13.5817 455.583 14.228 460.711 14.224C459.057 14.211 459.155 14.5791 458.709 14.5846C458.451 14.5878 456.13 14.2138 457.193 15.0393C457.335 15.1425 458.704 15.0161 458.275 15.225C454.923 15.1608 458.224 15.3588 458.209 15.3863C458.252 15.8734 449.747 15.4404 448.333 15.4857C446.712 15.5409 445.18 15.9133 444.805 15.9116C443.565 15.9043 444.595 15.7168 444.318 15.6439C443.99 15.5715 440.723 15.9223 440.519 15.9006C439.857 15.8145 440.531 15.5892 440.462 15.5772C439.612 15.4313 435.083 15.5812 433.8 15.519C433.846 15.6683 436.395 15.6972 434.802 15.9257C432.936 16.192 432.817 15.5346 432.771 15.5054C424.232 15.4532 415.697 15.397 407.128 15.342C407.192 15.6917 412.852 15.4689 412.961 15.5157C413.702 15.7933 404.271 15.7206 403.106 15.5892C403.991 15.6709 404.87 15.7526 405.745 15.8343C404.27 16.2253 400.852 15.6793 398.74 15.8417C398.044 15.8943 399.379 16.0587 399.35 16.0691C398.57 16.2195 397.311 16.0905 398.253 15.8878C396.336 16.0749 396.617 15.8556 395.136 15.8286C395.059 15.8274 395.696 15.9938 394.521 16.0529C393.966 16.0803 391.033 16.0606 390.655 16.1998C390.495 16.2584 391.959 16.8968 392.143 16.3572C395.346 16.643 393.169 16.1179 394.413 16.1389C394.601 16.1431 394.172 16.4419 397.278 16.3215C396.69 16.8617 393.097 16.4297 392.47 16.4913C391.193 16.618 396.453 16.9356 397.397 16.5179C396.948 16.9396 397.767 16.5777 398.919 16.6033C400.179 16.6311 399.629 16.7537 400.309 16.7592C402.199 16.7758 401.425 16.4704 402.985 16.7518C401.469 15.9041 405.66 16.6604 406.851 16.8881C404.893 16.9166 402.909 16.945 400.902 16.9733C401.016 17.018 401.13 17.0628 401.245 17.1075C400.711 17.0975 400.2 17.0877 399.686 17.0779C399.769 17.0363 399.851 16.9948 399.934 16.9533C397.277 17.2084 396.614 16.896 396.397 16.8911C393.563 16.8355 390.317 16.8158 387.472 16.7956C387.042 16.7926 387.343 17.0684 384.206 16.833C383.204 16.7581 384.145 16.5512 383.026 16.5758C381.623 17.1455 381.651 16.6839 381.234 16.6804C380.036 16.6726 379.3 16.8113 379.189 16.8121C377.709 16.8249 375.502 16.7868 373.886 16.798C373.856 16.8 374.7 16.9832 373.645 16.924C373.276 16.9028 369.953 16.1227 367.021 16.3528C367.782 16.4086 368.543 16.4644 369.302 16.5203C368.404 16.4429 362.153 16.5977 363.681 16.8099C364.615 16.9396 366.901 16.4636 367.154 16.9359C365.077 16.7816 353.581 16.9284 352.689 16.8154C352.565 16.7991 353.327 16.6504 353.157 16.6299C353.024 16.6143 350.392 16.637 350.043 16.5767C349.835 16.5408 350.999 16.453 350.905 16.3975C350.822 16.3578 347.536 16.2761 347.346 16.4667C348.156 16.3937 350.422 16.4721 349.232 16.6276C349.079 16.6468 348.287 16.5195 348.101 16.544C346.374 16.77 351.53 16.7391 352.327 16.7454C349.091 16.9724 344.073 16.6607 340.329 16.8037C338.817 16.6378 342.574 16.5697 340.862 16.4303C337.312 16.1414 339.917 16.6465 339.806 16.6663C338.924 16.8232 335.905 15.9494 335.903 16.6052C334.613 16.5014 335.03 16.4203 333.212 16.4992C333.451 16.5455 333.69 16.5918 333.929 16.6382C331.915 17.0101 327.633 16.0375 327.952 15.9655C328.817 15.7726 331.057 16.0856 331.24 16.0789C331.521 16.0691 332.295 15.4062 335.375 16.0131C336.636 15.5716 330.497 15.6934 333.29 15.3997C331.425 15.4419 323.612 15.1063 322.518 15.3C322.383 15.3252 323.011 15.7714 321.088 15.5401C320.171 15.43 322.381 15.4305 321.96 15.3281C320.619 15.0095 303.286 15.1808 299.889 15.2044C299.675 15.2049 299.754 15.0669 299.543 15.0682C298.882 15.0722 296.59 15.2795 295.382 15.2175C297.826 15.4703 293.077 15.4951 291.905 15.4697C290.108 15.4303 290.223 15.1874 289.453 15.1375C286.411 14.9449 281.829 15.5382 279.447 15.0114C279.564 15.5454 275.384 14.77 273.543 14.7787C272.011 14.7851 269.856 15.1562 271.878 15.3564C269.27 15.3511 266.694 15.474 264.214 15.5336C263.816 15.5434 264.361 15.3792 263.684 15.401C263.623 15.4042 263.538 15.5601 262.963 15.5829C258.297 15.7751 260.502 15.4196 259.621 15.3338C259.104 15.2867 258.729 15.2651 258.454 15.2602C261.407 15.1867 264.404 15.0939 265.346 15.0799C264.561 14.7438 259.188 15.2161 257.537 15.1518C257.481 15.1493 257.671 14.9578 257.615 14.9573C257.614 14.9573 257.612 14.9573 257.611 14.9573C257.015 14.9502 253.255 15.0852 254.02 15.2972C254.284 15.3525 255.955 15.3218 258.037 15.2707C257.473 15.3213 257.898 15.5264 257.798 15.5369C256.606 15.6583 253.682 15.502 252.595 15.4967C252.354 15.4953 252.375 15.6304 252.335 15.6315C251.389 15.6199 251.764 15.2253 250.823 15.6442C249.126 15.1979 254.001 15.5067 253.69 15.2021C253.356 14.9491 242.477 15.3566 242.5 15.7651C242.463 15.726 242.314 15.6811 242.021 15.6352C241.869 15.6115 241.599 15.6016 241.278 15.6018C240.91 15.604 240.448 15.6184 240.021 15.6384C239.155 15.6786 238.379 15.7445 238.047 15.795C237.991 15.8028 237.945 15.8102 237.91 15.817C237.822 15.836 237.879 16.2017 237.77 16.2116C237.515 16.2396 233.673 16.1567 232.249 16.4353C233.035 16.4508 233.805 16.4655 234.557 16.4791C229.914 16.7072 230.639 16.7733 232.193 16.8162C232.272 16.8135 232.349 16.824 232.425 16.822C233.658 16.8471 235.132 16.8499 235.181 16.8762C235.302 16.9948 227.425 17.4042 228.92 16.9938C229.156 16.9396 232.733 16.9355 230.957 16.7692C230.658 16.7407 228.31 16.9076 228.173 16.8853C227.365 16.7417 232.43 16.2906 231.797 16.061C230.602 16.3573 228.983 16.2979 227.576 16.4151C226.945 16.4679 226.793 16.6584 226.715 16.6649C225.533 16.7577 226.19 16.5391 225.793 16.5587C225.574 16.5709 223.246 17.066 223.673 16.4821C215.979 17.1545 221.574 16.9805 226.289 16.7733C224.766 17.0386 221.903 17.0367 220.546 17.1279C220.08 17.1604 220.365 17.3411 219.582 17.4039C217.944 17.5382 210.168 17.5423 208.115 17.5427C209.372 17.442 209 17.2454 208.027 17.2857C207.064 17.3256 207.878 17.5798 207.692 17.6144C207.519 17.6502 202.965 17.6386 202.243 17.6923C205.634 17.5053 204.849 17.3196 201.984 17.3714C202.396 17.3016 202.807 17.2317 203.216 17.1618C201.566 17.2878 197.964 17.0645 197.017 17.1818C196.866 17.2007 197.417 17.36 197.331 17.3706C196.491 17.4654 193.549 17.3628 193.426 17.425C193.31 17.4772 194.558 17.591 194.097 17.6741C193.992 17.6918 192.81 17.4874 191.633 17.5747C191.197 17.607 191.464 17.764 191.354 17.7763C190.438 17.8784 190.976 17.5888 189.29 17.676C188.062 17.7402 187.169 18.0328 185.464 17.9877C191.033 18.188 186.37 18.1639 184.023 18.3297C183.652 18.3561 183.982 18.6446 181.754 18.5589C186.467 17.8965 180.404 18.3098 179.14 18.3391C179.071 18.3391 179.042 18.1437 178.433 18.1572C178.382 18.1588 178.46 18.2892 177.894 18.3149C172.511 18.5605 175.95 18.3152 174.922 18.2131C174.477 18.1697 171.874 18.4321 171.167 18.4578C171.005 18.463 171.076 18.3231 170.447 18.3471C169.335 18.39 168.344 18.5668 167.614 18.6008C167.529 18.6042 167.519 18.3868 166.133 18.5005C165.744 18.5324 165.307 18.6234 165.864 18.6684C167.705 18.8156 171.192 18.3551 173.27 18.501C175.168 18.6327 169.2 18.8237 168.882 18.8359C168.767 18.84 169.935 18.6969 168.745 18.7114C167.735 18.7242 165.898 19.1563 164.384 19.1231C164.268 19.1206 163.053 18.8416 163.108 18.8213C163.156 18.8059 165.008 18.6774 164.736 18.5941C164.704 18.5845 163.524 18.6245 163.37 18.561C163.18 18.4837 162.646 17.6817 162.395 17.6694C161.749 17.6399 162.174 17.8128 161.757 17.8136C160.863 17.8151 157.749 17.6798 157.66 17.9674C158.172 17.9663 158.685 17.9654 159.199 17.9646C156.348 18.0925 157.569 18.1716 157.166 18.2387C156.734 18.3117 156.847 18.0579 155.886 18.0689C155.677 18.0702 151.659 18.2717 151.737 18.3746C153.953 18.1237 153.141 18.4634 153.243 18.4649C153.633 18.4704 154.124 18.2791 154.647 18.2634C158.322 18.1575 154.626 18.5642 155.496 18.603C155.796 18.6158 156.385 18.4469 156.512 18.45C156.924 18.4597 156.938 18.6527 157.212 18.6274C157.851 18.5686 157.094 18.3215 157.144 18.3055C157.71 18.1139 159.963 18.2494 158.575 18.5952C159.419 18.6734 159.505 18.3085 160.175 18.4305C161.507 18.6721 159.523 18.6653 158.988 18.7315C157.068 18.9698 156.493 18.8503 153.771 18.9982C152.791 19.0513 151.635 19.2714 151.181 19.2986C150.894 19.3152 148.166 18.8115 148.126 19.7714C147.069 19.7214 145.393 19.1602 144.313 19.2358C143.343 19.304 143.667 19.629 143.577 19.646C143.44 19.6724 142.262 19.6977 141.866 19.7635C141.402 19.8409 141.641 19.9594 140.904 20.0457C139.072 20.2605 139.106 19.914 138.916 19.9003C136.718 19.745 137.695 20.1909 137.211 20.2536C136.755 20.3078 130.406 20.4452 129.085 20.6494C129.621 20.55 130.159 20.4509 130.699 20.3522C129.715 20.1898 128.709 20.5988 128.67 20.2139C128.514 20.8473 126.478 20.5468 125.877 20.5994C125.64 20.6202 125.665 20.7252 125.368 20.7476C124.214 20.8345 121.6 20.915 120.971 21.0112C118.27 21.419 125.241 21.3553 125.786 21.3532C124.695 21.4054 118.511 21.9472 121.377 22.0615C121.82 22.079 122.585 21.7504 122.834 21.7238C124.493 21.5478 123.2 21.8795 123.332 21.895C123.555 21.9194 124.636 21.6104 124.928 21.6217C125.026 21.6252 124.414 21.8885 126.01 21.7977C125.238 22.0605 120.75 22.164 120.167 22.2577C119.959 22.2914 121.299 22.6667 117.449 22.4754C117.497 22.5157 117.545 22.556 117.592 22.5964C115.444 22.7648 113.355 22.9384 111.213 23.1272C111.435 23.0087 112.615 22.7131 111.114 22.8751C110.252 22.9691 110.909 23.1407 110.831 23.1535C110.066 23.2351 96.3756 24.4378 93.7945 24.8405C93.3454 24.8985 92.5035 25.0497 91.7681 25.1906C91.0171 25.3325 90.3622 25.4636 90.2681 25.4776C89.1374 25.6381 85.0928 26.0814 84.3076 26.2265C83.8129 26.3151 84.3149 26.4307 83.8659 26.4876C83.4469 26.5406 83.8534 26.2983 83.7282 26.309C82.6809 26.3773 74.99 27.8393 73.144 28.0131C74.2557 27.8577 79.7985 26.585 79.6751 26.4843C79.6469 26.4705 78.2572 26.5522 77.9885 26.6643C77.4988 26.5843 75.9912 27.315 75.104 27.3717C75.0051 27.3782 75.3426 27.0476 73.7933 27.2654C73.2657 27.3397 71.9008 27.7897 70.4634 27.8156C68.4432 28.2502 57.8155 30.0899 57.157 30.5788C57.1377 30.598 58.6443 30.3623 57.6669 30.7017C56.3738 31.1542 57.4459 30.3693 55.8964 30.6771C55.6541 30.7172 51.3842 31.7941 51.2457 31.8709C50.0195 32.4783 53.7929 31.6727 53.7438 31.726C53.6386 31.8356 50.538 32.6508 50.4141 32.6658C50.2883 32.6753 52.7133 31.6611 49.7245 32.5675C50.0804 32.5251 50.4377 32.4832 50.7964 32.4416C49.3977 32.8876 49.1983 32.662 48.8442 32.7356C47.7441 32.9665 46.7213 33.6607 44.8622 33.6451C44.3746 33.6397 45.0845 33.2878 45.0231 33.2839C44.4269 33.2594 43.8796 33.9164 42.9625 33.8003C42.8972 33.7928 44.7355 33.035 41.4133 33.9923C41.6497 33.9594 41.8869 33.9268 42.1248 33.8942C41.6798 34.096 38.3516 35.1421 37.9163 35.2665C36.5966 35.6242 37.6561 35.0278 36.3538 35.473C37.2898 35.5256 33.3556 36.8583 33.491 36.5123C33.0696 37.0373 29.6478 37.9323 28.1121 38.5164C27.1378 38.8744 25.2516 39.7989 24.935 39.9116C24.555 40.0422 24.5694 39.7621 23.8844 39.9859C23.692 40.0474 21.7972 41.0416 19.9996 41.5896C19.6511 41.6946 18.7916 41.6265 19.3477 41.247C20.3153 40.5847 22.4557 40.0273 22.3382 39.8058C22.1908 39.5656 19.5491 40.9144 18.8405 41.2245C15.4908 42.6669 17.2597 41.4939 17.131 41.4542C16.8272 41.3614 15.0426 42.2861 14.9748 42.3074C14.6321 42.3917 15.7928 41.5926 15.7604 41.4673C15.6975 41.3046 13.8687 41.9283 14.226 41.6759C14.7182 41.3134 16.448 40.7156 16.5315 40.665C17.7698 39.872 15.8132 40.4 15.2106 40.501C15.0307 40.527 15.596 40.1294 15.4617 40.1789C13.4228 40.9386 15.2985 40.8719 14.0328 41.4816C12.8841 42.0501 14.2136 41.0376 14.156 41.0555C14.1054 41.0607 12.7442 41.7882 12.5084 41.8228C12.3568 41.8291 15.623 39.5277 15.4011 39.4139C14.2682 40.0404 13.1764 40.6776 12.1073 41.3404C11.8663 41.1376 13.5827 40.4321 13.731 40.3258C14.0362 40.0943 13.0356 40.4638 13.0279 40.3652C13.025 40.2987 14.0277 39.5243 12.9893 39.9849C12.6183 40.1541 12.0277 40.6994 10.6883 41.2467C14.847 38.5801 11.7906 40.1221 11.611 40.1001C11.4323 40.0823 13.3822 38.7098 10.9005 40.1574C10.508 39.7324 10.8668 39.9668 11.526 39.4825C12.3525 38.8931 10.2017 39.8304 13.5331 38.2096C13.2225 38.0571 10.6098 39.51 10.4742 39.5814C10.346 39.6328 10.8588 39.1884 10.6321 39.2676C7.93695 40.2528 9.72719 39.4745 8.8602 39.6098C8.79113 39.6052 6.44136 40.9497 8.15009 39.814C11.294 37.7863 12.854 37.4802 13.0438 36.4635C10.4061 37.4082 7.79359 39.6051 7.10505 40.0801C6.05057 40.785 7.05983 39.9281 6.90483 39.9756C6.85722 39.9855 5.9254 40.622 5.90914 40.6208C4.89036 40.5176 10.0777 37.9079 11.6457 37.0307C11.1671 37.1843 10.6952 37.3394 10.2301 37.496C10.7925 37.1752 11.402 36.8388 11.9627 36.5376C9.10312 37.8788 11.8337 36.5135 12.2946 35.7256C12.3996 35.5447 10.648 36.6755 12.6088 35.3048C11.0162 36.0532 11.478 35.6932 10.1373 36.5873C10.0703 36.3793 13.1357 34.491 14.3656 33.8073C9.79349 35.8556 12.67 35.1658 8.69947 36.9401C8.12346 37.5576 9.89757 36.4778 9.76758 36.604C9.33078 37.0173 7.96667 37.5226 6.78746 38.8804C6.60323 39.0997 7.71197 38.6888 6.26978 39.6085C6.10499 39.7109 5.05793 40.1558 5.06519 40.1345C5.08107 39.9093 6.04408 39.339 6.04262 39.2569C6.04143 39.1721 5.02938 39.9028 5.02143 39.8895C4.86347 39.7325 5.82993 39.2403 5.66399 39.2717C5.29334 39.3374 1.35911 41.4665 6.25379 38.3166C2.37362 41.2233 5.84362 38.809 7.40679 37.7654C7.79501 37.5012 7.82844 37.3284 8.3948 36.9426C9.14352 36.4345 10.0333 36.0115 10.4315 35.768C10.8471 35.5182 8.2646 36.5502 11.8309 34.7506C9.88274 35.3995 6.90426 37.4916 5.11234 38.4577C1.44529 40.433 7.22371 36.3888 7.8497 36.0803C8.01119 35.9719 7.36222 36.152 7.46816 36.0772C7.64336 35.9245 11.1202 34.088 11.3993 33.8073C11.6684 33.5021 10.1455 34.4726 9.95792 34.4085C9.82258 34.3371 13.9734 32.0186 11.6491 33.1226C10.0448 33.8672 7.3741 35.8617 6.68311 35.7867C8.9353 34.3845 11.2455 33.1233 13.5594 31.9651C12.2045 32.4343 10.8444 32.939 9.50583 33.4739C12.0919 32.02 14.4469 31.1068 16.8822 29.7695C10.5816 32.0403 18.6874 28.4693 18.7625 28.4268C18.7903 28.3667 16.1817 29.0165 15.7764 29.1197C17.8442 27.9595 24.3665 25.3239 20.3366 26.3388C21.0629 26.1742 22.6808 25.2302 22.64 25.2237C22.3297 25.0749 18.6942 26.6908 19.2112 26.2586C19.8405 25.7336 20.9087 25.6671 21.9959 25.219C27.4984 23.0109 25.5498 22.3968 31.2413 20.7139C31.1161 20.7081 30.991 20.7023 30.866 20.6966C37.0188 18.7787 43.1844 17.163 49.3724 15.7434C51.7068 14.7756 58.1052 13.1204 61.2855 12.5424C61.9418 12.4148 65.0957 12.0052 65.3492 11.996C65.8003 11.9771 63.3889 12.4635 64.5034 12.3771C64.7463 12.3466 70.0643 11.4586 69.6581 11.3244C69.0501 11.4057 67.2039 11.8483 66.8936 11.8562C64.6741 11.8381 81.1435 9.33894 81.9506 9.16421C81.5803 9.14877 81.203 9.13482 80.8263 9.12131C81.8804 8.99953 82.9048 8.886 83.9538 8.77278ZM41.281 34.9047C40.7864 35.2695 39.2882 35.553 38.4799 35.8669C37.3475 36.3012 35.6408 37.7126 36.2305 36.6633C37.9081 36.0539 39.5842 35.4711 41.281 34.9047ZM66.9187 29.0843C65.7127 29.2037 66.5408 28.576 67.5552 28.5745C67.6688 28.5751 68.557 28.9245 66.9187 29.0843ZM54.4648 31.5311C54.512 31.5132 55.5378 31.2856 55.5763 31.2844C56.5349 31.2483 53.4452 31.9336 54.4648 31.5311ZM115.362 22.4069C114.018 22.5257 115.021 22.8669 115.847 22.6359C115.899 22.6212 115.45 22.3994 115.362 22.4069ZM114.404 22.4666C113.349 22.1722 111.264 23.09 112.951 22.883C113.123 22.8618 114.452 22.4809 114.404 22.4666ZM62.6506 29.7551C62.7531 29.588 63.9868 29.4047 64.5201 29.3329C64.5303 29.4628 63.1542 29.6335 62.6506 29.7551ZM94.0069 24.6335C94.0276 24.5722 92.8542 24.6856 91.7234 24.8393C90.6495 24.9843 89.5937 25.1628 89.4624 25.2513C89.7721 25.1811 90.7541 25.0617 91.737 24.9464C92.8505 24.8156 93.9864 24.6907 94.0069 24.6335ZM105.136 23.3146C105.028 23.3044 103.524 23.4738 103.573 23.5688C104.342 23.6258 105.633 23.3573 105.136 23.3146ZM127.531 21.6943C127.608 21.6654 126.443 21.1016 129.16 21.3616C129.559 21.3997 128.155 21.6433 128.297 21.658C128.593 21.6851 128.827 21.6924 129.015 21.6856C127.77 21.8075 126.446 21.9101 126.32 21.8795C125.714 21.7349 127.493 21.7064 127.531 21.6943ZM139.329 20.6112C139.583 20.4964 141.249 20.4746 141.63 20.4999C141.696 20.505 141.424 20.7867 142.173 20.7329C142.775 20.6895 141.862 20.4539 143.039 20.446C144.222 20.4384 142.652 20.704 142.755 20.7137C142.897 20.7255 144.717 20.5224 144.668 20.6853C144.63 20.8055 142.67 20.8104 142.182 20.8579C141.562 20.9182 142.324 21.082 141.284 21.0864C140.63 21.0896 140.976 20.7254 140.837 20.7141C140.72 20.7048 138.454 21.0112 139.332 20.6122C139.331 20.6118 139.33 20.6115 139.329 20.6112ZM129.354 21.6511C129.26 21.6682 129.149 21.6806 129.015 21.6856C129.128 21.6744 129.241 21.6626 129.354 21.6511ZM44.5704 33.8057C45.1935 33.7439 43.4723 34.3647 42.7432 34.4297C42.705 34.3209 44.4697 33.8145 44.5704 33.8057ZM130.505 21.3035C132.387 21.289 131.009 21.4823 129.354 21.6511C129.877 21.5563 129.875 21.309 130.505 21.3035ZM77.9885 26.6643C78.0696 26.6775 78.1249 26.7096 78.1417 26.7742C77.9277 26.7351 77.9033 26.6995 77.9885 26.6643ZM82.2754 26.1152C83.7126 25.6942 80.7336 26.1513 80.7791 26.2933C80.7951 26.3456 82.2167 26.1316 82.2754 26.1152ZM117.099 22.3018C116.961 22.2919 119.047 21.5303 115.989 22.2081C117.64 22.162 115.908 22.3528 115.938 22.4046C116.012 22.5524 118.78 22.209 119.383 22.2365C119.84 21.9291 117.565 22.3333 117.102 22.3015C117.101 22.3016 117.1 22.3017 117.099 22.3018ZM160.715 19.9117C160.343 20.0856 159.143 20.0744 158.335 20.0931C158.707 19.9186 159.907 19.9293 160.715 19.9117ZM372.619 16.9692C367.067 17.0842 366.343 16.4227 371.431 16.7135C371.531 16.7196 372.956 16.9047 372.619 16.9692ZM324.921 16.5692C324.399 16.2811 326.128 16.2401 327.268 16.3621C327.526 16.3896 328.48 16.6829 327.39 16.7361C327.425 16.3889 325.742 16.2509 324.921 16.5692ZM131.556 21.0628C132.095 20.8422 133.781 20.8898 134.665 20.874C134.134 21.0582 132.348 21.0798 131.556 21.0628ZM354.356 16.5209C353.771 16.4961 353.374 16.7433 353.475 16.7645C353.927 16.862 355.023 16.6663 354.356 16.5209ZM126.135 21.3391C126.048 21.2292 128.28 20.9892 128.443 21.2634C127.977 21.2689 126.191 21.4071 126.135 21.3391ZM159.188 19.8778C158.839 19.8316 160.634 19.6663 161.179 19.706C161.14 19.8287 159.417 19.9075 159.188 19.8778ZM344.924 16.5585C344.399 16.5344 343.089 16.5218 342.943 16.6219C342.763 16.747 344.684 16.7129 344.924 16.5585ZM442.569 16.9736C442.638 17.0194 440.637 17.3331 439.713 17.2446C437.982 17.0756 442.531 16.9416 442.569 16.9736ZM359.904 16.4225C361.558 16.6689 359.722 16.429 359.793 16.679C360.908 16.6942 363.675 16.7224 361.773 16.4661C361.403 16.4165 360.424 16.4416 359.904 16.4225ZM358.377 16.3305C358.199 16.4104 357.003 16.6588 358.035 16.6462C358.513 16.64 359.284 16.361 358.377 16.3305ZM429.972 17.0012C428.46 16.7699 435.347 16.9358 435.508 16.9753C435.61 16.9964 435.677 17.0161 435.715 17.0327C435.964 16.9643 437.218 16.96 437.359 17.1381C436.988 17.121 435.958 17.1298 435.837 17.1093C435.785 17.1006 435.746 17.0925 435.72 17.0844C435.321 17.2357 430.174 17.0447 429.972 17.0012ZM418.72 16.6942C420.434 16.3805 420.721 16.9368 420.577 16.9536C418.726 17.1672 419.935 16.7671 419.879 16.7475C419.751 16.7148 418.426 16.895 418.725 16.6942C418.723 16.6942 418.721 16.6942 418.72 16.6942ZM427.688 16.8941C427.76 16.8874 429.174 16.9144 429.229 16.9236C430.387 17.1179 426.383 17.0422 427.688 16.8941ZM148.249 19.8346C149.264 19.8489 148.28 20.0924 147.601 20.0468C147.545 20.0419 147.351 19.8223 148.249 19.8346ZM357.56 16.381C357.323 16.3409 351.28 16.1637 351.641 16.4738C352.155 16.4397 359.024 16.6351 357.56 16.381ZM312.378 16.1364C313.456 16.1405 312.28 16.4291 311.707 16.32C311.494 16.2794 312.107 16.1355 312.378 16.1364ZM123.131 21.2581C122.043 21.4867 122.239 20.9378 123.2 21.0612C123.237 21.066 123.174 21.2492 123.131 21.2581ZM320.893 16.3208C317.191 16.488 318.085 15.5685 322.866 15.892C322.717 15.9326 322.568 15.9732 322.419 16.0139C327.914 16.1676 322.792 16.0795 321.45 16.1277C320.932 16.146 321.365 16.3008 320.896 16.3219C320.895 16.3215 320.894 16.3212 320.893 16.3208ZM306.76 16.1124C303.248 15.4563 309.95 15.8864 311.926 15.805C310.029 16.0721 307.58 16.0286 310.919 16.309C306.039 16.3567 308.078 16.0991 307.879 16.077C307.65 16.0525 306.91 16.1405 306.76 16.1124ZM316.097 16.121C316.301 16.1023 317.841 16.2385 318.399 16.2181C317.617 16.4395 314.743 16.2479 316.097 16.121ZM406.898 16.761C407.026 16.587 407.343 16.4604 408.541 16.5344C408.17 16.6196 407.403 16.6897 406.898 16.761ZM39.9373 34.3433C39.1457 34.5657 37.5999 34.9761 38.123 35.0067C38.1741 35.0051 39.9599 34.4423 39.9373 34.3433ZM339.999 16.153C339.828 16.1305 335.199 16.0971 336.796 16.2967C337.279 16.3567 341.477 16.3499 339.999 16.153ZM363.88 16.2969C363.495 16.2928 361.928 16.3168 361.894 16.358C361.788 16.5004 363.711 16.4328 363.88 16.2969ZM35.9793 35.3856C35.8745 35.396 33.5391 36.201 33.8241 36.1982C34.3687 36.1809 36.3422 35.3326 35.9793 35.3856ZM151.923 19.28C152.136 19.2654 152.426 19.4446 152.499 19.4439C152.673 19.439 156.573 19.2231 155.091 19.5214C154.844 19.5692 149.225 19.6892 148.497 19.697C148.205 19.4474 150.61 19.5999 151.192 19.5511C151.295 19.542 151.352 19.3213 151.922 19.2812C151.922 19.2808 151.923 19.2804 151.923 19.28ZM413.258 16.622C413.438 16.4575 417.994 16.3804 417.974 16.5812C416.339 16.5944 414.841 16.6085 413.258 16.622ZM410.91 16.5777C409.918 16.4533 412.243 16.4311 412.917 16.4878C412.926 16.5994 411.057 16.5959 410.91 16.5777ZM355.143 15.6285C354.68 15.6666 356.102 15.9162 355.783 15.9615C355.579 15.9897 354.546 15.8935 354.216 15.9675C354.122 15.991 355.176 16.2241 355.481 16.2159C355.914 16.2051 355.495 16.0238 355.967 16.0252C357.534 16.0297 358.934 16.1651 360.406 16.1704C360.54 16.1706 359.508 16.0384 360.643 16.0465C360.819 16.0476 361.871 16.2418 363.227 16.2217C366.213 15.6559 368.435 16.2417 372.23 16.0549C372.089 15.999 369.246 15.8343 369.077 15.8279C365.875 15.7124 360.212 15.6691 356.868 15.6499C356.015 15.6447 356.429 15.7704 356.061 15.773C355.77 15.7747 356.117 15.548 355.143 15.6285ZM40.3184 34.0976C39.8759 33.9902 38.6101 34.5231 37.7925 34.7666C38.1388 34.8733 39.4782 34.2934 40.3184 34.0976ZM390.212 16.255C389.766 16.2607 388.378 16.1825 388.262 16.2505C388.115 16.3392 390.118 16.4095 390.212 16.255ZM173.948 18.6211C173.992 18.6136 175.074 18.5951 175.114 18.6012C176.085 18.7569 172.844 18.8114 173.948 18.6211ZM199.761 17.9895C200.585 17.9405 201.407 17.8482 201.686 18.0264C201.167 18.0112 199.669 18.1209 199.761 17.9895ZM235.579 16.7971C235.421 16.5944 237.333 16.5834 238.094 16.5779C238.192 16.5782 238.272 16.5785 238.324 16.5783C238.299 16.5983 238.216 16.6224 238.098 16.6477C237.445 16.7759 235.7 16.9364 235.579 16.7971ZM406.728 15.9984C408.221 16.0234 407.901 15.6537 408.85 15.8268C409.019 15.8561 409.484 16.6245 407.862 16.3262C407.568 16.2726 408.723 16.0991 406.728 15.9984ZM323.641 15.9019C324.022 15.7425 325.216 15.7936 326.025 15.8089C325.843 15.9275 324.213 15.892 323.641 15.9019ZM31.7031 36.6263C30.9756 36.6313 28.1015 37.8648 28.8793 37.7397C28.9949 37.7128 31.2726 36.7622 31.7031 36.6263ZM135.318 20.1348C136.643 19.8898 133.876 19.9729 133.02 20.1931C133.411 20.1608 135.228 20.1507 135.318 20.1348ZM226.923 17.0516C226.993 17.0419 228.388 17.0046 228.476 17.0095C229.656 17.1497 225.617 17.2598 226.923 17.0516ZM191.262 17.9095C191.771 17.7496 195.14 17.7832 195.908 17.9109C195.174 18.144 190.633 18.1087 191.262 17.9095ZM400.502 16.0585C401.588 16.0586 402.624 16.1112 403.614 16.1817C403.41 16.3038 400.613 16.1516 400.502 16.0585ZM232.193 16.8162C232.272 16.8135 232.349 16.824 232.425 16.822C232.346 16.8204 232.269 16.818 232.193 16.8162ZM376.455 15.809C375.55 15.7544 375.736 15.9821 375.792 15.9893C376.473 16.067 377.479 15.8706 376.455 15.809ZM39.2593 34.0645C38.9008 33.9585 37.5744 34.531 36.7378 34.7466C37.0295 34.8218 38.6079 34.282 39.2593 34.0645ZM302.972 15.692C301.839 15.47 306.454 15.214 307.407 15.3581C307.476 15.4947 303.16 15.722 302.972 15.692ZM131.161 20.0443C131.062 19.8889 129.155 20.1875 129.567 20.2407C129.826 20.2742 131.22 20.1406 131.161 20.0443ZM309.719 15.4538C310.152 15.4054 311.166 15.5648 310.809 15.6606C310.35 15.7835 309.607 15.4677 309.719 15.4538ZM348.539 15.4518C348.351 15.4264 345.803 15.5785 346.854 15.7469C347.583 15.8639 347.701 15.633 347.872 15.6332C348.065 15.6347 352.146 15.9383 348.539 15.4518ZM277.19 15.6132C278.146 15.5463 279.317 15.6118 280.344 15.6026C279.921 15.7034 277.592 15.7422 277.19 15.6132ZM138.567 19.6265C138.334 19.569 132.019 19.847 135.612 19.866C135.821 19.8655 139.282 19.7882 138.567 19.6265ZM406.728 15.9984C406.539 15.9953 406.322 15.9861 406.069 15.9684C406.32 15.9765 406.538 15.9889 406.728 15.9984ZM389.611 15.8542C389.957 15.74 388.216 15.697 387.698 15.7556C387.539 15.8969 389.564 15.8702 389.611 15.8542ZM280.421 15.4397C281.036 15.3701 282.026 15.4371 282.742 15.4265C282.614 15.5352 280.708 15.5483 280.421 15.4397ZM239.991 15.9903C241.229 15.9954 242.476 15.9197 242.513 15.7856C242.536 15.8054 242.59 15.8254 242.68 15.8441C242.764 15.8625 243.976 15.7575 244.546 15.7849C247.614 15.9075 232.496 16.474 241.293 15.6879C240.863 15.7873 240.406 15.8891 239.991 15.9903ZM186.691 17.7141C186.037 17.5695 184.208 17.8194 184.686 17.8705C185.021 17.9052 187.348 17.8596 186.691 17.7141ZM211.791 16.9713C211.601 16.9479 209.827 17.1095 209.78 17.1957C210.815 17.2574 212.671 17.0806 211.791 16.9713ZM181.676 17.6564C181.267 17.643 180.752 17.9171 180.8 17.9271C181.219 18.0109 182.366 17.783 181.676 17.6564ZM403.617 15.2753C403.008 15.1964 401.041 15.3708 400.609 15.5396C400.532 15.5058 400.323 15.461 399.94 15.4063C399.941 15.4063 399.942 15.4063 399.943 15.4063C399.468 15.3331 383.711 15.1486 394.262 15.5523C394.593 15.5652 394.142 15.4078 395.49 15.4443C395.579 15.4469 395.622 15.5732 395.896 15.5812C396.533 15.5989 399.868 15.7016 400.528 15.6049C400.534 15.6283 400.575 15.6508 400.669 15.6719C401.513 15.8594 404.093 15.3361 403.617 15.2753ZM215.345 16.8469C214.988 16.8108 213.851 16.8878 213.734 17.0023C214.308 17.0406 216.175 16.9315 215.345 16.8469ZM138.35 19.1803C137.622 19.123 135.779 19.3848 136.343 19.448C136.689 19.4862 139.193 19.245 138.35 19.1803ZM203.94 17.2168C208.156 17.2387 204.947 17.1801 205.588 17.0004C205.042 17.0726 204.492 17.1447 203.94 17.2168ZM423.013 15.8349C422.356 15.7927 423.133 15.4767 423.85 15.6563C424.075 15.7133 423.381 15.8579 423.013 15.8349ZM453.262 15.9258C452.715 15.6383 455.402 15.8174 454.346 16.0085C454.301 16.015 453.305 15.9369 453.262 15.9258ZM432.121 15.6822C431.664 15.8733 431.317 15.8939 430.086 15.8374C431.941 15.7955 430.189 15.6117 432.121 15.6822ZM242.5 15.7651C242.508 15.7727 242.514 15.7783 242.513 15.7856C242.505 15.7787 242.501 15.7721 242.5 15.7651ZM177.739 17.8136C177.212 17.6635 175.743 17.7166 176.186 17.8698C176.229 17.8839 177.528 17.9409 177.739 17.8136ZM400.609 15.5396C400.679 15.5696 400.642 15.5883 400.528 15.6049C400.523 15.5829 400.553 15.5624 400.609 15.5396ZM185.626 17.4691C185.579 17.593 187.816 17.583 187.903 17.5664C189.174 17.321 186.555 17.4375 185.626 17.4691ZM123.641 19.8074C123.527 19.8272 124.281 20.0978 124.726 19.9466C125.07 19.8292 124.064 19.7322 123.641 19.8074ZM436.47 15.6325C437.156 15.6373 438.149 15.6436 438.351 15.7954C437.827 15.7689 436.463 15.7429 436.47 15.6325ZM452.188 15.7143C451.382 15.8874 449.3 15.8762 448.183 15.8408C448.113 15.6078 451.408 15.7656 452.188 15.7143ZM405.541 15.3758C405.485 15.3659 403.706 15.2837 403.947 15.4413C404.303 15.6724 406.041 15.4641 405.541 15.3758ZM127.075 19.7695C127.862 19.6163 126.016 19.3928 125.201 19.6977C124.781 19.8533 126.94 19.7947 127.075 19.7695ZM173.145 17.7275C172.103 17.8477 174.697 17.9338 175.06 17.7608C174.576 17.7613 173.513 17.6849 173.145 17.7275ZM208.834 16.6288C205.497 16.2476 207.333 17.0563 207.911 16.9656C207.995 16.9526 208.916 16.6377 208.834 16.6288ZM24.0189 38.5295C23.6269 38.7598 25.2714 38.3445 25.406 38.1264C25.4942 37.9852 24.2731 38.3782 24.0189 38.5295ZM258.454 15.2602C258.313 15.2637 258.174 15.2673 258.037 15.2707C258.14 15.2615 258.275 15.257 258.454 15.2602ZM163.622 17.3877C165.97 17.9762 165.707 17.4736 165.91 17.4699C166.346 17.4633 167.365 17.6112 168.183 17.5568C167.247 17.6601 166.309 17.7639 165.369 17.8683C166.113 17.8907 172.583 17.941 172.712 17.8312C172.902 17.6723 170.872 17.7796 170.812 17.7681C170.726 17.7514 170.395 17.335 170.206 17.3244C169.887 17.3067 164.498 17.4638 163.622 17.3877ZM201.913 16.8831C202.443 16.9202 202.597 17.0851 202.84 17.0385C202.923 17.0225 202.933 16.8613 203.216 16.8123C202.783 16.8359 202.349 16.8595 201.913 16.8831ZM159.488 18.1219C158.824 17.9474 161.773 17.9224 161.867 17.9418C162.375 18.0583 160.031 18.2637 159.488 18.1219ZM184.501 17.3555C184.383 17.347 182.133 17.3448 182.151 17.4537C182.748 17.5208 185.782 17.4658 184.501 17.3555ZM203.575 16.7921C204.385 16.7901 205.898 16.9128 205.718 16.675C205.717 16.675 205.716 16.6751 205.714 16.6751C205.006 16.7141 204.293 16.7531 203.575 16.7921ZM129.744 19.1052C128.259 18.8014 128.978 19.2492 130.283 19.3021C130.667 19.1075 129.987 19.1545 129.744 19.1052ZM125.034 19.0892C124.625 19.0415 120.427 19.3845 121.081 19.5485C121.313 19.6053 123.725 19.2687 123.831 19.2772C124 19.2877 123.246 19.5604 124.527 19.4369C124.447 19.365 125.175 19.1039 125.034 19.0892ZM128.519 18.9261C127.055 18.7154 126.745 19.2764 127.848 19.2142C128.274 19.1907 128.729 18.9567 128.519 18.9261ZM134.477 18.6526C133.949 18.6279 132.555 18.6249 131.593 18.857C132.895 18.8027 134.17 18.7522 135.464 18.7029C135.607 18.5936 134.937 18.6743 134.473 18.6528C134.474 18.6527 134.475 18.6527 134.477 18.6526ZM461.043 14.3564C459.886 14.2013 462.543 14.1457 462.606 14.1828C462.92 14.3081 461.578 14.4259 461.043 14.3564ZM13.9519 37.7238C13.6371 37.8168 13.353 37.7348 12.7847 38.1549C13.4683 37.9604 14.1943 37.7545 14.8772 37.5797C15.2097 37.0333 14.3073 37.6158 13.9519 37.7238ZM10.9594 37.9078C11.0467 37.8515 10.296 37.6619 11.6322 37.3313C12.5002 37.1063 8.43501 39.6458 7.59346 39.9628C8.36093 39.3366 10.2342 38.3784 10.9594 37.9078ZM2.49686 40.6943C2.40873 40.698 3.93764 39.4858 4.13407 39.3965C5.17153 38.8521 2.85752 40.6685 2.49686 40.6943ZM7.58979 37.3543C6.78595 37.7222 8.41607 36.6569 8.97418 36.4137C9.06998 36.4668 7.70485 37.2964 7.58979 37.3543ZM449.183 6.72384C448.296 6.36303 447.481 7.125 448.865 6.97812C448.931 6.97122 449.221 6.74148 449.183 6.72384ZM3.70482 39.1429C4.50245 38.7025 2.8859 39.9255 2.38874 40.2479C2.27516 40.2042 3.57647 39.2068 3.70482 39.1429ZM448.56 5.87228C447.363 5.60951 447.777 6.47165 447.929 6.50716C448.521 6.6474 450.724 6.3215 451.191 6.2398C447.79 6.35141 449.162 5.99615 448.56 5.87228ZM442.873 6.35553C441.759 6.44042 444.599 6.63332 445.221 6.39716C444.625 6.40515 443.172 6.33088 442.873 6.35553ZM435.951 6.03521C435.351 6.00044 433.521 5.91432 433.205 6.04745C433.89 6.02765 435.699 6.17277 435.951 6.03521ZM434.574 5.62055C433.613 5.43021 433.377 5.96426 434.489 5.81225C434.532 5.80636 434.609 5.63101 434.574 5.62055ZM429.161 5.39002C428.54 5.17267 427.821 5.6864 428.834 5.70746C429.134 5.71276 429.227 5.4149 429.161 5.39002ZM447.052 4.93881C446.154 4.84222 444.975 5.20688 446.913 5.25883C446.238 5.31176 445.551 5.36452 444.852 5.41714C447.434 5.64056 447.213 5.12383 447.933 5.1492C448.92 5.18491 448.835 5.60952 448.639 5.74197C449.381 5.48576 453.077 5.50062 455.025 5.45848C453.289 5.34239 450.302 5.13816 448.574 5.05933C448.086 5.03663 447.605 5.15054 447.178 5.13509C446.492 5.10966 447.103 4.94525 447.056 4.93883C447.055 4.93882 447.053 4.93881 447.052 4.93881ZM422.058 5.33221C420.222 5.0778 421.384 5.6071 422.418 5.52155C422.462 5.51471 422.104 5.33843 422.058 5.33221ZM0.61056 39.4917C2.93742 38.0128 1.43764 39.294 5.89125 35.8807C4.07091 37.3953 5.89567 36.1382 5.57582 36.4887C5.3137 36.7667 4.14912 37.4343 4.91025 37.1734C3.89076 37.5083 0.211496 40.3559 0.0665438 40.5096C0.0680208 40.5084 0.0694981 40.5071 0.0709755 40.5059C-0.0352278 40.5707 -0.125585 39.9953 0.61056 39.4917ZM435.951 4.67282C435.346 4.03661 435.103 5.03838 433.887 4.50622C432.309 5.25644 438.225 4.53555 439.071 5.18336C432.412 5.06517 443.49 5.84881 438.82 4.85652C442.673 5.23042 440.084 4.7455 440.68 4.62675C441.319 4.5003 443.416 4.65517 443.306 4.41899C443.305 4.41899 443.304 4.41898 443.303 4.41897C442.033 4.42769 440.727 4.43595 439.387 4.44379C440.712 4.96025 437.904 4.78987 437.052 4.3703C436.687 4.47117 436.32 4.57201 435.951 4.67282ZM443.358 5.19719C443.247 5.18497 440.424 5.2385 440.597 5.34148C441.008 5.40929 444.94 5.35544 443.358 5.19719ZM455.978 5.15127C454.874 5.14597 453.361 5.04019 452.808 5.2291C453.313 5.23209 453.943 5.26 454.501 5.26333C455.134 5.26699 455.693 5.24601 455.978 5.15127ZM403.099 4.77018C401.783 4.91799 405.828 4.99332 404.66 4.79886C404.603 4.78969 403.165 4.76331 403.099 4.77018ZM432.974 4.74832C431.619 4.54585 432.26 5.16518 433.26 5.01176C433.318 5.00271 433.037 4.75755 432.974 4.74832ZM2.33785 38.0831C2.32742 37.8644 5.61688 35.7856 6.22072 35.4568C5.93563 35.7468 2.34669 38.241 2.33785 38.0831ZM457.779 4.59381C456.797 4.31996 455.566 4.3364 454.511 4.41895C453.585 4.50207 452.824 4.65151 452.675 4.64398C452.377 4.62866 452.846 4.39404 452.777 4.38737C452.664 4.37385 449.32 4.37691 449.195 4.39248C449.089 4.40477 449.643 4.74051 449.008 4.84194C450.38 4.66123 456.16 4.80549 456.541 4.76878C456.77 4.74005 455.013 4.38477 457.776 4.5938C457.777 4.5938 457.778 4.5938 457.779 4.59381ZM451.92 4.56789C452.729 4.71131 450.46 4.71774 449.871 4.66304C448.605 4.54127 451.843 4.55122 451.92 4.56789ZM446.497 4.41046C446.257 4.37789 443.837 4.33513 443.66 4.48927C444.786 4.69766 447.092 4.48681 446.497 4.41046ZM420.623 4.25842C420.023 4.27404 418.349 4.14271 418.25 4.27769C418.865 4.26231 420.53 4.39347 420.623 4.25842ZM13.1178 30.4559C12.1087 30.8144 14.3001 29.7099 14.9797 29.468C15.0421 29.5345 13.2133 30.4156 13.1178 30.4559ZM432.754 3.44925C432.296 3.40508 425.173 3.45833 424.043 3.51369C425.151 3.62434 432.202 3.68146 432.633 3.6341C432.731 3.61977 432.8 3.45606 432.754 3.44925ZM448.513 3.48567C449.163 3.28938 449.562 3.53114 449.668 3.53472C450.549 3.57003 452.275 3.53337 451.894 3.72397C450.378 3.63923 447.205 3.87534 448.513 3.48567ZM420.112 3.35053C417.628 3.40693 422.39 3.65151 421.761 3.43812C421.722 3.42522 420.37 3.3446 420.112 3.35053ZM433.58 3.39664C434.123 3.23922 441.45 3.42673 442.577 3.43337C441.549 3.72483 440.713 3.49337 439.277 3.4993C438.889 3.50124 438.992 3.6258 438.95 3.62572C438.274 3.62707 438.781 3.48727 438.363 3.48237C438.062 3.47963 432.844 3.61927 433.58 3.39664ZM448.881 3.34924C449.233 3.2371 453.929 3.21129 454.02 3.24152C455.41 3.4746 449.224 3.39191 448.881 3.34924ZM432.904 3.12725C433.72 2.78676 437.301 3.04256 434.843 3.19863C434.608 3.21275 433.605 3.05593 432.904 3.12725ZM420.379 3.02283C420.262 3.01183 417.657 2.92398 417.604 3.03373C417.995 3.07935 421.767 3.14472 420.379 3.02283ZM421.714 2.6599C421.651 2.6621 422.252 2.8785 421.049 2.84304C420.948 2.83978 420.768 2.59986 419.237 2.67627C418.926 2.69203 418.441 2.84643 418.476 2.85649C420.097 3.24267 424.798 2.55883 421.714 2.6599ZM448.962 3.15631C448.738 3.05436 449.261 2.75822 449.836 2.91264C450.085 2.97932 449.592 3.1562 448.962 3.15631ZM412.189 2.8674C413.702 2.69693 408.953 2.62856 408.703 2.67319C408.853 2.78721 412.046 2.88408 412.189 2.8674ZM14.7849 28.1348C14.7837 28.1353 14.7825 28.1358 14.7814 28.1364C16.0196 27.6246 15.3236 28.1032 15.3843 28.0807C18.0657 27.1399 17.2636 27.1332 17.6463 26.9217C18.4828 26.4759 18.4951 26.9156 19.9257 26.1488C17.556 27.3911 19.7566 26.3746 19.8856 26.4837C20.379 26.9255 16.5133 27.566 15.3616 28.2389C15.2005 28.3288 16.5156 27.9565 16.1081 28.1968C14.7799 28.9608 10.0437 30.1727 14.7849 28.1348ZM450.266 2.88851C450.939 2.71536 455.242 2.90662 454.097 3.04738C453.978 3.07087 449.406 3.14265 450.266 2.88851ZM242.4 2.44151C243.466 2.24897 240.99 2.15944 240.559 2.29982C240.381 2.36626 241.907 2.52579 242.4 2.44151ZM225.154 2.58336C223.867 2.6619 222.59 3.34589 224.139 3.19189C224.311 3.17503 225.304 2.66668 225.154 2.58336ZM308.652 1.51265C307.328 1.28286 307.407 1.70753 308.379 1.70245C308.722 1.70075 308.694 1.51993 308.652 1.51265ZM257.954 1.80729C257.815 1.79429 256.289 1.84496 256.349 1.94178C256.901 1.99114 258.824 1.89626 257.954 1.80729ZM309.073 1.45267C308.287 1.52837 309.639 1.83681 310.606 1.53799C310.115 1.56195 309.154 1.44493 309.073 1.45267ZM430.157 2.17005C429.515 2.33996 427.673 2.27443 426.591 2.29676C426.484 2.07015 429.42 2.20594 430.157 2.17005ZM230.483 2.62661C229.322 2.83703 231.832 2.85658 231.608 2.65518C231.569 2.6458 230.521 2.61837 230.483 2.62661ZM351.438 1.57123C350.564 1.70149 353.336 1.8969 352.574 1.65617C352.536 1.64631 351.486 1.56397 351.438 1.57123ZM363.548 1.71532C362.888 1.66599 360.061 1.66394 361.161 1.80162C361.332 1.82276 363.498 1.83841 363.548 1.71532ZM17.6546 26.7416C17.2155 26.6724 19.2497 25.8827 19.5672 25.803C19.6841 25.7717 18.2128 26.8297 17.6546 26.7416ZM300.036 1.47308C299.349 1.50223 297.584 1.4481 297.276 1.57012C298.102 1.54417 300.26 1.71542 300.036 1.47308ZM235.88 2.35924C234.83 2.16625 233.081 2.2779 233.531 2.58519C235.432 2.46559 233.269 2.30575 235.88 2.35924ZM313.514 1.18742C312.973 1.16728 312.539 1.48298 312.604 1.49798C313.212 1.64071 314.052 1.31141 313.514 1.18742ZM272.18 1.53026C272.143 1.39518 270.36 1.47019 270.6 1.55543C270.675 1.58393 272.205 1.63939 272.18 1.53026ZM407.088 1.92881C406.299 1.79976 408.704 1.69632 409.464 1.84583C409.804 2.05585 407.187 1.94368 407.088 1.92881ZM328.76 1.3052C328.841 1.10476 326.079 1.20934 327.167 1.37912C327.438 1.42157 328.73 1.37217 328.76 1.3052ZM355.144 1.18074C353.293 1.4099 361.057 1.62202 359.018 1.31277C358.871 1.29062 355.304 1.16129 355.144 1.18074ZM367.819 1.40211C367.499 1.37384 367.663 0.700599 368.984 0.96856C369.158 1.00332 368.345 1.17663 368.486 1.21825C368.571 1.24194 371.441 1.35415 371.572 1.33926C371.714 1.32227 371.548 1.10516 371.692 1.08181C371.855 1.05572 373.616 1.25647 374.535 1.26435C376.276 1.2789 376.475 1.10037 376.617 1.10067C377.035 1.10214 377.737 1.23434 378.582 1.23964C382.814 1.26537 389.37 1.15716 392.697 1.56156C389.717 1.38787 386.868 1.53099 383.848 1.56091C384.719 1.19121 379.48 1.82134 382.546 1.40836C381.147 1.49234 368.868 1.48988 367.823 1.40213C367.821 1.40213 367.82 1.40212 367.819 1.40211ZM220.16 2.56657C220.908 2.3128 216.991 2.48874 216.632 2.76472C217.18 2.78586 220.064 2.59644 220.16 2.56657ZM238.315 1.21252C238.672 1.15529 239.083 0.6775 241.116 0.821898C241.118 0.821829 241.12 0.821759 241.121 0.82169C241.677 0.866172 241.051 1.00089 241.154 1.03589C241.182 1.04996 242.955 1.20639 241.495 1.29833C240.429 1.36836 240.303 1.29175 240.399 1.19598C240.484 1.10114 240.712 0.992176 240.041 1.01919C239.838 1.02447 237.509 1.38701 237.674 1.43451C237.684 1.43984 238.36 1.35141 238.481 1.3678C238.923 1.4288 238.717 1.58008 238.779 1.58359C238.859 1.58788 239.933 1.47925 240.942 1.40684C241.879 1.33641 242.943 1.29151 243.222 1.38666C243.306 1.41633 241.925 1.51519 240.58 1.61485C238.957 1.72462 237.5 1.83959 237.213 1.84753C237.19 1.84812 237.173 1.84802 237.165 1.84717C237.027 1.83323 237.062 1.44049 236.918 1.41055C236.863 1.39655 234.559 1.67075 234.225 1.6502C234.137 1.64431 234.074 1.63638 234.025 1.62963C234.381 1.7331 232.308 1.8272 232.355 1.68763C232.395 1.63267 233.831 1.59327 233.876 1.5998C233.898 1.60264 233.918 1.60711 233.936 1.60996C233.675 1.51846 236.249 1.35754 237.175 1.21131C237.555 1.15436 237.727 1.10122 237.43 1.05672C238.849 0.857463 237.234 1.38798 238.315 1.21252ZM245.499 0.692282C245.354 0.737547 245.211 0.782845 245.069 0.828173C247.533 0.652952 250.567 0.780005 253.533 0.724237C254.308 0.710059 253.408 0.475343 254.433 0.525634C255.227 0.566562 256.044 0.786095 255.638 0.844617C255.588 0.851924 255.175 0.824074 254.686 0.798233C254.145 0.773261 253.523 0.750597 253.114 0.766102C250.72 0.858496 251.352 1.06259 251.207 1.07095C251.029 1.08062 249.682 0.958107 248.781 0.986725C246.579 1.0594 245.966 1.20328 242.928 1.13301C244.565 0.935691 243.793 0.65235 245.499 0.692282ZM340.406 0.741271C340.502 0.606262 342.161 0.733662 342.765 0.716522C342.669 0.85181 341.008 0.723948 340.406 0.741271ZM92.1348 8.0607C91.6417 8.33917 95.5494 7.94493 94.5002 7.87959C94.2865 7.8614 92.6229 8.00289 92.1348 8.0607ZM109.56 6.49084C110.07 6.38775 107.983 6.39663 108.004 6.56835C108.01 6.62272 109.493 6.50379 109.56 6.49084ZM278.507 0.461783C278.603 0.454255 280.036 0.49674 280.083 0.507897C281.027 0.738966 276.329 0.626341 278.507 0.461783ZM130.6 4.83146C128.811 5.07235 134.221 4.84925 132.561 4.75092C132.483 4.74554 130.685 4.8194 130.6 4.83146ZM138.104 4.41249C137.679 4.43995 135.76 4.46049 135.739 4.52977C135.706 4.64045 137.899 4.60926 138.104 4.41249ZM313.883 0.348651C313.678 0.0978785 316.166 0.291958 317.039 0.262373C317.244 0.513272 314.744 0.318393 313.883 0.348651ZM298.057 0.154482C308.648 -0.0441551 306.275 0.489405 297.435 0.276864C297.423 0.116267 297.397 0.167344 298.057 0.154482ZM311.588 0.190144C311.201 0.349963 309.994 0.300808 309.183 0.287096C309.328 0.175702 310.998 0.218076 311.588 0.190144ZM87.4813 8.30117C87.8155 8.15041 88.7905 8.0402 89.5793 7.99299C90.2918 7.95101 90.8514 7.9613 90.6039 8.03215C90.5613 8.04391 90.127 8.09704 89.6 8.15568C88.6237 8.26404 87.3322 8.39327 87.4813 8.30117ZM279.404 0.243056C279.165 0.000434875 282.35 0.0854235 282.575 0.138964C283.544 0.35236 279.699 0.187344 279.404 0.243056ZM328.867 0.172813C329.431 -0.0160446 331.026 0.0875387 332.042 0.0937853C331.578 0.255146 329.742 0.179122 328.867 0.172813ZM321.493 0.00145817C321.563 -0.00570869 322.975 0.0152922 323.04 0.0242767C324.204 0.213673 320.182 0.155226 321.493 0.00145817ZM12.3068 27.2632C12.3479 27.2354 13.4103 26.7539 13.4528 26.7438C14.472 26.4712 11.291 27.9144 12.3068 27.2632Z" fill="#FFA600"/>
</svg>
