<svg width="24" height="24" viewBox="0 0 24 24" fill="none" xmlns="http://www.w3.org/2000/svg">
<path d="M21.6093 23.9994H2.38984C2.35796 23.9802 2.32405 23.9646 2.28874 23.9529C0.899094 23.6527 0.000188458 22.5446 0.000126461 21.1274C-0.000141252 15.0184 1.60882e-05 8.9094 0.000598482 2.80037C0.00103871 2.058 0.296209 1.34617 0.821269 0.821234C1.34633 0.296299 2.05834 0.00119413 2.80089 0.000745291C8.93353 -0.000741944 15.0662 -3.33543e-06 21.1988 0.00296112C22.2311 0.00392464 23.0363 0.466083 23.572 1.34214C23.7663 1.65982 23.8603 2.03884 24 2.38988V21.6088C23.9804 21.6485 23.964 21.6897 23.951 21.7321C23.7337 22.6893 23.1835 23.3776 22.2841 23.7743C22.0681 23.8695 21.8347 23.9254 21.6093 23.9994ZM12.0002 22.1253C15.0154 22.1253 18.0306 22.1252 21.0458 22.1251C21.7513 22.125 22.1256 21.7481 22.1256 21.0377C22.1259 15.0153 22.1259 8.99295 22.1257 2.97055C22.1256 2.24454 21.7558 1.87353 21.0324 1.8735C15.0099 1.8733 8.9873 1.8733 2.96473 1.87351C2.2418 1.87353 1.87346 2.24446 1.87344 2.97214C1.87326 8.98673 1.87325 15.0013 1.87341 21.0159C1.87343 21.7584 2.23854 22.1251 2.97806 22.1252C5.98544 22.1254 8.99282 22.1254 12.0002 22.1253Z" fill="#F6F6F6"/>
<path d="M9.58008 9.24592H12.7452V10.6302C12.8835 10.4512 12.982 10.3055 13.0985 10.1761C13.7449 9.45793 14.578 9.12746 15.52 9.05589C16.1127 9.00762 16.7092 9.05842 17.2851 9.20621C18.5305 9.53117 19.2564 10.3666 19.5329 11.5876C19.6737 12.1871 19.7519 12.7996 19.7664 13.4153C19.7953 15.5001 19.7792 17.5855 19.7798 19.6707C19.7798 19.716 19.775 19.7612 19.772 19.8154H16.5475C16.5475 19.7311 16.5475 19.6486 16.5475 19.5661C16.5475 17.9495 16.5581 16.3328 16.5414 14.7164C16.5427 14.1944 16.497 13.6733 16.405 13.1595C16.2052 12.1268 15.475 11.7566 14.5036 11.879C13.5364 12.0009 13.008 12.539 12.8458 13.5365C12.7861 13.9061 12.7551 14.2797 12.753 14.654C12.7432 16.2862 12.7488 17.9184 12.7488 19.5507V19.8144H9.58008V9.24592Z" fill="#F6F6F6"/>
<path d="M4.23474 9.24582H7.48695V19.8079H4.23474V9.24582Z" fill="#F6F6F6"/>
<path d="M7.82637 5.86453C7.82511 6.2446 7.71108 6.61574 7.49872 6.93098C7.28635 7.24622 6.98521 7.49137 6.6334 7.6354C6.2816 7.77943 5.89495 7.81586 5.52243 7.74008C5.1499 7.6643 4.80824 7.47972 4.5407 7.2097C4.27317 6.93968 4.09179 6.59637 4.01952 6.22323C3.94726 5.8501 3.98736 5.46392 4.13476 5.11358C4.28215 4.76325 4.53021 4.46451 4.84753 4.2552C5.16484 4.04589 5.53714 3.93541 5.9173 3.93776C6.16939 3.93825 6.41891 3.98855 6.65149 4.08578C6.88408 4.18301 7.09515 4.32524 7.27256 4.5043C7.44997 4.68336 7.59023 4.89571 7.68528 5.12915C7.78032 5.36259 7.82827 5.61251 7.82637 5.86453Z" fill="#F6F6F6"/>
</svg>
