<svg width="72" height="72" viewBox="0 0 72 72" fill="none" xmlns="http://www.w3.org/2000/svg">
<path d="M44.9693 19.3525C45.4411 19.3525 45.7875 19.3525 46.1338 19.3525C52.6689 19.3525 59.204 19.3533 65.7391 19.3548C68.7053 19.3581 70.8731 20.7924 71.6885 23.3255C71.8809 23.9363 71.9794 24.5727 71.9807 25.213C72.0019 31.322 72.0056 37.4311 71.9919 43.5402C71.9891 46.8295 69.6613 49.279 66.3732 49.4722C64.9816 49.554 64.5174 50.0251 64.507 51.4176C64.4943 53.1055 64.5124 54.7937 64.5002 56.4816C64.4891 58.014 63.864 59.0184 62.6662 59.4815C61.4582 59.9484 60.3063 59.6193 59.2806 58.5068C57.1926 56.2419 55.0843 53.9952 53.0281 51.7018C52.404 50.9668 51.6211 50.3831 50.7385 49.9949C49.8559 49.6066 48.8967 49.4239 47.9332 49.4606C43.086 49.5148 38.2379 49.4792 33.3901 49.4775C29.445 49.4761 27.0278 47.0643 27.0259 43.1276C27.024 39.1084 27.0238 35.0893 27.0255 31.0702V30.1159C24.9768 30.0666 22.9876 29.8823 21.1168 30.6973C20.4651 31.0009 19.8792 31.4292 19.3923 31.958C17.089 34.3881 14.8439 36.8732 12.5543 39.3164C11.1544 40.8101 8.94585 40.6872 7.96782 39.0273C7.67494 38.4617 7.52128 37.8343 7.5196 37.1974C7.45978 35.5383 7.50293 33.8756 7.49746 32.2144C7.4924 30.6774 7.03718 30.1897 5.53171 30.0866C2.25557 29.8623 0.00545264 27.4655 0.00313408 24.1816C-0.00114668 18.0993 -0.0010422 12.017 0.00344751 5.93469C0.00645091 2.55362 2.48657 0.0184091 5.86637 0.0131172C16.9277 -0.00420332 27.9891 -0.00437077 39.0504 0.0126149C42.4547 0.0177458 44.944 2.54912 44.9634 5.99408C44.9866 10.0935 44.9691 14.1931 44.9693 18.2926C44.9693 18.6091 44.9693 18.9256 44.9693 19.3525ZM61.6651 57.1265L61.8927 57.0051C61.8927 55.1623 61.8928 53.3194 61.8931 51.4766C61.8969 48.7092 63.4158 47.0589 66.1479 46.8489C68.2591 46.6866 69.4234 45.4661 69.4257 43.3734C69.4324 37.3993 69.4324 31.4253 69.4257 25.4512C69.4232 23.2856 68.1378 21.9887 65.9907 21.9877C55.0116 21.9829 44.0324 21.9837 33.0533 21.9901C32.6801 21.9785 32.307 22.0175 31.9442 22.1061C30.4572 22.5258 29.6583 23.6958 29.656 25.4648C29.6481 31.3317 29.6472 37.1986 29.6532 43.0655C29.654 45.6994 30.7897 46.8434 33.4044 46.8446C38.1709 46.8466 42.9378 46.8793 47.7039 46.8327C50.6754 46.8037 53.0983 47.833 55.0697 50.0805C57.0471 52.3349 59.1226 54.5032 61.1601 56.7046C61.3189 56.8563 61.4876 56.9972 61.6651 57.1265ZM42.2726 19.3525C42.301 19.2066 42.3215 19.0593 42.334 18.9112C42.3357 14.5458 42.3351 10.1805 42.3322 5.81511C42.3304 4.62481 41.8427 3.6413 40.7879 3.09948C40.1686 2.79267 39.4873 2.63147 38.7962 2.62819C27.9006 2.60017 17.005 2.59449 6.10925 2.61115C5.8418 2.61372 5.57488 2.63549 5.31054 2.6763C4.68201 2.75115 4.09247 3.02015 3.62402 3.44584C3.15558 3.87153 2.83155 4.43272 2.69707 5.05124C2.61548 5.38841 2.57372 5.73398 2.57263 6.08087C2.56532 12.08 2.56447 18.0791 2.57009 24.0782C2.5726 26.0805 3.84872 27.4447 5.72993 27.4977C8.39254 27.5727 10.094 29.3231 10.1036 32.0064C10.1095 33.6401 10.102 35.2738 10.1076 36.9074C10.1086 37.1832 10.1461 37.4588 10.1843 37.9699C10.5542 37.6134 10.7639 37.4301 10.9521 37.2268C13.026 34.9873 15.0686 32.7178 17.1831 30.5174C17.9244 29.7499 18.758 29.0773 19.6648 28.5149C20.9143 27.7398 22.3474 27.4924 23.8172 27.4978C24.8755 27.5017 25.9338 27.4985 27.0281 27.4985C27.0281 26.6207 27.0106 25.8716 27.0312 25.1235C27.116 22.0508 29.3015 19.6361 32.3576 19.426C34.4097 19.285 36.4773 19.3657 38.538 19.3538C39.7641 19.3467 40.9904 19.3525 42.2726 19.3525Z" fill="white"/>
<path d="M8.83229 54.8869C5.48659 50.0608 7.48959 45.3523 10.1102 43.2349C13.3591 40.6099 17.9037 40.6708 20.9192 43.4176C23.528 45.794 25.2186 50.547 22.0524 54.8077C23.0848 55.5442 24.1729 56.2145 25.1389 57.0297C27.8556 59.3224 29.4783 62.2791 30.1607 65.7533C30.5609 67.7914 29.1249 69.615 27.0403 69.6224C19.305 69.6498 11.5696 69.6504 3.83413 69.624C1.66292 69.6171 0.271148 67.7769 0.721634 65.6297C1.7081 60.9276 4.28586 57.4022 8.51358 55.0989C8.62503 55.0382 8.72599 54.9582 8.83229 54.8869ZM15.3751 67.0444C19.15 67.0444 22.9249 67.0436 26.6998 67.0421C27.5282 67.0409 27.7123 66.8126 27.5451 66.0295C26.6574 61.8712 24.2631 58.9003 20.429 57.1059C20.0241 56.9557 19.5766 56.969 19.1814 57.143C16.6384 58.3343 14.1369 58.3199 11.6023 57.1129C11.2 56.9551 10.7519 56.9619 10.3546 57.1319C6.61673 58.9035 4.2463 61.8012 3.3459 65.8623C3.11836 66.8886 3.25101 67.0433 4.29138 67.0438C7.98595 67.0458 11.6805 67.046 15.3751 67.0444ZM9.754 49.669C9.74317 51.1834 10.3322 52.6404 11.3924 53.7218C12.4527 54.8031 13.8978 55.4209 15.4121 55.4399C18.5231 55.4525 21.0851 52.8586 21.0909 49.6904C21.1031 48.9392 20.9657 48.1931 20.687 47.4955C20.4083 46.7978 19.9936 46.1625 19.4672 45.6265C18.9408 45.0905 18.3131 44.6645 17.6206 44.3733C16.9281 44.082 16.1846 43.9313 15.4333 43.9298C14.682 43.9284 13.938 44.0764 13.2444 44.365C12.5508 44.6537 11.9215 45.0773 11.393 45.6113C10.8646 46.1453 10.4476 46.7791 10.1662 47.4757C9.88482 48.1722 9.74471 48.9178 9.754 49.669Z" fill="white"/>
<path d="M42.6777 61.6912C40.9592 58.5738 42.1749 55.7554 43.9539 54.3342C44.9185 53.5784 46.1039 53.1591 47.3291 53.1401C48.5543 53.1211 49.7521 53.5035 50.7396 54.2291C53.012 55.9437 53.5227 58.5311 52.1855 61.6779C54.0074 62.8215 55.4415 64.4886 56.2999 66.461C56.5966 67.0874 56.7882 67.7584 56.8671 68.4471C57.0263 70.1807 56.0572 71.3206 54.3172 71.3385C49.658 71.3865 44.9984 71.3868 40.3384 71.3393C38.6715 71.3249 37.6396 69.8079 38.0057 68.025C38.5232 65.505 40.0395 63.6521 42.033 62.1346C42.223 61.99 42.4265 61.8632 42.6777 61.6912ZM54.2647 68.702C53.7824 66.4802 52.5714 64.9058 50.6556 63.8866C50.3079 63.7349 49.9156 63.7212 49.5581 63.8481C48.312 64.3169 47.0299 64.5431 45.8135 63.9852C44.782 63.5121 43.9904 63.75 43.2936 64.4452C42.538 65.1901 41.8482 65.9989 41.232 66.8626C40.884 67.3575 40.769 68.0165 40.5114 68.702H54.2647ZM50.3365 58.6659C50.3359 58.2795 50.2586 57.897 50.1092 57.5406C49.9597 57.1843 49.741 56.8611 49.4658 56.5898C49.1906 56.3185 48.8643 56.1045 48.5058 55.9602C48.1473 55.8159 47.7638 55.7442 47.3774 55.7491C46.991 55.7541 46.6094 55.8356 46.2547 55.989C45.9 56.1425 45.5793 56.3647 45.3111 56.643C45.043 56.9212 44.8326 57.2499 44.6923 57.61C44.5521 57.97 44.4846 58.3544 44.4939 58.7407C44.4905 59.1297 44.5648 59.5155 44.7125 59.8754C44.8602 60.2353 45.0783 60.5621 45.3539 60.8366C45.6296 61.1111 45.9573 61.3278 46.3178 61.474C46.6783 61.6202 47.0644 61.693 47.4534 61.688C47.8424 61.683 48.2265 61.6004 48.5831 61.445C48.9398 61.2896 49.2618 61.0646 49.5304 60.7831C49.7989 60.5017 50.0085 60.1694 50.147 59.8058C50.2854 59.4423 50.3499 59.0547 50.3365 58.6659Z" fill="white"/>
<path d="M49.5782 31.0105C45.2709 31.0105 40.9637 31.0098 36.6565 31.0086C35.5832 31.0074 34.908 30.3166 35.1287 29.4519C35.1789 29.1574 35.3353 28.8916 35.5682 28.7046C35.8012 28.5176 36.0946 28.4225 36.3929 28.4371C37.1686 28.4287 37.9445 28.4294 38.7203 28.4294C46.4519 28.4289 54.1835 28.429 61.9151 28.4297C62.2093 28.4195 62.5037 28.426 62.7971 28.4493C63.5112 28.5315 63.8963 28.9618 63.9471 29.6652C63.9668 29.9896 63.8606 30.3092 63.6507 30.5573C63.4408 30.8055 63.1433 30.9632 62.8201 30.9977C62.5802 31.0174 62.3391 31.0216 62.0986 31.0102C57.9251 31.0107 53.7517 31.0108 49.5782 31.0105Z" fill="white"/>
<path d="M45.0013 40.4111C42.3516 40.411 39.7018 40.4102 37.0521 40.4084C36.7315 40.4156 36.4108 40.3948 36.0937 40.3463C35.4853 40.2374 35.0863 39.7869 35.1289 39.2366C35.1627 38.7998 35.4907 38.333 35.8088 37.9922C35.9829 37.8056 36.4071 37.8024 36.7187 37.8018C42.2055 37.7915 47.6923 37.7975 53.1791 37.7904C53.8436 37.7896 54.4104 37.9438 54.7062 38.5938C55.1038 39.4675 54.4919 40.3617 53.4319 40.3961C52.1752 40.4368 50.9164 40.4101 49.6584 40.4109C48.1061 40.4119 46.5537 40.4119 45.0013 40.4111Z" fill="white"/>
<path d="M21.6221 9.00467C25.8503 9.00458 30.0786 8.99795 34.3068 9.01577C34.6902 9.01739 35.2078 9.05387 35.4235 9.29166C35.7237 9.62267 36.0018 10.2073 35.9105 10.594C35.8201 10.977 35.2932 11.3045 34.8919 11.5474C34.6729 11.68 34.3172 11.5944 34.0232 11.5944C25.7005 11.5958 17.3777 11.5961 9.05502 11.5954C8.89446 11.5954 8.73377 11.5987 8.57335 11.5936C7.62705 11.5638 7.06947 11.0734 7.08323 10.2858C7.09678 9.5094 7.67704 9.00879 8.61614 9.00747C12.9514 9.00138 17.2867 9.00044 21.6221 9.00467Z" fill="white"/>
<path d="M13.9528 21.0203C12.2127 21.0204 10.4726 21.0256 8.7325 21.0183C7.74619 21.0141 7.12278 20.5168 7.09699 19.7401C7.071 18.9576 7.67803 18.4002 8.66369 18.3957C12.1706 18.3799 15.6775 18.3795 19.1845 18.3946C20.2119 18.3988 20.7595 18.8908 20.7549 19.7126C20.7503 20.5381 20.1894 21.0127 19.173 21.0178C17.433 21.0267 15.6929 21.0203 13.9528 21.0203Z" fill="white"/>
</svg>
