<svg width="72" height="67" viewBox="0 0 72 67" fill="none" xmlns="http://www.w3.org/2000/svg">
<path d="M52.766 55.6929C55.7889 57.8281 57.7191 60.5732 58.4375 64.1572C58.4719 64.3288 58.7966 64.5495 58.9973 64.5615C59.7912 64.6089 60.5897 64.5762 61.3863 64.5851C61.964 64.5915 62.4572 64.7561 62.4484 65.4501C62.4399 66.1265 61.9842 66.3045 61.3841 66.3038C56.4793 66.2987 51.5744 66.2989 46.6696 66.3045C46.0763 66.3053 45.621 66.1504 45.5712 65.477C45.529 64.9062 45.9173 64.5935 46.6893 64.5864C48.1038 64.5733 49.5185 64.5827 51.0324 64.5827C50.9675 64.3728 50.8876 64.1678 50.7933 63.9694C49.8019 62.2883 48.3587 61.2314 46.3837 61.2195C39.4625 61.1776 32.5411 61.1766 25.6194 61.2167C23.6702 61.2264 22.2417 62.2502 21.2353 63.886C21.1598 64.0145 21.097 64.15 21.0477 64.2907C21.0306 64.3867 21.0249 64.4844 21.0307 64.5817C22.3602 64.5817 23.6748 64.5785 24.9894 64.5844C25.2615 64.5856 25.596 64.529 25.7905 64.6618C26.0599 64.8457 26.413 65.2052 26.3851 65.4503C26.351 65.751 25.9733 66.0239 25.7153 66.2797C25.6506 66.3439 25.4755 66.3004 25.3512 66.3004C20.4464 66.301 15.5415 66.3086 10.6368 66.2836C10.2775 66.2782 9.93449 66.1329 9.68063 65.8786C9.24334 65.346 9.66819 64.6385 10.4413 64.5982C11.2857 64.5541 12.1358 64.614 12.9789 64.5594C13.1914 64.5456 13.5287 64.2974 13.5689 64.1066C14.3025 60.6199 16.1536 57.9005 19.1222 55.9482C19.2084 55.8697 19.2881 55.7843 19.3605 55.6929H18.4802C14.0484 55.6929 9.61662 55.6928 5.18483 55.6924C1.98098 55.6911 0.000960746 53.7281 0.000752535 50.5509C-0.000244264 35.4165 -0.000250802 20.2821 0.000732921 5.14774C0.000935097 1.95272 1.96211 0.000368774 5.16821 0.000302388C25.7337 -0.000124093 46.2992 -9.94497e-05 66.8648 0.000376318C70.024 0.000463827 71.9987 1.96282 71.999 5.10737C72.0003 20.2667 72.0003 35.426 71.999 50.5853C71.9987 53.7135 70.006 55.6905 66.8546 55.6922C62.4228 55.6947 57.991 55.695 53.5592 55.6929C53.2948 55.6929 53.0304 55.6929 52.766 55.6929ZM36.0005 53.9609V53.9489C44.3162 53.9489 52.632 53.9488 60.9477 53.9486C63.1136 53.9485 65.2799 53.9727 67.4451 53.9329C68.0731 53.9163 68.6785 53.6955 69.1697 53.3039C69.6608 52.9123 70.011 52.3712 70.167 51.7627C70.2679 51.2501 70.3085 50.7275 70.2879 50.2055C70.2938 35.4695 70.2948 20.7335 70.2911 5.99751C70.291 5.47531 70.2973 4.95034 70.2491 4.43146C70.201 3.83207 69.9692 3.2621 69.5853 2.79927C69.2014 2.33644 68.6841 2.00327 68.1039 1.84519C67.6421 1.74658 67.1697 1.70594 66.6978 1.7242C46.232 1.71873 25.7663 1.71769 5.3006 1.72109C4.97708 1.71709 4.65358 1.7305 4.3315 1.76126C3.68512 1.83891 3.08273 2.12866 2.61859 2.58517C2.15445 3.04169 1.85475 3.6392 1.7664 4.28419C1.72416 4.65496 1.70518 5.02801 1.70959 5.40116C1.7069 20.3612 1.70676 35.3212 1.70916 50.2812C1.70506 50.6295 1.72056 50.9777 1.75557 51.3242C1.89561 52.5597 2.83816 53.6391 4.03819 53.8806C4.50563 53.9525 4.979 53.9785 5.4515 53.958C15.6345 53.9618 25.8175 53.9628 36.0005 53.9609ZM15.2745 64.5732C16.4728 64.5732 17.6609 64.5885 18.8475 64.5529C18.9881 64.5487 19.173 64.2883 19.2485 64.1092C20.5393 61.0494 22.9062 59.4556 26.2045 59.4543C32.6263 59.4519 39.0481 59.4693 45.4698 59.4473C48.9498 59.4354 51.4198 60.9138 52.7706 64.1693C52.8405 64.3376 53.0593 64.555 53.2141 64.5594C54.3771 64.5922 55.5415 64.5773 56.7715 64.5773C56.6784 64.1729 56.6223 63.8591 56.5337 63.5548C55.1575 58.8284 51.0486 55.7097 46.1275 55.6974C39.5315 55.6808 32.9355 55.6815 26.3395 55.6995C25.5944 55.7018 24.8503 55.7516 24.1115 55.8486C19.7756 56.413 15.9086 60.2079 15.2745 64.5732Z" fill="white"/>
<path d="M36.03 4.80906C45.9137 4.80906 55.7974 4.80915 65.681 4.80932C66.9732 4.80938 67.1936 5.03113 67.1936 6.32873C67.1939 20.6656 67.1939 35.0024 67.1936 49.3392C67.1936 50.652 66.9781 50.8749 65.6941 50.8749C45.9018 50.8756 26.1096 50.8756 6.31731 50.875C5.02325 50.8749 4.80587 50.6543 4.80585 49.3522C4.80557 35.0154 4.80556 20.6786 4.80583 6.34173C4.80585 5.01121 5.01327 4.80923 6.37893 4.8092C16.2626 4.80894 26.1463 4.80889 36.03 4.80906ZM65.4215 6.59901H6.60357V49.0909H65.4215V6.59901Z" fill="white"/>
<path d="M28.2795 27.7669C28.9886 28.0518 29.6229 28.2551 30.2108 28.5507C35.4458 31.1825 38.349 35.3837 38.7024 41.2729C38.7739 42.4637 38.5355 42.6935 37.3668 42.6937C28.5277 42.6948 19.6886 42.6947 10.8494 42.6936C9.72546 42.6934 9.48705 42.4423 9.52605 41.3249C9.62402 38.4097 10.5931 35.5906 12.3084 33.2313C14.0237 30.872 16.4064 29.0807 19.1494 28.0884C19.3793 28.0049 19.6094 27.9221 19.9694 27.792C17.3286 25.9264 15.9466 23.4724 16.192 20.287C16.3596 18.1129 17.3274 16.2823 19.0076 14.8741C20.5832 13.5409 22.6176 12.8765 24.6763 13.0227C26.7351 13.1689 28.6551 14.1141 30.0265 15.6566C31.644 17.485 32.3217 19.63 31.9804 22.073C31.6402 24.508 30.337 26.3315 28.2795 27.7669ZM36.939 40.9051C36.6979 34.8006 31.183 28.4636 23.2701 28.9569C15.8353 29.4204 11.36 35.8218 11.3298 40.9051H36.939ZM24.1471 14.743C22.9176 14.7373 21.7139 15.0959 20.688 15.7736C19.6621 16.4512 18.8599 17.4176 18.3827 18.5507C17.9054 19.6838 17.7745 20.9329 18.0064 22.1403C18.2383 23.3478 18.8227 24.4595 19.6857 25.3352C20.5488 26.2108 21.6519 26.8113 22.8559 27.0606C24.0599 27.31 25.3107 27.1972 26.4506 26.7364C27.5905 26.2756 28.5684 25.4875 29.2609 24.4715C29.9533 23.4556 30.3293 22.2572 30.3414 21.0278C30.3592 17.5231 27.6301 14.7542 24.1471 14.743Z" fill="white"/>
<path d="M40.4044 24.7643C39.663 24.7643 39.0207 24.7793 38.3794 24.7612C37.0691 24.7242 36.2935 23.9573 36.2889 22.652C36.2765 19.0945 36.2767 15.5371 36.2896 11.9795C36.2943 10.7399 37.0156 10.0012 38.2568 9.89584C38.4299 9.88114 38.6049 9.88762 38.7791 9.88761C45.6468 9.88727 52.5146 9.87909 59.3823 9.90294C59.9481 9.90623 60.5064 10.032 61.019 10.2715C61.6774 10.5886 61.8949 11.2568 61.8957 11.97C61.8998 15.5274 61.9149 19.0851 61.8901 22.6424C61.8804 24.0274 61.0793 24.7583 59.652 24.7619C56.0689 24.771 52.4855 24.7514 48.9026 24.7842C48.4724 24.8003 48.058 24.9512 47.7181 25.2154C45.8819 26.7021 44.0855 28.2378 42.2706 29.7508C41.877 30.0789 41.4319 30.6024 40.9234 30.189C40.6107 29.9349 40.4477 29.3541 40.427 28.9102C40.3645 27.571 40.4044 26.2271 40.4044 24.7643ZM42.1194 27.6374C43.8459 26.1917 45.4044 24.8419 47.0207 23.5654C47.4433 23.2435 47.9548 23.0596 48.4855 23.0388C52.1424 22.9952 55.8001 23.0035 59.4573 23.0271C60.0427 23.0308 60.2236 22.8706 60.2184 22.2707C60.1898 18.9875 60.1896 15.7041 60.2176 12.4206C60.2227 11.8058 60.0497 11.6133 59.4236 11.6182C55.8908 11.6456 52.3577 11.6314 48.8247 11.6314C45.4659 11.6314 42.107 11.6415 38.7483 11.6213C38.1981 11.618 37.9461 11.7234 37.9511 12.35C37.9778 15.683 37.9728 19.0164 37.9546 22.3495C37.9517 22.8789 38.1381 23.0455 38.6508 23.024C39.4455 22.9906 40.243 23.0029 41.0389 23.0194C41.8177 23.0356 42.1104 23.3366 42.117 24.1167C42.1266 25.231 42.1194 26.3454 42.1194 27.6374Z" fill="white"/>
<path d="M42.2535 18.1983C41.9561 18.1983 41.6043 18.2987 41.3742 18.1742C41.0472 17.9973 40.6024 17.6626 40.5919 17.3812C40.5814 17.0961 40.997 16.6048 41.2992 16.5387C41.93 16.4054 42.5816 16.4031 43.2133 16.5321C43.5224 16.5963 43.9165 17.0342 43.9717 17.3548C44.0544 17.835 43.6701 18.1637 43.1458 18.1973C42.8495 18.2163 42.551 18.2007 42.2535 18.2007V18.1983Z" fill="white"/>
<path d="M49.0572 18.1978C48.7601 18.1982 48.4066 18.2997 48.1793 18.1738C47.8583 17.9958 47.4642 17.6757 47.4157 17.367C47.3773 17.1223 47.7754 16.6049 48.0426 16.5566C48.7263 16.4554 49.4204 16.4451 50.1069 16.5261C50.5812 16.5685 50.911 16.9519 50.7618 17.4164C50.6629 17.724 50.3192 18.0245 50.0105 18.1716C49.7482 18.2965 49.3791 18.1974 49.0572 18.1978Z" fill="white"/>
<path d="M55.88 18.1991C55.5829 18.1991 55.23 18.3003 55.0022 18.1747C54.6807 17.9975 54.2865 17.6795 54.2359 17.3706C54.196 17.1272 54.5923 16.6071 54.8578 16.5592C55.5381 16.4384 56.2341 16.4357 56.9152 16.5514C57.1932 16.5995 57.6134 17.0989 57.5818 17.3431C57.5417 17.654 57.1533 17.9974 56.8311 18.1696C56.5808 18.3034 56.2018 18.1963 55.88 18.1963L55.88 18.1991Z" fill="white"/>
</svg>
