<svg width="31" height="31" viewBox="0 0 31 31" fill="none" xmlns="http://www.w3.org/2000/svg">
<path d="M11.9994 3.48536C12.2772 3.29403 12.5454 3.08631 12.8353 2.9153C13.2376 2.66922 13.6967 2.53151 14.1682 2.51557C15.1954 2.49567 16.2254 2.46977 17.2503 2.52349C18.3276 2.57996 19.1488 3.42686 19.2423 4.49992C19.2843 4.98086 19.2841 5.46655 19.282 5.94998C19.2774 6.98555 19.2934 8.02293 19.2373 9.05607C19.1783 10.1436 18.3224 10.9747 17.2352 11.035C16.3985 11.0813 15.5586 11.0715 14.6473 11.0879C14.5193 11.6456 14.3459 12.2315 14.2545 12.8299C13.9507 14.8194 13.9677 16.8075 14.3895 18.7825C14.4634 19.1063 14.5573 19.4251 14.6708 19.7372C14.6907 19.7946 14.8146 19.8467 14.8918 19.8486C15.6852 19.8686 16.4809 19.8464 17.2719 19.8978C18.2568 19.9618 19.0208 20.6843 19.1951 21.6553C19.2294 21.8643 19.2455 22.0758 19.243 22.2876C19.2458 23.5126 19.2445 24.7376 19.2392 25.9627C19.237 26.4995 19.1469 27.0156 18.8302 27.4684C18.4268 28.0453 17.858 28.3683 17.1713 28.4001C16.1534 28.4471 15.1339 28.457 14.113 28.4296C13.4339 28.4114 12.8267 28.127 12.2871 27.7105C12.2494 27.6871 12.2094 27.6676 12.1677 27.6524L11.4935 26.9782C11.4724 26.9305 11.4468 26.8849 11.4169 26.8422C10.9438 26.2724 10.5456 25.6443 10.2321 24.9733C9.22406 22.8756 8.63778 20.6542 8.36289 18.3527C7.97986 15.1895 8.23395 11.9821 9.11016 8.91946C9.52183 7.46984 10.085 6.08005 10.9125 4.8114C11.1178 4.49669 11.3581 4.20482 11.5823 3.90245L11.9994 3.48536ZM12.7165 26.3347C13.2661 26.878 13.8637 27.1526 14.588 27.1368C15.306 27.121 16.0244 27.1216 16.7426 27.1134C16.8409 27.1122 16.939 27.1059 17.0366 27.0944C17.5569 27.033 17.8778 26.7114 17.8965 26.1845C17.9178 25.5803 17.9088 24.9749 17.9095 24.37C17.9104 23.6138 17.9155 22.8575 17.9042 22.1014C17.8961 21.5618 17.5954 21.2486 17.0592 21.1915C16.9537 21.1828 16.8478 21.1797 16.7419 21.182C16.0008 21.1807 15.2597 21.1842 14.5186 21.1786C13.9894 21.1746 13.6366 20.919 13.4788 20.431C13.372 20.1006 13.2627 19.7701 13.177 19.434C12.7721 17.8451 12.666 16.228 12.7415 14.5959C12.8056 13.2093 12.9745 11.8416 13.4783 10.5338C13.7138 9.9224 14.0277 9.70811 14.6798 9.71959C15.4055 9.73236 16.1316 9.74327 16.8573 9.73738C17.638 9.73104 17.9339 9.42597 17.9514 8.64532C17.9519 8.62264 17.9516 8.59995 17.9516 8.57726C17.9522 7.36731 17.9526 6.15736 17.9528 4.94741C17.952 4.17062 17.6087 3.82455 16.8324 3.82036C16.0989 3.8164 15.3653 3.81967 14.6318 3.81858C14.1446 3.81786 13.661 3.89368 13.2868 4.20865C12.8804 4.55066 12.4779 4.92315 12.1705 5.35183C11.3133 6.54764 10.7878 7.90848 10.3863 9.3135C9.7167 11.6664 9.43457 14.1128 9.551 16.5568C9.67271 19.28 10.2587 21.8964 11.4133 24.3742C11.7459 25.0899 12.1853 25.751 12.7165 26.3347Z" fill="white"/>
</svg>
