<svg width="72" height="70" viewBox="0 0 72 70" fill="none" xmlns="http://www.w3.org/2000/svg">
<path d="M0 64.3072C0.0823195 64.0929 0.171085 63.8808 0.245946 63.6639C0.563152 62.7124 1.17062 61.8843 1.98292 61.2961C2.79523 60.7078 3.77149 60.389 4.77442 60.3844C8.00843 60.3706 11.2425 60.3805 14.4766 60.3803C14.7268 60.3803 14.977 60.3803 15.2662 60.3803C15.2802 60.0716 15.2996 59.8428 15.2997 59.6139C15.3016 55.958 15.3019 52.3021 15.3006 48.6462C15.3001 47.2533 14.9439 46.8982 13.5525 46.8972C11.748 46.8959 9.94345 46.8916 8.13896 46.8989C7.02564 46.9033 6.60767 47.324 6.60604 48.43C6.60228 50.9844 6.60257 53.5389 6.60691 56.0933C6.60817 56.6409 6.4096 57.1247 5.89376 57.2582C5.48055 57.3548 5.04633 57.2991 4.6709 57.1013C4.41772 56.9522 4.23011 56.482 4.22635 56.1521C4.19482 53.3872 4.1835 50.6213 4.22584 47.8567C4.25748 46.9795 4.61899 46.1467 5.2381 45.5245C5.85721 44.9024 6.68831 44.5368 7.56528 44.5008C9.81415 44.4556 12.0638 44.4551 14.3142 44.4995C16.1889 44.5349 17.6999 46.1687 17.7068 48.1157C17.7201 51.9122 17.711 55.7087 17.7112 59.5053C17.7112 59.7612 17.7112 60.0171 17.7112 60.3264H31.9317V59.5958C31.9317 53.9011 31.9316 48.2063 31.9313 42.5115C31.9311 41.2803 31.582 40.9314 30.3478 40.9297C28.5901 40.9272 26.8325 40.927 25.0748 40.9291C23.5305 40.9295 23.2623 41.1922 23.2619 42.715C23.2608 46.6287 23.2603 50.5424 23.2604 54.4561C23.2671 54.7136 23.2574 54.9713 23.2314 55.2276C23.1449 55.8976 22.7023 56.2947 22.0633 56.3009C21.7676 56.3099 21.4791 56.2085 21.2539 56.0165C21.0288 55.8245 20.8831 55.5557 20.8453 55.2622C20.8244 55.0759 20.8184 54.8882 20.8273 54.7009C20.8265 50.5997 20.8267 46.4986 20.8278 42.3974C20.83 40.0055 22.3465 38.4771 24.724 38.469C26.5988 38.4626 28.4737 38.466 30.3485 38.4681C32.8891 38.4708 34.348 39.9279 34.3507 42.4878C34.3565 48.1357 34.3571 53.7836 34.3526 59.4315C34.3526 59.7096 34.3526 59.9876 34.3526 60.3423C34.6453 60.3565 34.8912 60.3785 35.1372 60.3787C37.762 60.3813 40.3867 60.3742 43.0115 60.3837C44.0715 60.3875 44.7327 61.2608 44.264 62.0827C44.0921 62.3842 43.6998 62.6071 43.3595 62.7505C43.0975 62.8609 42.7595 62.7998 42.4553 62.7998C30.1752 62.8013 17.8951 62.8017 5.615 62.8011C3.15506 62.8011 2.39236 63.5687 2.39594 66.0405C2.39628 66.2725 2.39599 66.5046 2.39599 66.7894H69.5828C69.6128 66.1846 69.6091 65.5786 69.5715 64.9742C69.4157 63.6018 68.4321 62.8078 66.9312 62.8036C64.0253 62.7955 61.1193 62.8011 58.2133 62.8011C55.6589 62.8011 53.1044 62.801 50.55 62.801C48.8263 62.8007 48.575 62.5447 48.575 60.7885C48.5748 50.7816 48.5747 40.7747 48.5747 30.7679C48.5746 29.1681 48.3007 28.8974 46.6883 28.8972C44.9541 28.897 43.2198 28.8934 41.4856 28.8985C40.3089 28.9019 39.9228 29.2884 39.9226 30.4562C39.9213 38.2132 39.9206 45.9703 39.9207 53.7274C39.9342 53.9847 39.9234 54.2426 39.8882 54.4979C39.8415 54.7911 39.6848 55.0556 39.45 55.2375C39.2152 55.4193 38.92 55.505 38.6244 55.477C37.9769 55.4248 37.6023 55.0601 37.5161 54.4146C37.4943 54.2286 37.4848 54.0413 37.4877 53.8539C37.4864 46.05 37.4868 38.246 37.489 30.4421C37.4906 28.378 38.5275 26.9835 40.3575 26.5708C40.7021 26.5065 41.0526 26.4796 41.403 26.4905C43.3012 26.4833 45.1995 26.4859 47.0977 26.4874C49.525 26.4892 51.0237 27.9935 51.0244 30.4435C51.0271 40.1222 51.0275 49.801 51.0256 59.4798C51.0256 59.7548 51.0256 60.0297 51.0256 60.342H54.4313V59.5598C54.4313 44.7721 54.4348 29.9844 54.4419 15.1968C54.4423 14.705 54.3387 14.4228 53.8727 14.1619C52.1836 13.2164 51.7289 11.0814 52.8625 9.41998C54.4591 7.07974 56.1007 4.77009 57.723 2.44738C57.9241 2.15948 58.1216 1.86895 58.3272 1.58434C59.851 -0.52445 62.4759 -0.531977 63.9809 1.58495C65.3105 3.45523 66.6136 5.34439 67.9284 7.22523C68.4114 7.91619 68.9019 8.60208 69.3759 9.2992C70.6013 11.1015 70.1636 13.0917 68.3324 14.2732C68.2198 14.3697 68.1288 14.4887 68.0652 14.6226C68.0016 14.7565 67.9669 14.9023 67.9632 15.0505C67.9417 20.1124 67.9473 25.1745 67.9473 30.2365C67.9473 37.853 67.9472 45.4695 67.947 53.0859C67.9469 54.2743 67.5388 54.8707 66.7371 54.8619C65.9409 54.8533 65.5373 54.2507 65.5373 53.0683C65.5371 40.0617 65.5371 27.0551 65.5372 14.0485C65.5372 12.6892 65.6159 12.5841 66.9167 12.1967C67.6695 11.9725 67.8571 11.376 67.364 10.659C66.3026 9.11559 65.2233 7.58446 64.1498 6.04936C63.452 5.05154 62.7563 4.0522 62.0508 3.05985C61.4578 2.2258 60.8581 2.20864 60.2828 3.02656C58.5044 5.55484 56.7335 8.08834 54.9701 10.6271C54.4042 11.4424 54.6718 12.0576 55.639 12.2431C56.5771 12.423 56.8459 12.7341 56.8488 13.7274C56.8569 16.563 56.8521 19.3987 56.8521 22.2344C56.8521 34.6317 56.8522 47.0289 56.8521 59.4262V60.3803C57.6168 60.3803 58.292 60.3803 58.9673 60.3803C61.6389 60.3803 64.3105 60.3806 66.9821 60.3812C69.9259 60.3857 71.9889 62.4369 71.9956 65.3597C71.9976 66.2268 72.0059 67.094 71.9926 67.9609C71.9802 68.7739 71.551 69.1994 70.7337 69.239C70.5466 69.248 70.3588 69.244 70.1713 69.244C47.3922 69.2442 24.6131 69.2479 1.83403 69.255C1.09521 69.2555 0.452704 69.1704 3.75725e-06 68.5259L0 64.3072Z" fill="white"/>
<path d="M39.8639 12.9493C39.0134 13.3223 38.3388 13.6248 37.6587 13.9147C36.8081 14.2773 36.1393 14.063 35.8358 13.3425C35.5504 12.6652 35.8533 12.0734 36.6966 11.6974C38.3835 10.9453 40.0708 10.1939 41.7641 9.45619C42.8573 8.97989 43.532 9.33817 43.734 10.4998C44.0545 12.3424 44.362 14.1873 44.6675 16.0325C44.735 16.3448 44.6778 16.671 44.5081 16.9416C44.3384 17.2123 44.0698 17.4059 43.7593 17.4812C43.0475 17.6342 42.4947 17.2802 42.2996 16.5225C42.2125 16.1839 42.1647 15.8349 42.1033 15.4899C42.0466 15.171 41.9955 14.851 41.9169 14.3821C41.7305 14.6499 41.6139 14.7992 41.5164 14.9601C34.7372 26.1442 24.9386 33.0333 12.1206 35.6274C10.7707 35.8976 9.39278 36.0324 8.02504 36.2082C7.13398 36.3227 6.54786 35.9263 6.4686 35.2026C6.38255 34.4168 6.87849 33.887 7.77676 33.8061C12.5871 33.3847 17.2814 32.0959 21.6324 30.0019C29.2998 26.3142 35.285 20.7957 39.5882 13.4462C39.6468 13.3462 39.7008 13.2436 39.8639 12.9493Z" fill="white"/>
</svg>
