<svg width="72" height="72" viewBox="0 0 72 72" fill="none" xmlns="http://www.w3.org/2000/svg">
<path d="M41.6949 0C46.3397 4.63007 50.9878 9.25676 55.6393 13.8801C55.9104 14.1332 56.1233 14.4421 56.2634 14.7854C56.4036 15.1287 56.4676 15.4984 56.4511 15.8689C56.4305 22.4755 56.4395 29.0822 56.4396 35.6889C56.4396 35.9338 56.4396 36.1788 56.4396 36.4237L56.5991 36.4498C56.9869 35.5127 57.377 34.5764 57.7619 33.6381C59.0748 30.438 60.3868 27.2376 61.6979 24.0367C62.5161 22.042 63.9254 21.4514 65.9258 22.2649C67.2696 22.8124 68.6124 23.3622 69.9542 23.9145C71.8297 24.6901 72.4437 26.1198 71.6799 27.9915C69.7989 32.6006 67.9168 37.2093 65.9948 41.8014C65.7892 42.2269 65.4438 42.5691 65.0164 42.7708C64.7894 42.8761 64.2038 42.6512 64.0711 42.4131C63.8752 42.0332 63.8362 41.5917 63.9625 41.1834C64.756 39.1104 65.6238 37.0659 66.4633 35.0104C66.6385 34.5815 66.8002 34.147 66.9871 33.6662C65.0152 32.8609 63.0937 32.0763 61.0837 31.2554C58.0343 38.69 55.0059 46.0734 51.9509 53.5217L57.8623 55.9366C58.1124 55.345 58.3611 54.7714 58.5982 54.1931C59.7778 51.3173 60.9561 48.4409 62.1331 45.564C62.2059 45.3667 62.2952 45.1759 62.4 44.9936C62.6942 44.5229 63.1233 44.3098 63.6606 44.503C64.2185 44.7036 64.457 45.1391 64.3582 45.7271C64.3144 45.9324 64.2482 46.1322 64.1608 46.3231C62.6654 49.9788 61.2027 53.6487 59.6394 57.2754C59.2973 58.0166 58.7648 58.6539 58.0961 59.1222C56.687 60.1056 56.313 61.3527 56.4045 63.0096C56.54 65.4621 56.4422 67.9276 56.4384 70.3875C56.4364 71.6397 56.0989 71.9774 54.8665 71.9774C37.0734 71.9778 19.2803 71.9815 1.48722 71.9886C0.840312 71.9891 0.342977 71.8339 5.63444e-06 71.2774V13.2151C0.129266 13.0523 0.271257 12.9001 0.424638 12.7598C0.565534 12.6435 0.73477 12.5667 0.915059 12.5372C1.09535 12.5077 1.28023 12.5267 1.45082 12.592C1.62142 12.6574 1.77161 12.7668 1.88605 12.9092C2.00049 13.0516 2.07509 13.2218 2.10223 13.4025C2.14254 13.7279 2.15598 14.056 2.14243 14.3836C2.14406 32.5386 2.14454 50.6936 2.14388 68.8486V69.7919H54.1947V62.7909C53.7766 63.16 53.4063 63.4827 53.0407 63.8106C52.6218 64.1863 52.2246 64.5884 51.7867 64.9401C51.015 65.56 50.0839 65.1968 49.9907 64.2128C49.8715 62.9548 49.8229 61.6899 49.7553 60.4273C49.6564 58.5801 49.5369 56.733 49.4922 54.8843C49.4743 54.2816 49.5757 53.6812 49.7906 53.1178C51.18 49.6467 52.6215 46.1964 54.0327 42.734C54.16 42.435 54.2297 42.1148 54.2382 41.79C54.2492 33.4738 54.2517 25.1576 54.2455 16.8415C54.2455 16.6584 54.2238 16.4753 54.2067 16.2048H53.3585C49.5091 16.2048 45.6598 16.2046 41.8105 16.2041C40.4496 16.2035 40.1574 15.9103 40.1571 14.5576C40.1564 10.7158 40.1563 6.87392 40.1569 3.03209V2.2016H2.14387C2.14387 2.70927 2.14389 3.19447 2.14387 3.67967C2.1438 5.43661 2.13686 7.19359 2.14743 8.95046C2.15105 9.5509 2.06051 10.0868 1.41587 10.3224C0.755016 10.564 0.364287 10.1528 0 9.70047V0H41.6949ZM52.3996 14.0266C49.0735 10.7113 45.7027 7.35152 42.3867 4.04628V14.0266H52.3996ZM61.9038 29.2476C63.927 30.0742 65.8486 30.8594 67.8288 31.6684C68.4947 30.0331 69.1672 28.446 69.7648 26.8313C69.8381 26.633 69.5793 26.1325 69.3578 26.0344C67.8406 25.3623 66.3029 24.7381 64.7444 24.1618C64.5209 24.0791 63.991 24.2664 63.9026 24.463C63.2063 26.0126 62.5828 27.5948 61.9038 29.2476ZM56.4794 57.71L51.7049 55.7678C51.8091 57.7991 51.9078 59.7224 52.0148 61.8094C53.5523 60.3977 54.9842 59.083 56.4794 57.71Z" fill="white"/>
<path d="M7.19547 43.8164C7.19551 42.5282 7.18941 41.24 7.19748 39.9518C7.20374 38.9515 7.60591 38.5449 8.61283 38.5414C11.0534 38.5331 13.4943 38.52 15.9344 38.5532C16.4694 38.5604 16.8144 38.4028 17.0976 37.97C17.3053 37.6579 17.544 37.3676 17.8101 37.1034C18.2292 36.6816 18.7187 36.6381 19.2104 36.9755C19.323 37.0516 19.419 37.1498 19.4925 37.264C19.5661 37.3783 19.6157 37.5063 19.6384 37.6403C19.661 37.7743 19.6563 37.9115 19.6244 38.0436C19.5926 38.1757 19.5342 38.3 19.453 38.4089C19.0644 38.9921 18.5792 39.5113 18.1914 40.0949C17.9997 40.375 17.8882 40.7023 17.869 41.0412C17.8413 43.219 17.8571 45.3974 17.8533 47.5756C17.8512 48.8085 17.4821 49.1825 16.2681 49.184C13.7806 49.187 11.293 49.1871 8.80549 49.1843C7.55736 49.1832 7.19822 48.8309 7.19594 47.6107C7.19358 46.3459 7.19342 45.0811 7.19547 43.8164ZM9.42989 40.7688V46.9262H15.5864V43.3837C15.0926 44.0042 14.7004 44.5302 14.2731 45.0261C13.6916 45.7011 13.107 45.7307 12.464 45.1188C11.8529 44.5372 11.2582 43.9377 10.6714 43.3315C10.1446 42.7874 10.0977 42.154 10.5234 41.7082C10.9954 41.2139 11.5868 41.2441 12.1982 41.8068C12.5508 42.1313 12.8899 42.4705 13.2655 42.8325C13.8165 42.1212 14.3084 41.4863 14.8642 40.7688H9.42989Z" fill="white"/>
<path d="M12.4859 35.1351C11.1954 35.135 9.90486 35.1406 8.61438 35.1333C7.60045 35.1275 7.2003 34.7362 7.19774 33.7326C7.19111 31.1332 7.19101 28.5337 7.19744 25.9343C7.19971 24.9046 7.60294 24.5041 8.66143 24.5001C11.1016 24.4907 13.542 24.4868 15.9821 24.5059C16.4433 24.5095 16.7837 24.4161 17.0427 24.0053C17.2601 23.6715 17.5119 23.3614 17.7939 23.0801C17.9762 22.8774 18.2295 22.7526 18.5013 22.7314C18.7731 22.7102 19.0427 22.7942 19.2542 22.9662C19.7017 23.3601 19.7851 23.863 19.4613 24.3533C19.0882 24.9183 18.6131 25.4168 18.2474 25.9859C18.0301 26.3026 17.9004 26.6711 17.8715 27.0542C17.837 29.2081 17.8566 31.3629 17.8535 33.5173C17.8517 34.7881 17.4993 35.1335 16.2167 35.1348C14.9731 35.1362 13.7295 35.1363 12.4859 35.1351ZM15.6134 29.311C15.0998 29.9577 14.7064 30.4814 14.2827 30.9795C13.7064 31.657 13.1166 31.693 12.4754 31.0849C11.8641 30.5051 11.2706 29.906 10.6832 29.3018C10.1551 28.7586 10.0979 28.1292 10.5095 27.6798C10.9633 27.1845 11.5984 27.1919 12.1776 27.7581C12.5215 28.0942 12.7961 28.5009 13.1468 28.9308L14.8743 26.7323H9.43469V32.9175H15.6134V29.311Z" fill="white"/>
<path d="M12.5553 52.5891C13.8447 52.5891 15.1342 52.5841 16.4236 52.5907C17.4251 52.5959 17.8445 52.9902 17.8496 53.988C17.8628 56.5851 17.863 59.1823 17.8504 61.7796C17.846 62.8141 17.4365 63.216 16.3857 63.2202C13.8069 63.2307 11.2281 63.2307 8.64922 63.2203C7.5952 63.216 7.19936 62.8136 7.19725 61.777C7.19196 59.1798 7.19215 56.5826 7.19782 53.9854C7.20049 52.9854 7.60252 52.5957 8.61671 52.5907C9.92954 52.5841 11.2424 52.5891 12.5553 52.5891ZM9.4181 60.9818H15.5925V54.8173H9.4181V60.9818Z" fill="white"/>
<path d="M35.6422 28.3528C32.0316 28.3528 28.421 28.3522 24.8103 28.351C24.5532 28.357 24.2961 28.3416 24.0416 28.3048C23.4286 28.2003 23.0785 27.8441 23.1015 27.2003C23.1238 26.5806 23.5209 26.2906 24.0804 26.1863C24.2897 26.1602 24.501 26.1532 24.7116 26.1653C31.9798 26.1645 39.2479 26.1644 46.5161 26.1649C47.6048 26.165 48.1648 26.5486 48.1475 27.2768C48.1308 27.9781 47.5829 28.3512 46.5445 28.3519C42.9104 28.3543 39.2763 28.3546 35.6422 28.3528Z" fill="white"/>
<path d="M35.5673 56.3996C31.9757 56.3996 28.384 56.3993 24.7924 56.3986C24.5344 56.4083 24.2761 56.3993 24.0194 56.3714C23.4272 56.2836 23.0993 55.9241 23.1014 55.3254C23.1035 54.7213 23.45 54.3772 24.0353 54.2833C24.2456 54.2621 24.4572 54.2574 24.6681 54.2694C31.9688 54.2689 39.2694 54.2689 46.57 54.2694C46.781 54.2584 46.9926 54.2635 47.2028 54.2845C47.8 54.377 48.1406 54.7687 48.1329 55.341C48.1253 55.9068 47.8016 56.3106 47.1861 56.3746C46.9289 56.3959 46.6707 56.4039 46.4126 56.3987C42.7975 56.4 39.1824 56.4004 35.5673 56.3996Z" fill="white"/>
<path d="M35.6243 40.2146C39.3288 40.2145 43.0334 40.1984 46.7374 40.2371C47.1884 40.2521 47.6173 40.4361 47.9389 40.7526C48.427 41.3024 48.0386 42.1567 47.3027 42.3128C47.0261 42.3627 46.7452 42.3837 46.4643 42.3757C39.2195 42.3789 31.9748 42.3797 24.73 42.378C24.5894 42.378 24.4482 42.3823 24.3081 42.373C23.5122 42.3198 23.0992 41.9515 23.0977 41.2987C23.0961 40.6268 23.5558 40.2189 24.3704 40.2175C28.1217 40.2112 31.873 40.2102 35.6243 40.2146Z" fill="white"/>
<path d="M33.8779 61.5589C30.7574 61.5589 27.637 61.5583 24.5166 61.5573C23.6792 61.5562 23.2148 61.2555 23.1116 60.6762C23.0804 60.5447 23.076 60.4082 23.0986 60.2749C23.1213 60.1417 23.1705 60.0143 23.2434 59.9004C23.3163 59.7866 23.4114 59.6886 23.523 59.6123C23.6346 59.5359 23.7604 59.4828 23.8929 59.4562C24.1192 59.398 24.3521 59.3694 24.5857 59.3712C30.7797 59.3668 36.9736 59.3668 43.1676 59.3714C43.4245 59.3723 43.6805 59.403 43.9305 59.4627C44.4299 59.5817 44.758 59.96 44.6675 60.4239C44.5948 60.797 44.2875 61.1797 43.9803 61.4322C43.7844 61.5933 43.399 61.5538 43.0984 61.5545C40.0249 61.5619 36.9514 61.5633 33.8779 61.5589Z" fill="white"/>
<path d="M33.3039 33.4566C30.3263 33.4566 27.3487 33.4558 24.3711 33.4544C23.5509 33.4528 23.0868 33.0559 23.0989 32.3833C23.109 31.817 23.4059 31.4628 23.9616 31.3594C24.2169 31.3234 24.4749 31.3106 24.7325 31.3213C30.4767 31.3194 36.221 31.3191 41.9652 31.3202C43.1034 31.3203 43.624 31.6439 43.6466 32.3589C43.6701 33.1037 43.1271 33.4566 41.9554 33.4567C39.0715 33.4569 36.1877 33.4569 33.3039 33.4566Z" fill="white"/>
<path d="M29.019 13.8084C27.0028 13.8084 24.9866 13.8079 22.9704 13.807C22.7128 13.8135 22.4549 13.8021 22.1988 13.7731C21.6257 13.6925 21.3282 13.3124 21.2986 12.7705C21.27 12.2459 21.5758 11.8924 22.0666 11.7183C22.2022 11.6805 22.343 11.6654 22.4835 11.6737C26.8207 11.6715 31.1578 11.6719 35.495 11.6748C36.2391 11.6759 36.7297 12.121 36.7278 12.7414C36.7259 13.3577 36.2481 13.7959 35.4896 13.8011C33.3328 13.8158 31.1759 13.8062 29.019 13.8062V13.8084Z" fill="white"/>
<path d="M27.5588 47.5099C26.503 47.5098 25.4471 47.5172 24.3913 47.5075C23.566 47.4999 23.1059 47.1114 23.0971 46.4436C23.0881 45.7674 23.5185 45.3547 24.3584 45.3463C26.4933 45.3251 28.6284 45.3245 30.7637 45.3446C31.5784 45.3514 32.0735 45.7846 32.0849 46.411C32.0969 47.0667 31.568 47.502 30.7263 47.5082C29.6706 47.516 28.6147 47.5101 27.5588 47.5099Z" fill="white"/>
</svg>
