<svg width="64" height="64" viewBox="0 0 64 64" fill="none" xmlns="http://www.w3.org/2000/svg">
<path d="M1 53.6695V30.6645C1.32335 30.2855 1.62579 29.886 1.97387 29.5314C3.10425 28.3796 4.23653 27.2288 5.40043 26.1114C5.57564 25.9518 5.71289 25.7551 5.8021 25.5356C5.89131 25.316 5.93021 25.0793 5.91595 24.8428C5.89998 18.5287 5.91285 12.2145 5.90153 5.90031C5.89804 3.95738 6.6563 2.46335 8.37869 1.52074C8.79527 1.29278 9.26982 1.17075 9.71772 1H44.7097C45.0664 1.25616 45.4087 1.53172 45.7352 1.82543C49.5938 5.66971 53.4351 9.53142 57.3039 13.3655C57.5676 13.6107 57.7753 13.91 57.9127 14.2428C58.0501 14.5757 58.1141 14.9343 58.1002 15.2941C58.0787 18.5419 58.0815 21.7897 58.1085 25.0376C58.1266 25.3845 58.2646 25.7144 58.499 25.9708C59.7563 27.28 61.0456 28.5589 62.3403 29.8316C62.5548 30.028 62.7245 30.2681 62.8382 30.5358C62.9519 30.8034 63.0068 31.0923 62.9993 31.383C62.9852 38.5849 62.9821 45.7868 62.9899 52.9887C62.9897 54.2045 62.44 54.7487 61.2125 54.7523C60.1903 54.7553 59.168 54.7529 58.0871 54.7529C58.0871 55.06 58.0892 55.2985 58.0867 55.5368C58.0756 56.6257 58.1186 57.7186 58.0398 58.8027C57.9636 59.9423 57.4553 61.01 56.6187 61.7875C55.782 62.5651 54.68 62.9939 53.5378 62.9865C39.1744 62.9928 24.811 62.9893 10.4476 62.9759C9.88455 62.974 9.32715 62.8635 8.80596 62.6504C6.87309 61.8426 5.93202 60.336 5.90883 58.2533C5.89607 57.1074 5.90655 55.9612 5.90655 54.753C4.86032 54.753 3.87569 54.7183 2.89474 54.7632C2.00341 54.8041 1.37798 54.4738 1 53.6695ZM61.4866 31.176H2.51737V53.2076H61.4866V31.176ZM56.5549 16.2538H55.8259C52.1135 16.2538 48.4012 16.2537 44.6889 16.2536C43.3213 16.2534 42.7961 15.727 42.7956 14.3502C42.7942 10.6379 42.7936 6.92553 42.7938 3.2132C42.7937 2.98103 42.7743 2.74888 42.7632 2.50036C42.5768 2.4898 42.4581 2.47718 42.3393 2.47717C31.7875 2.47623 21.2356 2.47743 10.6837 2.48078C8.67811 2.48262 7.41033 3.79161 7.4099 5.79643C7.40826 13.5035 7.40802 21.2106 7.40917 28.9177C7.40917 29.1339 7.40917 29.3501 7.40917 29.5884H56.5549L56.5549 16.2538ZM7.4281 54.7753C7.4281 56.1673 7.35605 57.5188 7.45121 58.8584C7.48232 59.3582 7.65515 59.8388 7.94949 60.244C8.24382 60.6492 8.64748 60.9621 9.11321 61.1462C9.70805 61.3858 10.344 61.5067 10.9853 61.5019C24.9836 61.5211 38.9818 61.526 52.9801 61.5165C53.1616 61.5165 53.3436 61.5217 53.5245 61.5103C55.086 61.4115 56.3298 60.4827 56.4982 59.0001C56.6555 57.6157 56.5318 56.1993 56.5318 54.7753H7.4281ZM56.3249 14.7566C52.3302 10.759 48.3272 6.7532 44.3722 2.79541V14.7565L56.3249 14.7566ZM5.87193 27.9974L4.20263 29.5898H5.87193V27.9974ZM58.1294 29.5641H59.6956L58.1294 27.8477V29.5641Z" fill="#FFA600" stroke="#FFA600" stroke-width="0.8"/>
<path d="M37.1629 44.3386C36.4685 45.7349 35.8177 47.0075 35.2051 48.2982C35.1504 48.4574 35.0421 48.5926 34.8988 48.6809C34.7555 48.7692 34.586 48.805 34.4192 48.7822C33.4203 48.754 32.4201 48.7729 31.3238 48.7729C31.4698 48.492 31.5539 48.3167 31.6496 48.1479C32.6928 46.3079 33.728 44.4632 34.7906 42.6345C34.8937 42.4921 34.9502 42.3212 34.9522 42.1454C34.9542 41.9696 34.9017 41.7975 34.8019 41.6528C33.774 39.8741 32.7759 38.0781 31.7695 36.287C31.664 36.0993 31.5731 35.9034 31.4355 35.6327C32.5987 35.6327 33.6812 35.6138 34.7617 35.6525C34.9299 35.6585 35.1487 35.8973 35.2419 36.0804C35.8805 37.3338 36.4918 38.6011 37.1611 39.9642C37.7341 38.8008 38.3313 37.7482 38.775 36.6345C39.1044 35.8077 39.5737 35.5214 40.4414 35.6145C41.2188 35.6979 42.0122 35.6321 42.9121 35.6321C42.7841 35.8743 42.6921 36.0588 42.5911 36.2381C41.563 38.0639 40.5433 39.8945 39.495 41.7086C39.4059 41.8368 39.3589 41.9895 39.3604 42.1456C39.362 42.3017 39.412 42.4535 39.5035 42.5799C40.5557 44.3918 41.5882 46.2152 42.6256 48.0357C42.7434 48.2424 42.8503 48.4553 43.0175 48.7688C41.8176 48.7688 40.6969 48.7851 39.578 48.7492C39.43 48.7444 39.2441 48.497 39.1545 48.3217C38.4965 47.0341 37.8585 45.7363 37.1629 44.3386Z" fill="#FFA600" stroke="#FFA600" stroke-width="0.8"/>
<path d="M30.9755 46.2826V48.7131H21.9791V35.6753H30.9849V38.0592H25.1402V40.8048H30.0344V43.1932H25.1527V46.2826L30.9755 46.2826Z" fill="#FFA600" stroke="#FFA600" stroke-width="0.8"/>
<path d="M20.5859 35.6689V38.071H16.7072V48.7288H13.5052V38.092H9.66724V35.6689L20.5859 35.6689Z" fill="#FFA600" stroke="#FFA600" stroke-width="0.8"/>
<path d="M50.4177 48.7314H47.2413V38.0883H43.4188V35.6685H54.3258V38.0653H50.4177V48.7314Z" fill="#FFA600" stroke="#FFA600" stroke-width="0.8"/>
<path d="M26.4831 19.047C30.7191 19.047 34.9551 19.0475 39.191 19.0486C40.0705 19.0493 40.5925 19.5158 40.5958 20.278C40.6109 20.5526 40.5268 20.8236 40.359 21.0415C40.1911 21.2594 39.9505 21.4097 39.6811 21.4652C39.4052 21.5216 39.1237 21.5469 38.8421 21.5404C30.5921 21.5441 22.342 21.5442 14.0919 21.5406C13.8103 21.5471 13.5288 21.5229 13.2524 21.4684C12.975 21.4051 12.7283 21.247 12.5549 21.0214C12.3815 20.7958 12.2922 20.5168 12.3024 20.2324C12.3206 19.948 12.4342 19.678 12.6247 19.4661C12.8153 19.2542 13.0718 19.1128 13.3527 19.0646C13.5533 19.0436 13.7552 19.0379 13.9567 19.0475C18.1321 19.0467 22.3076 19.0465 26.4831 19.047Z" fill="#FFA600" stroke="#FFA600" stroke-width="0.8"/>
<path d="M26.4262 26.1972C22.2112 26.1971 17.9961 26.1966 13.7811 26.1958C12.9382 26.1953 12.4863 25.8771 12.3388 25.2052C12.3068 25.0474 12.3066 24.8848 12.3382 24.7268C12.3698 24.5689 12.4325 24.4189 12.5228 24.2855C12.6131 24.1521 12.729 24.0381 12.8638 23.9501C12.9987 23.862 13.1497 23.8017 13.3081 23.7727C13.5287 23.7487 13.7507 23.7412 13.9724 23.7504C22.3016 23.7494 30.6308 23.7493 38.9601 23.75C39.1415 23.75 39.324 23.745 39.5042 23.7613C39.8044 23.7927 40.0823 23.9345 40.2839 24.1592C40.4855 24.3839 40.5965 24.6755 40.5952 24.9774C40.594 25.2793 40.4807 25.5699 40.2773 25.793C40.0739 26.0161 39.7949 26.1556 39.4944 26.1846C39.274 26.2037 39.0511 26.1968 38.8293 26.1969C34.6949 26.1975 30.5606 26.1976 26.4262 26.1972Z" fill="#FFA600" stroke="#FFA600" stroke-width="0.8"/>
<path d="M20.9191 16.8484C18.5185 16.8483 16.1178 16.8559 13.7172 16.8449C12.6149 16.8399 11.9869 15.9105 12.4621 15.0184C12.7439 14.4896 13.2266 14.3411 13.7837 14.3413C15.5589 14.342 17.3342 14.342 19.1094 14.3413C22.0547 14.3413 25 14.3418 27.9453 14.3429C28.8551 14.3442 29.404 14.7666 29.4562 15.4809C29.5161 16.2987 28.9747 16.8428 28.0604 16.8458C25.68 16.8537 23.2995 16.8484 20.9191 16.8484Z" fill="#FFA600" stroke="#FFA600" stroke-width="0.8"/>
</svg>
