<svg width="78" height="64" viewBox="0 0 78 64" fill="none" xmlns="http://www.w3.org/2000/svg">
<path d="M10.6665 21.2574V22.2656C10.6665 31.2207 10.6628 40.1757 10.6554 49.1308C10.6543 49.7465 10.7895 50.0933 11.3921 50.4091C13.2403 51.3775 14.1623 53.0122 14.2128 55.0823C14.2689 57.3892 14.24 59.6986 14.2218 62.0068C14.2116 63.3059 13.4942 63.992 12.1937 63.9955C9.9795 64.0016 7.76529 64.0015 5.55107 63.9952C4.26815 63.9911 3.58066 63.3605 3.56436 62.0691C3.53454 59.7058 3.52135 57.3408 3.57583 54.9782C3.62571 52.8151 4.69896 51.2662 6.59256 50.2467C6.72807 50.1613 6.84303 50.0468 6.92912 49.9114C7.01522 49.7759 7.07031 49.623 7.0904 49.4635C7.11585 39.8133 7.10704 30.1629 7.12469 20.5126C7.12564 19.991 6.9234 19.7872 6.47926 19.6244C4.81971 19.0159 3.17091 18.3778 1.51976 17.7463C0.495337 17.3545 -0.0457387 16.72 0.00303197 15.899C0.0595688 14.9471 0.647024 14.441 1.49988 14.1153C13.6795 9.46471 25.8596 4.8156 38.0403 0.168007C38.6553 -0.0502336 39.3251 -0.0560102 39.9438 0.151592C52.1535 4.78286 64.3527 9.44217 76.5414 14.1295C77.5068 14.4993 78.0346 15.1458 77.9982 15.9412C77.9547 16.8949 77.3753 17.4226 76.5243 17.746C72.6016 19.2367 68.6926 20.7639 64.7584 22.223C64.0474 22.4867 63.796 22.7935 63.7997 23.5769C63.8346 30.8909 63.8208 38.2052 63.82 45.5195C63.8198 47.2895 63.5981 47.6202 61.9791 48.2399C54.7082 51.0231 47.4374 53.8064 40.1667 56.59C39.479 56.8926 38.7009 56.9126 37.9987 56.6459C30.6007 53.7976 23.1987 50.9601 15.7926 48.1333C14.4597 47.6225 14.1842 47.2197 14.1836 45.7661C14.1803 38.3406 14.1713 30.9151 14.199 23.4897C14.2016 22.7831 13.9912 22.4451 13.3242 22.2454C12.4634 21.9877 11.6342 21.6231 10.6665 21.2574ZM60.2657 23.9859C59.8603 24.1302 59.5505 24.2334 59.2458 24.3499C52.8769 26.7847 46.5096 29.2237 40.1439 31.6668C39.7907 31.8168 39.4114 31.8953 39.028 31.8976C38.6445 31.8998 38.2644 31.8259 37.9094 31.6801C31.4691 29.1912 25.0215 26.7215 18.5665 24.271C18.3174 24.1758 18.06 24.1023 17.7748 24.0083C17.7576 24.1934 17.7386 24.3029 17.7386 24.4123C17.7369 31.086 17.7445 37.7597 17.7221 44.4334C17.7203 44.9722 17.9632 45.1365 18.3866 45.2979C25.0675 47.8449 31.7419 50.4089 38.4279 52.942C38.8051 53.0722 39.2148 53.0723 39.592 52.9422C46.2024 50.4347 52.7986 47.8896 59.4093 45.3831C60.038 45.1447 60.2888 44.8738 60.2851 44.1573C60.2519 37.734 60.2657 31.3105 60.2657 24.8871C60.2657 24.618 60.2657 24.3489 60.2657 23.9859ZM71.1336 15.9501C70.6965 15.7623 70.4792 15.6597 70.2554 15.574C60.0405 11.6634 49.823 7.75982 39.6027 3.86342C39.199 3.73319 38.7636 3.74206 38.3655 3.88865C28.8408 7.50317 19.3221 11.1335 9.80942 14.7797C8.89712 15.1284 7.99036 15.4918 7.08103 15.8483L7.06938 16.141C7.98264 16.3507 8.8947 16.7256 9.80942 16.7323C11.2681 16.7429 12.7287 16.5107 14.1881 16.3772C18.1806 16.012 22.1731 15.6459 26.1654 15.279C30.2407 14.9086 34.3177 14.5569 38.3914 14.1699C39.7096 14.0447 40.6486 14.6278 40.7854 15.7574C40.9162 16.8371 40.0602 17.654 38.7371 17.7624C36.6154 17.9361 34.4956 18.1337 32.3753 18.3252C28.9332 18.636 25.4912 18.9486 22.0494 19.2631C20.4325 19.4108 18.8158 19.5616 17.1993 19.7153C17.5009 19.9749 17.8509 20.1718 18.2288 20.2944C24.8287 22.8227 31.4329 25.3397 38.0232 27.8931C38.3336 28.0263 38.6675 28.0953 39.0051 28.0961C39.3426 28.0968 39.6768 28.0293 39.9878 27.8975C47.5369 24.9836 55.0925 22.0865 62.6545 19.2061C65.4094 18.1512 68.1625 17.0912 71.1336 15.9501ZM10.6116 60.3843C10.6116 58.5098 10.6363 56.7318 10.601 54.955C10.5785 54.5333 10.4023 54.1346 10.1062 53.8349C9.81 53.5353 9.41449 53.3556 8.99499 53.3301C8.14599 53.2589 7.21829 53.8918 7.174 54.8058C7.08457 56.6508 7.14735 58.5033 7.14735 60.3843H10.6116Z" fill="#FFA600"/>
</svg>
