<svg width="62" height="77" viewBox="0 0 62 77" fill="none" xmlns="http://www.w3.org/2000/svg">
<path d="M0 71.9511C0.390468 70.9443 0.847703 69.9966 1.80598 69.3708C1.96403 69.2675 1.98715 68.8817 1.98837 68.6261C2.00093 65.9809 1.99789 63.3356 1.99588 60.6903C1.96278 56.2524 3.33801 51.9184 5.92379 48.3115C6.15508 47.9525 6.28446 47.5373 6.29811 47.1104C6.34768 45.9552 6.30667 44.7964 6.31748 43.6392C6.34293 40.9144 8.17672 39.0732 10.8906 39.0648C14.3901 39.054 17.8905 39.017 21.3885 39.0895C22.4207 39.1109 23.0557 38.6734 23.3962 37.8592C23.7062 37.1179 23.8175 36.2822 23.9268 35.4759C23.9567 35.255 23.7213 34.9168 23.5123 34.7571C20.8117 32.6932 19.3004 29.9508 18.8019 26.6165C18.7641 26.5789 18.7322 26.5224 18.6869 26.5081C15.7901 25.5935 14.9192 24.3925 14.9116 21.3204C14.9078 19.8068 14.7875 18.278 15.7708 16.9519C15.88 16.8046 15.8362 16.5326 15.8373 16.3183C15.8496 14.0866 15.7891 11.8522 15.8784 9.62372C16.0834 4.51119 20.5567 0.119859 25.6624 0.0421477C29.96 -0.0232672 34.2593 0.00183542 38.5577 0.0223946C40.8069 0.0331513 42.3517 1.39912 42.674 3.61785C42.7502 4.14296 42.9492 4.33767 43.4826 4.42786C45.7861 4.81732 47.0802 6.38751 47.0888 8.73345C47.0975 11.0756 47.0903 13.4178 47.0911 15.76C47.0919 18.065 47.0984 20.3699 47.0944 22.6748C47.091 24.6673 46.1682 25.8503 44.216 26.3695C44.0079 27.211 43.8488 28.0774 43.578 28.9073C42.7439 31.5329 41.0068 33.7781 38.6749 35.2449C38.1421 35.5881 37.9545 35.9507 38.1487 36.5309C38.2717 37.0058 38.4332 37.4699 38.6318 37.9185C39.0396 38.6848 39.6117 39.1075 40.6028 39.0881C44.0734 39.0203 47.5462 39.057 51.0181 39.0636C53.8515 39.069 55.7771 40.8893 55.6627 43.7017C55.5608 46.2053 55.9776 48.3929 57.4112 50.5797C59.325 53.4987 59.9986 56.9167 60.0064 60.4256C60.0125 63.126 60.0167 65.8265 60 68.5268C59.9762 68.7392 60.01 68.954 60.0977 69.1489C60.1855 69.3438 60.3241 69.5115 60.4989 69.6344C61.1395 70.1311 61.6083 70.8161 61.8393 71.5931C62.0703 72.3701 62.0519 73.1999 61.7867 73.9659C61.5216 74.7319 61.0229 75.3955 60.361 75.8634C59.6991 76.3313 58.9071 76.5799 58.0966 76.5743C40.0479 76.5786 21.9993 76.5788 3.95066 76.5749C3.1319 76.5885 2.32977 76.343 1.65886 75.8735C0.987949 75.404 0.482563 74.7345 0.214887 73.9606C0.149673 73.7844 0.0719308 73.6128 0 73.4391V71.9511ZM53.0961 68.7475C53.1286 68.5485 53.1505 68.3479 53.1618 68.1466C53.1647 59.9917 53.1634 51.8369 53.1579 43.682C53.1555 42.2057 52.4633 41.565 50.9215 41.5644C37.6423 41.5587 24.3631 41.5588 11.0838 41.5646C9.51201 41.5653 8.86911 42.2138 8.86268 43.7701C8.85244 46.2496 8.85999 48.7291 8.85964 51.2087C8.85931 53.5504 8.87134 55.8923 8.85177 58.2339C8.8435 59.2227 8.37393 59.7285 7.57027 59.7179C6.78522 59.7075 6.33596 59.1717 6.31841 58.1981C6.306 57.5096 6.31559 56.8206 6.31554 56.1319C6.31545 55.0848 6.31552 54.0378 6.31552 52.7666C4.60229 55.7927 3.72375 64.5007 4.61044 68.7492H6.31553C6.31553 67.4809 6.31508 66.2503 6.31566 65.0196C6.31629 63.6565 6.74361 63.0123 7.62748 63.0399C8.47334 63.0663 8.85803 63.6819 8.85941 65.0164C8.86069 66.2468 8.85968 67.4772 8.85968 68.7475L53.0961 68.7475ZM17.4567 19.2685C17.4567 20.0724 17.4548 20.7814 17.457 21.4903C17.4633 23.4661 17.8965 23.9191 19.8514 23.9987C20.6957 24.033 21.0855 24.3937 21.1918 25.2442C21.26 25.7902 21.2958 26.3418 21.3935 26.8824C22.417 32.541 28.3592 35.9312 33.7136 34.7252C38.1435 33.7274 41.4955 29.9279 41.6743 25.7322C41.7391 24.2119 42.0239 23.9104 43.5426 23.8693C44.1339 23.8533 44.527 23.6354 44.5438 23.0284C44.5747 21.909 44.5526 20.7882 44.5526 19.6252C42.59 19.8742 41.102 19.3002 40.0713 17.6719C39.9809 17.529 39.6049 17.4829 39.3832 17.5203C37.6208 17.8571 35.8078 17.8265 34.0578 17.4304C31.0619 16.6996 28.664 15.0094 26.6009 12.7892C26.0177 12.1615 25.3623 11.8792 24.5375 12.1983C23.7079 12.5192 23.5407 13.2155 23.5499 14.0145C23.5641 15.2542 23.5812 16.4948 23.5496 17.7339C23.4978 19.7646 21.9712 20.8174 20.0471 20.1721C19.2188 19.8944 18.3971 19.5973 17.4567 19.2685ZM21.0253 17.8524C21.0253 16.3293 21.0026 14.9817 21.0302 13.6351C21.0816 11.1303 23.1619 9.33614 25.648 9.58468C26.9835 9.71819 27.8865 10.5068 28.7721 11.4103C31.6648 14.3618 35.0384 15.9141 39.2724 14.9582C39.7456 14.8401 40.2429 14.861 40.7046 15.0184C41.1663 15.1758 41.5728 15.463 41.8754 15.8456C42.0704 16.0745 42.2017 16.3572 42.3934 16.5894C42.7923 17.0724 43.2882 17.2991 43.9268 17.1097C44.555 16.9234 44.5509 16.4197 44.5508 15.9121C44.5505 13.5148 44.5603 11.1175 44.5464 8.72033C44.5394 7.50796 44.1655 7.09652 42.9863 6.90478C41.2516 6.62272 40.4138 5.76179 40.2021 4.04365C40.0782 3.03825 39.5297 2.51006 38.5111 2.50767C34.2952 2.49778 30.0788 2.46269 25.8637 2.52188C22.2724 2.57231 18.9931 5.29106 18.5425 8.83832C18.2288 11.3076 18.3766 13.8375 18.3674 16.3405C18.395 16.4946 18.4573 16.6404 18.5496 16.7669C18.6419 16.8934 18.7618 16.9972 18.9002 17.0704C19.5372 17.3732 20.2256 17.5678 21.0253 17.8524ZM30.9962 71.2812C24.5218 71.2812 18.0474 71.2812 11.573 71.2812C9.06584 71.2813 6.55868 71.2734 4.05163 71.2863C3.15654 71.291 2.51649 71.8916 2.50944 72.673C2.50243 73.4502 3.13549 74.0467 4.0294 74.1001C4.19415 74.11 4.35992 74.1033 4.52522 74.1034C22.1852 74.1034 39.8452 74.1032 57.5052 74.1025C57.7528 74.1138 58.0009 74.1051 58.2472 74.0766C58.6036 74.0399 58.9324 73.8678 59.1657 73.5958C59.399 73.3237 59.5189 72.9725 59.5008 72.6146C59.4827 72.2567 59.3279 71.9194 59.0683 71.6723C58.8087 71.4252 58.4642 71.2872 58.1058 71.2868C57.8591 71.2688 57.6101 71.2813 57.3622 71.2813C48.5735 71.2812 39.7848 71.2811 30.9962 71.2812ZM57.5191 68.762C57.5191 66.0685 57.5392 63.3839 57.5135 60.6997C57.4877 58.006 57.0285 55.4026 55.7566 52.7964V68.762H57.5191ZM35.6122 37.0072C34.0764 37.174 32.5518 37.5102 31.0412 37.4561C29.5091 37.4011 27.9908 36.9607 26.458 36.6876C26.2391 37.4161 26.0004 38.211 25.7618 39.0053H36.2694C36.03 38.2775 35.8093 37.6064 35.6122 37.0072Z" fill="#FFA600"/>
<path d="M30.9913 49.7832C32.2673 49.7793 33.5158 50.1547 34.5781 50.8616C35.6404 51.5686 36.4687 52.5753 36.9578 53.7539C37.4469 54.9324 37.5748 56.2298 37.3251 57.4812C37.0755 58.7326 36.4597 59.8816 35.5558 60.7823C34.652 61.6831 33.5008 62.2949 32.2486 62.5402C30.9963 62.7854 29.6994 62.6531 28.5225 62.1599C27.3456 61.6667 26.3418 60.8349 25.6386 59.7701C24.9353 58.7054 24.5643 57.4556 24.5726 56.1796C24.5826 54.4824 25.2628 52.8579 26.465 51.6599C27.6672 50.4618 29.2941 49.7873 30.9913 49.7832ZM34.9136 56.2267C34.9177 55.4544 34.693 54.6983 34.2679 54.0535C33.8428 53.4088 33.2363 52.9043 32.5249 52.6038C31.8135 52.3034 31.029 52.2203 30.2704 52.3651C29.5118 52.5099 28.8131 52.8761 28.2624 53.4174C27.7117 53.9588 27.3336 54.6512 27.1758 55.4072C27.0181 56.1632 27.0878 56.949 27.376 57.6654C27.6643 58.3819 28.1583 58.9969 28.7957 59.433C29.4331 59.8691 30.1853 60.1066 30.9575 60.1157C31.4736 60.1236 31.9861 60.0288 32.4652 59.837C32.9443 59.6452 33.3806 59.3601 33.7486 58.9983C34.1167 58.6365 34.4092 58.2052 34.6092 57.7294C34.8092 57.2536 34.9126 56.7428 34.9136 56.2267Z" fill="#FFA600"/>
</svg>
