<svg width="65" height="64" viewBox="0 0 65 64" fill="none" xmlns="http://www.w3.org/2000/svg">
<path d="M27.7868 63.9958C21.2324 63.9958 14.678 63.9946 8.12364 63.9924C4.3807 63.9856 1.48207 61.9912 0.402128 58.6546C0.159537 57.9228 0.0307055 57.1581 0.0201348 56.3871C-0.00235813 42.8939 -0.00600563 29.4007 0.00919228 15.9075C0.0135036 11.8109 3.37476 8.32119 7.47934 8.28655C15.1483 8.22182 22.8182 8.2615 30.4877 8.26771C31.5009 8.26853 32.2145 8.96621 32.2249 9.89589C32.2356 10.8513 31.5804 11.5305 30.5324 11.5504C28.8489 11.5824 27.1644 11.5645 25.4804 11.5648C19.6543 11.5656 13.8281 11.5667 8.00204 11.5682C5.61863 11.5719 3.90792 12.9472 3.46942 15.1874C3.41823 15.5013 3.39724 15.8193 3.40674 16.1372C3.40383 29.4029 3.40345 42.6686 3.40559 55.9343C3.40616 58.4984 5.06871 60.2789 7.6152 60.4622C7.86454 60.4802 8.1153 60.4848 8.36541 60.4848C21.3604 60.4858 34.3553 60.488 47.3503 60.4914C48.7159 60.4924 49.9738 60.254 50.9845 59.2525C51.4184 58.8324 51.7606 58.327 51.9898 57.7682C52.219 57.2094 52.3301 56.6092 52.3161 56.0054C52.3114 48.6786 52.3108 41.3517 52.3142 34.0249C52.3143 33.7973 52.3041 33.5688 52.3211 33.3425C52.3433 32.9177 52.5258 32.5172 52.8319 32.2218C53.138 31.9264 53.5447 31.7582 53.97 31.7511C54.3956 31.7532 54.8035 31.9215 55.1069 32.2199C55.4102 32.5184 55.5851 32.9235 55.5942 33.3489C55.6169 33.7346 55.6069 34.1222 55.6069 34.509C55.6074 41.631 55.5625 48.7535 55.6245 55.875C55.6598 59.9371 53.0771 62.745 50.3289 63.5615C49.3707 63.8371 48.3786 63.9771 47.3815 63.9775C40.8501 64.013 34.3184 63.9959 27.7868 63.9958Z" fill="#FFA600"/>
<path d="M24.1065 35.8362C24.1609 35.3873 24.2407 34.9419 24.3456 34.5021C24.9088 32.5876 25.5048 30.6828 26.0758 28.7705C26.3933 27.6976 26.9773 26.7225 27.7734 25.9361C35.9176 17.7999 44.0641 9.66606 52.2132 1.53468C54.2974 -0.540688 57.1013 -0.49613 59.1942 1.57714C60.4226 2.79399 61.6198 4.043 62.8683 5.2387C64.8084 7.0968 65.0817 10.2311 62.8503 12.4377C54.8428 20.356 46.9183 28.3584 38.978 36.3445C37.9519 37.4138 36.6578 38.1885 35.2305 38.5878C33.4821 39.0696 31.7611 39.6496 30.0184 40.1529C29.3393 40.3575 28.6219 40.4019 27.9227 40.2826C27.2235 40.1633 26.5615 39.8835 25.9886 39.4652C25.4158 39.0469 24.9477 38.5016 24.6211 37.8719C24.2946 37.2422 24.1184 36.5454 24.1065 35.8362ZM47.6149 10.6978C47.5608 10.7444 47.4542 10.8248 47.3608 10.9184C41.6267 16.667 35.8978 22.4207 30.174 28.1795C29.7518 28.6212 29.4337 29.1517 29.243 29.7322C28.6318 31.5831 28.1175 33.4657 27.5382 35.3276C27.3782 35.8421 27.447 36.2735 27.8068 36.6476C28.1862 37.042 28.6293 37.129 29.1751 36.9579C30.949 36.4019 32.755 35.9413 34.5071 35.326C35.2726 35.0602 35.972 34.6328 36.5576 34.0727C42.1806 28.5027 47.7808 22.9097 53.3582 17.2936C53.5175 17.1342 53.6697 16.9677 53.7717 16.8606C51.7135 14.8004 49.6785 12.7634 47.6149 10.6978ZM56.2172 14.3774C57.7541 12.8546 59.2816 11.3631 60.7809 9.8439C61.3357 9.28175 61.3456 8.56457 60.7595 7.94895C59.3968 6.51749 58.0082 5.10868 56.5838 3.73887C55.8715 3.05389 55.1263 3.12743 54.4408 3.81399C53.1404 5.11664 51.8413 6.4207 50.5437 7.72618C50.3747 7.89611 50.2162 8.07642 50.0704 8.23313C52.1498 10.3117 54.1732 12.3343 56.2172 14.3774Z" fill="#FFA600"/>
<path d="M21.3023 51.9551C24.3495 51.9553 27.3967 51.9462 30.4438 51.9594C31.8002 51.9653 32.6304 53.1973 32.0638 54.3314C31.9528 54.5828 31.775 54.799 31.5498 54.9565C31.3246 55.114 31.0605 55.2069 30.7863 55.2249C30.5148 55.2471 30.2415 55.2558 29.9691 55.2559C24.1931 55.2576 18.417 55.2578 12.641 55.2565C12.4138 55.2565 12.1857 55.2571 11.9595 55.2389C10.9814 55.1602 10.3531 54.4808 10.3831 53.543C10.4119 52.6437 11.1135 51.9702 12.0925 51.9606C13.8433 51.9433 15.5944 51.9551 17.3454 51.9549C18.6644 51.9548 19.9833 51.9548 21.3023 51.9551Z" fill="#FFA600"/>
<path d="M15.9075 44.3093C17.0891 44.3093 18.2707 44.3035 19.4522 44.3109C20.5656 44.3179 21.2992 44.9804 21.3 45.9625C21.3008 46.9386 20.63 47.593 19.5241 47.6025C17.0702 47.6236 14.6161 47.6236 12.1619 47.6027C11.0577 47.5934 10.3838 46.939 10.3828 45.9658C10.3817 44.9834 11.1151 44.3179 12.2263 44.311C13.4533 44.3034 14.6804 44.3093 15.9075 44.3093Z" fill="#FFA600"/>
</svg>
