<svg width="24" height="24" viewBox="0 0 24 24" fill="none" xmlns="http://www.w3.org/2000/svg">
<path fill-rule="evenodd" clip-rule="evenodd" d="M9.79265 3.55614C8.18569 3.77098 6.53449 4.72363 5.52186 6.0202C3.8513 8.15917 3.53314 10.9319 4.68118 13.3472C5.61916 15.3206 7.37856 16.7031 9.48127 17.1191C10.1273 17.2468 11.2581 17.2468 11.9041 17.1191C12.7321 16.9553 13.6918 16.565 14.2735 16.1554L14.5162 15.9846L14.8617 16.3486C15.0518 16.5489 15.8187 17.3675 16.5661 18.1679C18.6974 20.4502 18.6851 20.4381 18.9164 20.4826C19.6191 20.6179 20.1991 19.9393 19.9349 19.2906C19.8581 19.1019 18.6314 17.7552 16.4534 15.4685C16.1307 15.1295 15.8576 14.8258 15.8467 14.7935C15.8358 14.7612 15.876 14.6789 15.9361 14.6105C16.472 14.0005 17.0014 12.8504 17.2337 11.7919C17.3771 11.1383 17.4067 9.82588 17.2921 9.205C16.9317 7.25249 15.9104 5.68021 14.3007 4.59979C13.0018 3.72787 11.3568 3.34707 9.79265 3.55614ZM11.3899 5.34833C12.5712 5.53109 13.4924 6.0315 14.3103 6.93482C14.7479 7.41811 14.9842 7.79566 15.2553 8.44458C15.7088 9.52997 15.7425 10.9921 15.3394 12.0976C14.2092 15.1975 10.6084 16.398 7.93823 14.5651C6.8773 13.8369 6.10995 12.673 5.85477 11.405C5.72091 10.7399 5.74166 9.78751 5.90445 9.12906C6.39541 7.14287 7.98402 5.66463 9.96756 5.34822C10.5695 5.25219 10.7685 5.25219 11.3899 5.34833Z" fill="black"/>
</svg>
