<svg width="28" height="30" viewBox="0 0 28 30" fill="none" xmlns="http://www.w3.org/2000/svg">
<path fill-rule="evenodd" clip-rule="evenodd" d="M10.1371 0.099069C7.32495 0.478197 4.43536 2.15934 2.66325 4.44741C-0.260222 8.22207 -0.817013 13.1151 1.19207 17.3774C2.83353 20.8599 5.91248 23.2996 9.59223 24.0336C10.7227 24.2591 12.7016 24.2591 13.8322 24.0336C15.2812 23.7446 16.9606 23.0558 17.9786 22.3331L18.4034 22.0316L19.008 22.674C19.3406 23.0274 20.6828 24.4721 21.9907 25.8845C25.7205 29.9122 25.6989 29.8907 26.1037 29.9693C27.3335 30.2081 28.3484 29.0105 27.8861 27.8657C27.7518 27.5328 25.605 25.1562 21.7935 21.1208C21.2287 20.5226 20.7508 19.9867 20.7317 19.9297C20.7126 19.8728 20.7831 19.7274 20.8882 19.6067C21.826 18.5303 22.7525 16.5007 23.159 14.6327C23.41 13.4794 23.4618 11.1633 23.2612 10.0676C22.6304 6.62203 20.8432 3.84743 18.0263 1.94081C15.7531 0.40213 12.8744 -0.269884 10.1371 0.099069ZM12.9323 3.26176C14.9996 3.58427 16.6116 4.46736 18.043 6.06145C18.8088 6.91431 19.2224 7.58058 19.6968 8.72573C20.4904 10.6411 20.5493 13.2214 19.8439 15.1722C17.8661 20.6426 11.5647 22.7612 6.8919 19.5267C5.03528 18.2415 3.69242 16.1877 3.24584 13.95C3.0116 12.7763 3.04791 11.0956 3.33278 9.93364C4.19197 6.42859 6.97203 3.81993 10.4432 3.26156C11.4966 3.0921 11.8449 3.0921 12.9323 3.26176Z" fill="#FFA600"/>
</svg>
