<svg width="16" height="14" viewBox="0 0 16 14" fill="none" xmlns="http://www.w3.org/2000/svg">
<path d="M15.1137 1.10814C15.0629 1.21108 15.02 1.31917 14.9602 1.41619C12.5271 5.36516 10.0928 9.31331 7.65718 13.2606C7.28048 13.8709 6.47083 13.8602 6.17114 13.2413C6.11365 13.1138 6.08121 12.975 6.07569 12.833C5.95904 10.691 5.84693 8.5486 5.73934 6.40582C5.74078 6.33925 5.72508 6.27392 5.6939 6.21666C5.66271 6.15941 5.61718 6.11232 5.56204 6.0803C3.85238 4.93617 2.14491 3.78853 0.439645 2.63738C0.0735445 2.39098 -0.0714526 2.0318 0.0331133 1.63214C0.139051 1.22724 0.447342 0.982449 0.89429 0.950541C5.32172 0.634466 9.74915 0.318547 14.1766 0.00278631C14.8182 -0.0429855 15.2621 0.484389 15.1137 1.10814ZM13.3521 2.08718C13.2877 2.12066 13.2587 2.13335 13.2319 2.14997C11.1037 3.46954 8.97516 4.78843 6.84622 6.10665C6.75341 6.16402 6.74636 6.22775 6.75134 6.32182C6.85049 8.19119 6.94822 10.0607 7.04453 11.9303C7.0497 12.0295 7.05656 12.1287 7.06264 12.2279L7.09702 12.234C9.17301 8.86644 11.249 5.49884 13.3521 2.08718ZM1.42011 1.97619L1.4126 2.01101C1.44587 2.0358 1.47819 2.0621 1.51254 2.08519C3.04376 3.1143 4.57465 4.14392 6.10523 5.17405C6.20365 5.24045 6.27382 5.25062 6.38444 5.1817C8.48214 3.87461 10.5817 2.57083 12.6831 1.27038C12.7252 1.24427 12.7656 1.21508 12.8449 1.16157L1.42011 1.97619Z" fill="#005AD0"/>
</svg>
