<svg width="16" height="18" viewBox="0 0 16 18" fill="none" xmlns="http://www.w3.org/2000/svg">
<path fill-rule="evenodd" clip-rule="evenodd" d="M7.29086 0.0230522C6.92645 0.0906825 6.44682 0.240577 6.15104 0.379222C4.16081 1.31213 3.12625 3.59672 3.73262 5.71961C4.17181 7.25734 5.36604 8.43506 6.91045 8.85357C7.26835 8.95055 7.39454 8.96324 8.00295 8.96324C8.61136 8.96324 8.73755 8.95055 9.09545 8.85357C10.6435 8.43408 11.833 7.26094 12.2733 5.71961C12.8854 3.57667 11.8031 1.23723 9.79307 0.358032C9.17912 0.0894982 8.85799 0.0211065 8.12801 0.00330011C7.77262 -0.00532815 7.39591 0.00355401 7.29086 0.0230522ZM7.46099 9.90711C4.11958 10.1544 1.33246 12.1488 0.357646 14.9902C0.0851668 15.7844 -0.0793797 17.0194 0.0388502 17.3829C0.105553 17.588 0.301824 17.8142 0.503724 17.9187C0.659016 17.9991 0.817809 18.0008 7.99086 17.9999C14.9893 17.999 15.3269 17.9955 15.4865 17.9219C15.6916 17.8274 15.8976 17.5963 15.967 17.3829C16.0304 17.1881 15.9989 16.4978 15.9025 15.9706C15.3378 12.8813 12.6519 10.4672 9.24549 9.98734C8.78328 9.92221 7.83373 9.87953 7.46099 9.90711Z" fill="black"/>
</svg>
