<svg width="24" height="24" viewBox="0 0 32 32" fill="none" xmlns="http://www.w3.org/2000/svg"
    role="img" aria-labelledby="whatsapp-icon-title">
    <title id="whatsapp-icon-title">WhatsApp icon</title>
    <path
        d="M16 1C7.71573 1 1 7.71573 1 16C1 18.7022 1.73379 21.227 2.96438 23.3671L1.36328 30.6367L8.63291 29.0356C10.773 30.2662 13.2978 31 16 31C24.2843 31 31 24.2843 31 16C31 7.71573 24.2843 1 16 1Z"
        stroke="#F6F6F6" stroke-width="2" stroke-linecap="round" stroke-linejoin="round" />
    <path fill="#F6F6F6"
        d="M24 21.5c-.294.824-1.435 1.519-2.36 1.723-.63.137-1.45.249-4.225-.906-3.541-1.474-5.805-5.107-5.98-5.34-.171-.234-1.425-1.894-1.425-3.615s.899-2.561 1.218-2.91c.32-.35.7-.438.934-.438.234 0 .468.003.673.012.219.01.516-.084.809.617.294.703.999 2.43 1.088 2.606.09.176.147.379.029.612-.117.234-.176.379-.344.585-.171.205-.361.459-.514.617-.171.176-.35.37-.151.725.205.35.914 1.507 1.955 2.439 1.344 1.196 2.475 1.57 2.825 1.746.35.176.553.146.762-.088.205-.234.879-1.026 1.115-1.379.234-.35.487-.292.809-.176.32.117 2.028.957 2.377 1.13.35.176.583.263.673.408.088.152.088.879-.206 1.703z" />
</svg>

